SplineFontDB: 3.0
FontName: aghtex_mathbb_light
FullName: aghtex_mathbb_light
FamilyName: aghtex_mathbb
Weight: Light
Copyright: Copyright (C) 2012-2013, Koichi Murase, 1997, 2009, American Mathematical Society <http://www.ams.org>, with Reserved Font Name MSBM10, CMSY10.
Version: 1.0.18/2013-11-04
ItalicAngle: 0
UnderlinePosition: -136
UnderlineWidth: 20
Ascent: 819
Descent: 205
LayerCount: 2
Layer: 0 1 "+gMyXYgAA"  1
Layer: 1 1 "+Uk2XYgAA"  0
NeedsXUIDChange: 1
UniqueID: 4702302
FSType: 0
OS2Version: 1
OS2_WeightWidthSlopeOnly: 0
OS2_UseTypoMetrics: 0
CreationTime: 878738956
ModificationTime: 1383777588
PfmFamily: 17
TTFWeight: 300
TTFWidth: 5
LineGap: 92
VLineGap: 0
OS2TypoAscent: 0
OS2TypoAOffset: 1
OS2TypoDescent: 0
OS2TypoDOffset: 1
OS2TypoLinegap: 92
OS2WinAscent: 0
OS2WinAOffset: 1
OS2WinDescent: 0
OS2WinDOffset: 1
HheadAscent: 0
HheadAOffset: 1
HheadDescent: 0
HheadDOffset: 1
OS2Vendor: 'PfEd'
MarkAttachClasses: 1
DEI: 91125
ShortTable: maxp 16
  0
  0
  0
  0
  0
  0
  0
  2
  1
  2
  22
  0
  256
  0
  0
  0
EndShort
TtTable: prep
PUSHW_1
 511
SCANCTRL
PUSHB_1
 1
SCANTYPE
SVTCA[y-axis]
MPPEM
PUSHB_1
 8
LT
IF
PUSHB_2
 1
 1
INSTCTRL
EIF
PUSHB_2
 70
 6
CALL
IF
POP
PUSHB_1
 16
EIF
MPPEM
PUSHB_1
 20
GT
IF
POP
PUSHB_1
 128
EIF
SCVTCI
PUSHB_1
 6
CALL
NOT
IF
SVTCA[y-axis]
PUSHB_1
 6
DUP
RCVT
PUSHB_1
 3
CALL
WCVTP
PUSHB_1
 7
DUP
RCVT
PUSHB_3
 6
 58
 2
CALL
PUSHB_1
 3
CALL
WCVTP
PUSHB_1
 8
DUP
RCVT
PUSHB_3
 6
 34
 2
CALL
PUSHB_1
 3
CALL
WCVTP
SVTCA[x-axis]
PUSHB_1
 9
DUP
RCVT
PUSHB_1
 3
CALL
WCVTP
PUSHB_1
 10
DUP
RCVT
PUSHB_3
 9
 58
 2
CALL
PUSHB_2
 3
 70
SROUND
CALL
WCVTP
PUSHB_1
 11
DUP
RCVT
PUSHB_3
 9
 24
 2
CALL
PUSHB_2
 3
 70
SROUND
CALL
WCVTP
EIF
PUSHB_1
 20
CALL
EndTTInstrs
TtTable: fpgm
PUSHB_1
 0
FDEF
PUSHB_1
 0
SZP0
MPPEM
PUSHB_1
 71
LT
IF
PUSHB_1
 74
SROUND
EIF
PUSHB_1
 0
SWAP
MIAP[rnd]
RTG
PUSHB_1
 6
CALL
IF
RTDG
EIF
MPPEM
PUSHB_1
 71
LT
IF
RDTG
EIF
DUP
MDRP[rp0,rnd,grey]
PUSHB_1
 1
SZP0
MDAP[no-rnd]
RTG
ENDF
PUSHB_1
 1
FDEF
DUP
MDRP[rp0,min,white]

StartChar: followsorequal
Encoding: -1 8829 1
Width: 799
VWidth: 1000
Flags: MW
HStem: -246 60<502 612.5 502 624.5> -63 60<186 296> 429 43<599.5 693 599.5 693>
VStem: 57 30<-220 -212 -212 -180 -220 -163> 711 30<-69 -37 -37 -29>
LayerCount: 2
Fore
SplineSet
72 -246 m 128,-1,1
 60 -246 60 -246 57 -220 c 1,2,-1
 57 -212 l 2,3,4
 57 -132 57 -132 104.5 -67.5 c 128,-1,5
 152 -3 152 -3 228 -3 c 0,6,7
 267 -3 267 -3 304.5 -22 c 128,-1,8
 342 -41 342 -41 372 -67.5 c 128,-1,9
 402 -94 402 -94 431.5 -121 c 128,-1,10
 461 -148 461 -148 497 -167 c 128,-1,11
 533 -186 533 -186 570 -186 c 0,12,13
 632 -186 632 -186 671.5 -139 c 128,-1,14
 711 -92 711 -92 711 -29 c 1,15,16
 714 -3 714 -3 726 -3 c 128,-1,17
 738 -3 738 -3 741 -29 c 1,18,-1
 741 -37 l 2,19,20
 741 -117 741 -117 694 -181.5 c 128,-1,21
 647 -246 647 -246 570 -246 c 0,22,23
 531 -246 531 -246 493.5 -227 c 128,-1,24
 456 -208 456 -208 426 -181 c 128,-1,25
 396 -154 396 -154 366.5 -127.5 c 128,-1,26
 337 -101 337 -101 301 -82 c 128,-1,27
 265 -63 265 -63 228 -63 c 0,28,29
 167 -63 167 -63 127 -110.5 c 128,-1,30
 87 -158 87 -158 87 -220 c 1,31,0
 84 -246 84 -246 72 -246 c 128,-1,1
108 149 m 0,32,33
 86 149 86 149 86 173 c 1,34,35
 108 391 108 391 417 451 c 1,36,37
 108 509 108 509 86 729 c 0,38,39
 86 738 86 738 92 745 c 128,-1,40
 98 752 98 752 108 752 c 0,41,42
 125 752 125 752 129 733 c 1,43,44
 134 682 134 682 159 641 c 128,-1,45
 184 600 184 600 218.5 573.5 c 128,-1,46
 253 547 253 547 303.5 527 c 128,-1,47
 354 507 354 507 400 497 c 128,-1,48
 446 487 446 487 504.5 481 c 128,-1,49
 563 475 563 475 603.5 473.5 c 128,-1,50
 644 472 644 472 693 472 c 1,51,52
 712 468 712 468 712 451 c 0,53,54
 712 433 712 433 693 429 c 1,55,56
 644 429 644 429 603.5 427.5 c 128,-1,57
 563 426 563 426 504 420 c 128,-1,58
 445 414 445 414 399 404 c 128,-1,59
 353 394 353 394 303 374 c 128,-1,60
 253 354 253 354 218.5 327.5 c 128,-1,61
 184 301 184 301 159 260.5 c 128,-1,62
 134 220 134 220 129 169 c 1,63,64
 125 149 125 149 108 149 c 0,32,33
EndSplineSet
Validated: 1
EndChar

StartChar: nleqq
Encoding: 8816 8816 2
Width: 799
VWidth: 1000
Flags: W
HStem: -196 53<81.2871 220 294 716.641> 7 53<81.2871 289 363 716.641> 729 51<701 716.609>
VStem: 145 51<-450.719 -434> 602 51<934 950.719>
LayerCount: 2
Fore
SplineSet
146 -415 m 1,0,-1
 220 -196 l 1,1,-1
 106 -196 l 1,2,-1
 105 -196 l 1,3,4
 81 -191 81 -191 81 -170 c 0,5,6
 81 -148 81 -148 105 -143 c 2,7,-1
 106 -143 l 1,8,-1
 238 -143 l 1,9,-1
 289 7 l 1,10,-1
 106 7 l 1,11,-1
 105 7 l 1,12,13
 81 12 81 12 81 33 c 0,14,15
 81 55 81 55 105 60 c 2,16,-1
 106 60 l 1,17,-1
 306 60 l 1,18,-1
 391 307 l 1,19,-1
 95 450 l 2,20,21
 81 457 81 457 81 473 c 128,-1,22
 81 489 81 489 98 497 c 2,23,-1
 524 703 l 1,24,-1
 602 934 l 1,25,26
 606 951 606 951 627 951 c 0,27,28
 637 951 637 951 645 943 c 128,-1,29
 653 935 653 935 653 925 c 0,30,31
 653 919 653 919 652 916 c 0,32,-1
 652 915 l 1,33,-1
 591 735 l 1,34,-1
 681 777 l 2,35,36
 686 780 686 780 691 780 c 0,37,38
 701 780 701 780 709 772 c 128,-1,39
 717 764 717 764 717 753 c 0,40,41
 717 737 717 737 701 729 c 2,42,-1
 567 664 l 1,43,-1
 456 336 l 1,44,-1
 704 216 l 2,45,46
 717 210 717 210 717 193 c 0,47,48
 717 181 717 181 709 174 c 128,-1,49
 701 167 701 167 691 167 c 0,50,51
 685 167 685 167 682 168 c 0,52,53
 681 168 681 168 681 169 c 2,54,-1
 439 285 l 1,55,-1
 363 60 l 1,56,-1
 694 60 l 1,57,-1
 695 60 l 2,58,59
 717 53 717 53 717 33 c 0,60,61
 717 12 717 12 694 7 c 0,62,-1
 693 7 l 1,63,-1
 345 7 l 1,64,-1
 294 -143 l 1,65,-1
 694 -143 l 1,66,-1
 695 -143 l 2,67,68
 717 -150 717 -150 717 -170 c 0,69,70
 717 -191 717 -191 694 -196 c 0,71,-1
 693 -196 l 1,72,-1
 277 -196 l 1,73,-1
 196 -434 l 1,74,75
 192 -451 192 -451 171 -451 c 0,76,77
 161 -451 161 -451 153 -443 c 128,-1,78
 145 -435 145 -435 145 -425 c 0,79,80
 145 -419 145 -419 146 -416 c 2,81,-1
 146 -415 l 1,0,-1
169 473 m 1,82,-1
 408 358 l 1,83,-1
 500 632 l 1,84,-1
 169 473 l 1,82,-1
EndSplineSet
Validated: 3073
EndChar

StartChar: NameMe.8817
Encoding: 8817 8817 3
Width: 799
VWidth: 1000
Flags: W
HStem: -196 53<81.2109 220 294 716.798> 7 53<81.2109 289 363 716.798> 730 50<81.4136 95>
VStem: 145 51<-450.719 -434> 602 51<934 950.719>
LayerCount: 2
Fore
SplineSet
146 -415 m 1,0,-1
 220 -196 l 1,1,-1
 106 -196 l 1,2,-1
 105 -196 l 1,3,4
 81 -191 81 -191 81 -170 c 0,5,6
 81 -143 81 -143 105 -143 c 2,7,-1
 106 -143 l 1,8,-1
 238 -143 l 1,9,-1
 289 7 l 1,10,-1
 106 7 l 1,11,-1
 105 7 l 1,12,13
 81 12 81 12 81 33 c 0,14,15
 81 60 81 60 105 60 c 2,16,-1
 106 60 l 1,17,-1
 306 60 l 1,18,-1
 387 298 l 1,19,-1
 121 169 l 1,20,-1
 118 168 l 2,21,22
 115 167 115 167 108 167 c 0,23,24
 97 167 97 167 89 174.5 c 128,-1,25
 81 182 81 182 81 193 c 0,26,27
 81 209 81 209 98 217 c 2,28,-1
 411 369 l 1,29,-1
 472 548 l 1,30,-1
 95 730 l 2,31,32
 81 737 81 737 81 753 c 0,33,34
 81 764 81 764 89 772 c 128,-1,35
 97 780 97 780 108 780 c 0,36,37
 113 780 113 780 118 779 c 0,38,-1
 125 775 l 1,39,-1
 489 599 l 1,40,-1
 602 934 l 1,41,42
 606 951 606 951 627 951 c 0,43,44
 637 951 637 951 645 943 c 128,-1,45
 653 935 653 935 653 925 c 0,46,47
 653 919 653 919 652 916 c 0,48,-1
 652 915 l 1,49,-1
 537 577 l 1,50,-1
 704 496 l 2,51,52
 717 490 717 490 717 473 c 0,53,54
 717 457 717 457 701 449 c 2,55,-1
 454 330 l 1,56,-1
 363 60 l 1,57,-1
 694 60 l 1,58,-1
 695 60 l 2,59,60
 717 60 717 60 717 33 c 0,61,62
 717 12 717 12 694 7 c 0,63,-1
 693 7 l 1,64,-1
 345 7 l 1,65,-1
 294 -143 l 1,66,-1
 694 -143 l 1,67,-1
 695 -143 l 2,68,69
 717 -143 717 -143 717 -170 c 0,70,71
 717 -191 717 -191 694 -196 c 0,72,-1
 693 -196 l 1,73,-1
 277 -196 l 1,74,-1
 196 -434 l 1,75,76
 192 -451 192 -451 171 -451 c 0,77,78
 161 -451 161 -451 153 -443 c 0,79,80
 144 -434 144 -434 145 -425 c 0,81,82
 146 -419 146 -419 146 -416 c 2,83,-1
 146 -415 l 1,0,-1
478 401 m 1,84,-1
 629 473 l 1,85,-1
 520 526 l 1,86,-1
 478 401 l 1,84,-1
EndSplineSet
Validated: 3073
EndChar

StartChar: nlslant
Encoding: 8820 8820 4
Width: 799
VWidth: 1000
Flags: W
HStem: -159 49<704 716.743> 44 49<704 716.743> 124 50<81.4136 95> 606 51<701 716.609>
VStem: 145 51<-327.719 -312> 602 51<812 827.719>
LayerCount: 2
Fore
SplineSet
146 -292 m 2,0,-1
 282 35 l 1,1,-1
 95 124 l 2,2,3
 81 131 81 131 81 147 c 0,4,5
 81 158 81 158 89 166 c 128,-1,6
 97 174 97 174 108 174 c 0,7,8
 111 174 111 174 118 172 c 0,9,-1
 121 171 l 1,10,-1
 301 84 l 1,11,-1
 352 204 l 1,12,-1
 95 327 l 2,13,14
 81 334 81 334 81 350 c 128,-1,15
 81 366 81 366 98 374 c 2,16,-1
 502 569 l 1,17,-1
 602 812 l 2,18,19
 609 828 609 828 627 828 c 0,20,21
 637 828 637 828 645 820 c 128,-1,22
 653 812 653 812 653 802 c 0,23,24
 653 796 653 796 652 793 c 0,25,-1
 652 792 l 1,26,-1
 574 603 l 1,27,-1
 681 654 l 2,28,29
 687 657 687 657 691 657 c 0,30,31
 701 657 701 657 709 649 c 128,-1,32
 717 641 717 641 717 630 c 0,33,34
 717 614 717 614 701 606 c 2,35,-1
 544 530 l 1,36,-1
 419 229 l 1,37,-1
 704 93 l 2,38,39
 717 87 717 87 717 70 c 0,40,41
 717 59 717 59 709 51.5 c 128,-1,42
 701 44 701 44 691 44 c 0,43,44
 685 44 685 44 682 45 c 0,45,46
 681 45 681 45 681 46 c 2,47,-1
 400 181 l 1,48,-1
 349 60 l 1,49,-1
 704 -110 l 2,50,51
 717 -116 717 -116 717 -133 c 0,52,53
 717 -144 717 -144 709 -151.5 c 128,-1,54
 701 -159 701 -159 691 -159 c 0,55,56
 685 -159 685 -159 682 -158 c 0,57,58
 681 -158 681 -158 681 -157 c 2,59,-1
 330 11 l 1,60,-1
 196 -312 l 2,61,62
 189 -328 189 -328 171 -328 c 0,63,64
 161 -328 161 -328 153 -320 c 128,-1,65
 145 -312 145 -312 145 -302 c 0,66,67
 145 -296 145 -296 146 -293 c 0,68,-1
 146 -292 l 2,0,-1
169 350 m 1,69,-1
 371 253 l 1,70,-1
 471 496 l 1,71,-1
 169 350 l 1,69,-1
EndSplineSet
Validated: 3073
EndChar

StartChar: ngslant
Encoding: 8821 8821 5
Width: 799
VWidth: 1000
Flags: W
HStem: 125 49<704 716.616> 606 51<81.415 98>
VStem: 145 51<-327.719 -312> 602 51<812 827.719>
LayerCount: 2
Fore
SplineSet
146 -292 m 2,0,-1
 223 -107 l 1,1,-1
 120 -157 l 1,2,-1
 118 -158 l 2,3,4
 116 -159 116 -159 108 -159 c 0,5,6
 97 -159 97 -159 89 -151.5 c 128,-1,7
 81 -144 81 -144 81 -133 c 0,8,9
 81 -116 81 -116 95 -109 c 2,10,-1
 253 -33 l 1,11,-1
 327 147 l 1,12,-1
 118 46 l 1,13,-1
 118 45 l 2,14,15
 118 44 118 44 108 44 c 0,16,17
 97 44 97 44 89 51.5 c 128,-1,18
 81 59 81 59 81 70 c 0,19,20
 81 87 81 87 95 94 c 2,21,-1
 358 220 l 1,22,-1
 448 438 l 1,23,-1
 98 606 l 2,24,25
 81 614 81 614 81 630 c 0,26,27
 81 641 81 641 89 649 c 128,-1,28
 97 657 97 657 108 657 c 0,29,30
 111 657 111 657 118 655 c 0,31,-1
 120 654 l 1,32,-1
 468 487 l 1,33,-1
 602 812 l 2,34,35
 609 828 609 828 627 828 c 0,36,37
 637 828 637 828 645 820 c 128,-1,38
 653 812 653 812 653 802 c 0,39,40
 653 796 653 796 652 793 c 0,41,-1
 515 463 l 1,42,-1
 701 374 l 2,43,44
 717 366 717 366 717 350 c 128,-1,45
 717 334 717 334 704 328 c 2,46,-1
 399 181 l 1,47,-1
 325 1 l 1,48,-1
 681 171 l 2,49,50
 687 174 687 174 691 174 c 0,51,52
 701 174 701 174 709 166 c 128,-1,53
 717 158 717 158 717 147 c 0,54,55
 717 131 717 131 704 125 c 2,56,-1
 295 -73 l 1,57,-1
 196 -312 l 2,58,59
 189 -328 189 -328 171 -328 c 0,60,61
 161 -328 161 -328 153 -320 c 128,-1,62
 145 -312 145 -312 145 -302 c 0,63,64
 145 -296 145 -296 146 -293 c 0,65,-1
 146 -292 l 2,0,-1
430 254 m 1,66,-1
 629 350 l 1,67,-1
 496 414 l 1,68,-1
 430 254 l 1,66,-1
EndSplineSet
Validated: 3073
EndChar

StartChar: npreceq
Encoding: 8929 8928 6
Width: 799
VWidth: 1000
Flags: W
HStem: -159 53<81.2871 202 280 716.725> 286 49<463 501.921> 324 53<81.2871 326.032>
VStem: 145 51<-327.719 -312> 602 51<812 827.719> 664 53<44.2751 140.312 555.859 648.234>
LayerCount: 2
Fore
SplineSet
146 -292 m 2,0,-1
 202 -159 l 1,1,-1
 106 -159 l 1,2,-1
 105 -159 l 1,3,4
 81 -154 81 -154 81 -133 c 0,5,6
 81 -111 81 -111 105 -106 c 2,7,-1
 106 -106 l 1,8,-1
 224 -106 l 1,9,-1
 391 299 l 1,10,11
 274 324 274 324 106 324 c 0,12,13
 105 324 l 1,14,15
 81 329 81 329 81 351 c 0,16,17
 81 372 81 372 105 377 c 2,18,-1
 106 377 l 1,19,20
 310 377 310 377 437 413 c 1,21,-1
 602 812 l 2,22,23
 608 828 608 828 627 828 c 0,24,25
 637 828 637 828 645 820 c 128,-1,26
 653 812 653 812 653 802 c 0,27,28
 653 796 653 796 652 793 c 0,29,-1
 504 436 l 1,30,31
 650 498 650 498 664 633 c 1,32,33
 669 657 669 657 691 657 c 0,34,35
 702 657 702 657 709.5 648.5 c 128,-1,36
 717 640 717 640 717 628 c 0,37,-1
 717 627 l 1,38,39
 698 440 698 440 477 370 c 1,40,-1
 463 335 l 1,41,42
 567 305 567 305 636.5 240 c 128,-1,43
 706 175 706 175 717 73 c 2,44,-1
 717 72 l 1,45,46
 717 61 717 61 709.5 52.5 c 128,-1,47
 702 44 702 44 691 44 c 0,48,49
 667 44 667 44 664 67 c 0,50,51
 646 226 646 226 443 286 c 1,52,-1
 280 -106 l 1,53,-1
 694 -106 l 1,54,55
 717 -111 717 -111 717 -133 c 0,56,57
 717 -154 717 -154 694 -159 c 0,58,-1
 693 -159 l 1,59,-1
 259 -159 l 1,60,-1
 196 -312 l 2,61,62
 190 -328 190 -328 171 -328 c 0,63,64
 161 -328 161 -328 153 -320 c 128,-1,65
 145 -312 145 -312 145 -302 c 0,66,67
 145 -296 145 -296 146 -293 c 0,68,69
 146 -292 l 2,0,-1
403 350 m 1,70,-1
 411 349 l 1,71,-1
 413 352 l 1,72,73
 408 351 408 351 403 350 c 1,70,-1
EndSplineSet
Validated: 3073
EndChar

StartChar: nsucceq
Encoding: 8930 8929 7
Width: 799
VWidth: 1000
Flags: W
HStem: -159 53<105.02 201.517 280.479 716.719> 324 53<487.916 716.719>
VStem: 81 53<53.3344 141.382 627.465 656.71> 145 51<-327.719 -311.859> 602 51<811.852 827.719>
LayerCount: 2
Fore
SplineSet
146 -292 m 2,0,-1
 202 -159 l 1,1,-1
 106 -159 l 1,2,-1
 105 -159 l 1,3,4
 81 -154 81 -154 81 -133 c 0,5,6
 81 -111 81 -111 105 -106 c 2,7,-1
 106 -106 l 1,8,-1
 224 -106 l 1,9,-1
 389 295 l 1,10,11
 154 239 154 239 134 67 c 0,12,13
 131 44 131 44 108 44 c 0,14,15
 96 44 96 44 88 53 c 128,-1,16
 80 62 80 62 81 72 c 0,17,18
 86 135 86 135 117.5 187 c 128,-1,19
 149 239 149 239 198.5 271 c 128,-1,20
 248 303 248 303 296 321.5 c 128,-1,21
 344 340 344 340 393 350 c 1,22,23
 341 362 341 362 295 379.5 c 128,-1,24
 249 397 249 397 198.5 428.5 c 128,-1,25
 148 460 148 460 118 510.5 c 128,-1,26
 88 561 88 561 81 627 c 2,27,28
 81 628 l 1,29,30
 81 657 81 657 108 657 c 0,31,32
 129 657 129 657 134 633 c 1,33,34
 153 447 153 447 431 397 c 1,35,-1
 602 812 l 2,36,37
 608 828 608 828 627 828 c 0,38,39
 637 828 637 828 645 820 c 128,-1,40
 653 812 653 812 653 802 c 0,41,42
 653 796 653 796 652 793 c 0,43,-1
 652 792 l 1,44,-1
 485 388 l 1,45,46
 575 377 575 377 693 377 c 2,47,-1
 694 377 l 1,48,49
 717 372 717 372 717 351 c 0,50,51
 717 329 717 329 694 324 c 0,52,-1
 693 324 l 1,53,54
 552 324 552 324 452 308 c 1,55,-1
 280 -106 l 1,56,-1
 694 -106 l 1,57,58
 717 -111 717 -111 717 -133 c 0,59,60
 717 -154 717 -154 694 -159 c 0,61,-1
 693 -159 l 1,62,-1
 259 -159 l 1,63,-1
 196 -312 l 2,64,65
 190 -328 190 -328 171 -328 c 0,66,67
 161 -328 161 -328 153 -320 c 128,-1,68
 145 -312 145 -312 145 -302 c 0,69,70
 145 -296 145 -296 146 -293 c 0,71,72
 146 -292 l 2,0,-1
EndSplineSet
Validated: 19457
EndChar

StartChar: lnvert
Encoding: 8808 8808 8
Width: 799
VWidth: 1000
Flags: W
HStem: -197 53<105.02 373 426 716.719> 6 53<105.02 373 426 716.719> 166 49<704.201 716.617> 728 51<701.129 716.72>
VStem: 373 53<-303.619 -197 -144 6 59 141.98>
LayerCount: 2
Fore
SplineSet
81 -171 m 0,0,1
 81 -149 81 -149 105 -144 c 2,2,-1
 106 -144 l 1,3,-1
 373 -144 l 1,4,-1
 373 6 l 1,5,-1
 106 6 l 1,6,-1
 105 6 l 1,7,8
 81 11 81 11 81 33 c 0,9,10
 81 54 81 54 105 59 c 2,11,-1
 106 59 l 1,12,-1
 373 59 l 1,13,-1
 373 141 l 1,14,-1
 373 142 l 1,15,16
 378 166 378 166 399 166 c 128,-1,17
 420 166 420 166 426 142 c 0,18,-1
 426 141 l 1,19,-1
 426 59 l 1,20,-1
 694 59 l 1,21,22
 717 54 717 54 717 33 c 0,23,24
 717 11 717 11 694 6 c 0,25,-1
 693 6 l 1,26,-1
 426 6 l 1,27,-1
 426 -144 l 1,28,-1
 694 -144 l 1,29,30
 717 -149 717 -149 717 -171 c 0,31,32
 717 -192 717 -192 694 -197 c 0,33,-1
 693 -197 l 1,34,-1
 426 -197 l 1,35,-1
 426 -280 l 1,36,37
 420 -304 420 -304 399 -304 c 128,-1,38
 378 -304 378 -304 373 -280 c 2,39,-1
 373 -279 l 1,40,-1
 373 -197 l 1,41,-1
 106 -197 l 1,42,-1
 105 -197 l 1,43,44
 81 -192 81 -192 81 -171 c 0,0,1
81 473 m 0,45,46
 81 489 81 489 98 497 c 2,47,-1
 681 777 l 2,48,49
 684 779 684 779 691 779 c 0,50,51
 701 779 701 779 709 771 c 128,-1,52
 717 763 717 763 717 753 c 0,53,54
 717 736 717 736 701 728 c 2,55,-1
 169 473 l 1,56,-1
 704 215 l 2,57,58
 717 209 717 209 717 193 c 0,59,60
 717 182 717 182 709 174 c 128,-1,61
 701 166 701 166 691 166 c 0,62,63
 688 166 688 166 685 167 c 256,64,65
 682 168 682 168 680 169 c 2,66,-1
 95 449 l 2,67,68
 81 456 81 456 81 473 c 0,45,46
EndSplineSet
Validated: 19457
EndChar

StartChar: gnvert
Encoding: 8809 8809 9
Width: 799
VWidth: 1000
Flags: W
HStem: -197 53<81.2871 373 426 716.725> 6 53<81.2871 373 426 716.725> 166 51<81.415 98> 729 50<81.2812 95>
VStem: 373 53<-303.625 -197 -144 6 59 165.625>
LayerCount: 2
Fore
SplineSet
81 -171 m 0,0,1
 81 -149 81 -149 105 -144 c 2,2,-1
 106 -144 l 1,3,-1
 373 -144 l 1,4,-1
 373 6 l 1,5,-1
 106 6 l 1,6,-1
 105 6 l 1,7,8
 81 11 81 11 81 33 c 0,9,10
 81 54 81 54 105 59 c 2,11,-1
 106 59 l 1,12,-1
 373 59 l 1,13,-1
 373 141 l 1,14,-1
 373 142 l 1,15,16
 378 166 378 166 399 166 c 128,-1,17
 420 166 420 166 426 142 c 0,18,-1
 426 141 l 1,19,-1
 426 59 l 1,20,-1
 694 59 l 1,21,22
 717 54 717 54 717 33 c 0,23,24
 717 11 717 11 694 6 c 0,25,-1
 693 6 l 1,26,-1
 426 6 l 1,27,-1
 426 -144 l 1,28,-1
 694 -144 l 1,29,30
 717 -149 717 -149 717 -171 c 0,31,32
 717 -192 717 -192 694 -197 c 0,33,-1
 693 -197 l 1,34,-1
 426 -197 l 1,35,-1
 426 -280 l 1,36,37
 420 -304 420 -304 399 -304 c 128,-1,38
 378 -304 378 -304 373 -280 c 2,39,-1
 373 -279 l 1,40,-1
 373 -197 l 1,41,-1
 106 -197 l 1,42,-1
 105 -197 l 1,43,44
 81 -192 81 -192 81 -171 c 0,0,1
98 217 m 2,45,-1
 629 473 l 1,46,-1
 95 729 l 2,47,48
 81 736 81 736 81 753 c 0,49,50
 81 763 81 763 89 771 c 128,-1,51
 97 779 97 779 108 779 c 0,52,53
 114 779 114 779 118 778 c 0,54,-1
 120 777 l 1,55,-1
 704 495 l 2,56,57
 717 489 717 489 717 473 c 0,58,59
 717 456 717 456 701 448 c 2,60,-1
 118 169 l 2,61,62
 112 166 112 166 108 166 c 0,63,64
 97 166 97 166 89 174 c 128,-1,65
 81 182 81 182 81 193 c 0,66,67
 81 209 81 209 98 217 c 2,45,-1
EndSplineSet
Validated: 3073
EndChar

StartChar: varsubsetneqq
Encoding: 10952 10952 10
Width: 799
VWidth: 1000
Flags: W
HStem: -240 53<105.02 277.908 374.069 716.719> -37 53<105.02 405.931 502.117 716.719> 166 53<290.916 534.883 631.092 716.719> 726 53<290.916 716.719>
VStem: 81 53<368.268 577>
LayerCount: 2
Fore
SplineSet
81 -214 m 0,0,1
 81 -192 81 -192 105 -187 c 2,2,-1
 106 -187 l 1,3,-1
 311 -187 l 1,4,-1
 406 -37 l 1,5,-1
 106 -37 l 1,6,-1
 105 -37 l 1,7,8
 81 -32 81 -32 81 -11 c 0,9,10
 81 11 81 11 105 16 c 2,11,-1
 106 16 l 1,12,-1
 439 16 l 1,13,-1
 535 166 l 1,14,-1
 397 166 l 2,15,16
 268 166 268 166 174.5 255.5 c 128,-1,17
 81 345 81 345 81 473 c 0,18,19
 81 600 81 600 174.5 689.5 c 128,-1,20
 268 779 268 779 397 779 c 2,21,-1
 694 779 l 1,22,23
 717 774 717 774 717 753 c 0,24,25
 717 731 717 731 694 726 c 0,26,-1
 693 726 l 1,27,-1
 401 726 l 2,28,29
 292 726 292 726 213 653 c 128,-1,30
 134 580 134 580 134 473 c 0,31,32
 134 365 134 365 213 292 c 128,-1,33
 292 219 292 219 401 219 c 2,34,-1
 568 219 l 1,35,-1
 634 321 l 1,36,37
 639 333 639 333 655 333 c 0,38,39
 666 333 666 333 674 325 c 128,-1,40
 682 317 682 317 682 307 c 0,41,42
 682 298 682 298 678 293 c 2,43,-1
 631 219 l 1,44,-1
 694 219 l 1,45,46
 717 214 717 214 717 193 c 0,47,48
 717 171 717 171 694 166 c 0,49,-1
 693 166 l 1,50,-1
 598 166 l 1,51,-1
 502 16 l 1,52,-1
 694 16 l 1,53,54
 717 11 717 11 717 -11 c 0,55,56
 717 -32 717 -32 694 -37 c 0,57,-1
 693 -37 l 1,58,-1
 469 -37 l 1,59,-1
 374 -187 l 1,60,-1
 694 -187 l 1,61,62
 717 -192 717 -192 717 -214 c 0,63,64
 717 -235 717 -235 694 -240 c 0,65,-1
 693 -240 l 1,66,-1
 340 -240 l 1,67,-1
 275 -343 l 2,68,69
 267 -354 267 -354 253 -354 c 0,70,71
 242 -354 242 -354 234.5 -346 c 128,-1,72
 227 -338 227 -338 227 -328 c 0,73,74
 227 -321 227 -321 231 -314 c 2,75,-1
 278 -240 l 1,76,-1
 106 -240 l 1,77,-1
 105 -240 l 1,78,79
 81 -235 81 -235 81 -214 c 0,0,1
EndSplineSet
Validated: 19457
EndChar

StartChar: varsupsetneqq
Encoding: 10953 10953 11
Width: 799
VWidth: 1000
Flags: W
HStem: -240 53<105.02 149.615 228.385 716.719> -37 53<105.02 231.572 310.385 716.719> 166 53<105.02 313.572 392.385 507.084> 726 53<105.02 507.084>
VStem: 374 52<316.838 332.605> 664 53<368.268 577>
LayerCount: 2
Fore
SplineSet
118 -318 m 2,0,-1
 150 -240 l 1,1,-1
 106 -240 l 1,2,-1
 105 -240 l 1,3,4
 81 -235 81 -235 81 -214 c 0,5,6
 81 -192 81 -192 105 -187 c 2,7,-1
 106 -187 l 1,8,-1
 171 -187 l 1,9,-1
 232 -37 l 1,10,-1
 106 -37 l 1,11,12
 105 -37 l 1,13,14
 81 -32 81 -32 81 -11 c 0,15,16
 81 11 81 11 105 16 c 2,17,-1
 106 16 l 1,18,-1
 253 16 l 1,19,-1
 314 166 l 1,20,-1
 106 166 l 1,21,-1
 105 166 l 1,22,23
 81 171 81 171 81 193 c 0,24,25
 81 214 81 214 105 219 c 2,26,-1
 106 219 l 1,27,-1
 335 219 l 1,28,-1
 374 317 l 2,29,30
 380 333 380 333 399 333 c 0,31,32
 410 333 410 333 418 325 c 128,-1,33
 426 317 426 317 426 307 c 0,34,35
 426 302 426 302 424 297 c 2,36,-1
 392 219 l 1,37,-1
 397 219 l 2,38,39
 506 219 506 219 585 292 c 128,-1,40
 664 365 664 365 664 473 c 0,41,42
 664 580 664 580 585 653 c 128,-1,43
 506 726 506 726 397 726 c 2,44,-1
 106 726 l 1,45,-1
 105 726 l 1,46,47
 81 731 81 731 81 753 c 0,48,49
 81 774 81 774 105 779 c 2,50,-1
 106 779 l 1,51,-1
 401 779 l 2,52,53
 530 779 530 779 623.5 689.5 c 128,-1,54
 717 600 717 600 717 473 c 0,55,56
 717 345 717 345 623.5 255.5 c 128,-1,57
 530 166 530 166 401 166 c 2,58,-1
 370 166 l 1,59,-1
 310 16 l 1,60,-1
 694 16 l 1,61,62
 717 11 717 11 717 -11 c 0,63,64
 717 -32 717 -32 694 -37 c 0,65,-1
 693 -37 l 1,66,-1
 288 -37 l 1,67,-1
 228 -187 l 1,68,-1
 694 -187 l 1,69,70
 717 -192 717 -192 717 -214 c 0,71,72
 717 -235 717 -235 694 -240 c 0,73,-1
 693 -240 l 1,74,-1
 206 -240 l 1,75,-1
 168 -338 l 1,76,-1
 167 -338 l 1,77,78
 159 -354 159 -354 143 -354 c 0,79,80
 132 -354 132 -354 124 -346 c 128,-1,81
 116 -338 116 -338 116 -328 c 0,82,83
 116 -323 116 -323 118 -318 c 2,0,-1
EndSplineSet
Validated: 19457
EndChar

StartChar: varsubsetneq
Encoding: 8842 8842 12
Width: 799
VWidth: 1000
Flags: W
HStem: -159 53<126.22 259.43 371.607 716.719> 44 53<290.916 426.393 538.57 716.719> 604 53<290.916 716.719>
VStem: 81 53<246.268 455>
LayerCount: 2
Fore
SplineSet
202 -229 m 2,0,-1
 259 -159 l 1,1,-1
 127 -159 l 1,2,-1
 126 -159 l 1,3,4
 103 -155 103 -155 103 -133 c 0,5,6
 103 -110 103 -110 126 -106 c 2,7,-1
 127 -106 l 1,8,-1
 303 -106 l 1,9,-1
 426 44 l 1,10,-1
 397 44 l 2,11,12
 268 44 268 44 174.5 133.5 c 128,-1,13
 81 223 81 223 81 351 c 0,14,15
 81 478 81 478 174.5 567.5 c 128,-1,16
 268 657 268 657 397 657 c 2,17,-1
 694 657 l 1,18,19
 717 652 717 652 717 631 c 0,20,21
 717 609 717 609 694 604 c 0,22,-1
 693 604 l 1,23,-1
 401 604 l 2,24,25
 292 604 292 604 213 531 c 128,-1,26
 134 458 134 458 134 351 c 0,27,28
 134 243 134 243 213 170 c 128,-1,29
 292 97 292 97 401 97 c 2,30,-1
 470 97 l 1,31,-1
 557 203 l 1,32,33
 565 211 565 211 576 211 c 128,-1,34
 587 211 587 211 595 203 c 128,-1,35
 603 195 603 195 603 185 c 0,36,37
 603 176 603 176 596 167 c 2,38,-1
 539 97 l 1,39,-1
 694 97 l 1,40,41
 717 92 717 92 717 71 c 0,42,43
 717 49 717 49 694 44 c 0,44,-1
 693 44 l 1,45,-1
 495 44 l 1,46,-1
 372 -106 l 1,47,-1
 694 -106 l 1,48,49
 717 -111 717 -111 717 -133 c 0,50,51
 717 -154 717 -154 694 -159 c 0,52,-1
 693 -159 l 1,53,-1
 328 -159 l 1,54,-1
 241 -265 l 1,55,56
 233 -273 233 -273 222 -273 c 128,-1,57
 211 -273 211 -273 203 -265 c 128,-1,58
 195 -257 195 -257 195 -247 c 0,59,60
 195 -238 195 -238 202 -229 c 2,0,-1
EndSplineSet
Validated: 19457
EndChar

StartChar: varsupsetneq
Encoding: 8843 8843 13
Width: 799
VWidth: 1000
Flags: W
HStem: -159 53<105.02 133.721 232.311 671.98> 44 53<105.02 267.738 366.279 507.084> 604 53<105.02 507.084>
VStem: 664 53<246.268 455>
LayerCount: 2
Fore
SplineSet
85 -233 m 2,0,-1
 134 -159 l 1,1,-1
 106 -159 l 1,2,-1
 105 -159 l 1,3,4
 81 -154 81 -154 81 -133 c 0,5,6
 81 -111 81 -111 105 -106 c 2,7,-1
 106 -106 l 1,8,-1
 169 -106 l 1,9,-1
 268 44 l 1,10,-1
 106 44 l 1,11,12
 105 44 l 1,13,14
 81 49 81 49 81 71 c 0,15,16
 81 92 81 92 105 97 c 2,17,-1
 106 97 l 1,18,-1
 303 97 l 1,19,-1
 371 200 l 2,20,21
 378 211 378 211 393 211 c 0,22,23
 404 211 404 211 411.5 203 c 128,-1,24
 419 195 419 195 419 186.5 c 128,-1,25
 419 178 419 178 417 175 c 0,26,27
 416 173 416 173 415 171 c 2,28,-1
 366 97 l 1,29,-1
 397 97 l 2,30,31
 506 97 506 97 585 170 c 128,-1,32
 664 243 664 243 664 351 c 0,33,34
 664 458 664 458 585 531 c 128,-1,35
 506 604 506 604 397 604 c 2,36,-1
 106 604 l 1,37,-1
 105 604 l 1,38,39
 81 609 81 609 81 631 c 0,40,41
 81 652 81 652 105 657 c 2,42,-1
 106 657 l 1,43,-1
 401 657 l 2,44,45
 530 657 530 657 623.5 567.5 c 128,-1,46
 717 478 717 478 717 351 c 0,47,48
 717 223 717 223 623.5 133.5 c 128,-1,49
 530 44 530 44 401 44 c 2,50,-1
 332 44 l 1,51,-1
 232 -106 l 1,52,-1
 671 -106 l 1,53,-1
 672 -106 l 1,54,55
 696 -111 696 -111 696 -133 c 0,56,57
 696 -154 696 -154 672 -159 c 2,58,-1
 671 -159 l 1,59,-1
 198 -159 l 1,60,-1
 129 -262 l 2,61,62
 122 -273 122 -273 108 -273 c 0,63,64
 97 -273 97 -273 89 -265 c 128,-1,65
 81 -257 81 -257 81 -247 c 0,66,67
 81 -238 81 -238 85 -233 c 2,0,-1
EndSplineSet
Validated: 19457
EndChar

StartChar: nsubseteqq
Encoding: 8840 8840 14
Width: 799
VWidth: 1000
Flags: W
HStem: -240 53<105.02 154.315 235.646 716.719> -37 53<105.02 243.354 324.688 716.719> 166 53<291.659 335.882 414.67 716.719> 726 53<290.916 580.326 661.583 716.719>
VStem: 81 53<370.558 577>
LayerCount: 2
Fore
SplineSet
118 -321 m 2,0,-1
 154 -240 l 1,1,-1
 106 -240 l 1,2,-1
 105 -240 l 1,3,4
 81 -235 81 -235 81 -214 c 0,5,6
 81 -192 81 -192 105 -187 c 2,7,-1
 106 -187 l 1,8,-1
 178 -187 l 1,9,-1
 243 -37 l 1,10,-1
 106 -37 l 1,11,12
 105 -37 l 1,13,14
 81 -32 81 -32 81 -11 c 0,15,16
 81 11 81 11 105 16 c 2,17,-1
 106 16 l 1,18,-1
 267 16 l 1,19,-1
 336 172 l 1,20,21
 228 193 228 193 154.5 276.5 c 128,-1,22
 81 360 81 360 81 473 c 0,23,24
 81 600 81 600 174.5 689.5 c 128,-1,25
 268 779 268 779 397 779 c 2,26,-1
 604 779 l 1,27,-1
 630 841 l 1,28,29
 638 858 638 858 655 858 c 0,30,31
 666 858 666 858 674 850 c 128,-1,32
 682 842 682 842 682 831 c 0,33,34
 682 828 682 828 680 821 c 2,35,-1
 662 779 l 1,36,-1
 694 779 l 1,37,38
 717 774 717 774 717 753 c 0,39,40
 717 731 717 731 694 726 c 0,41,-1
 693 726 l 1,42,-1
 638 726 l 1,43,-1
 415 219 l 1,44,-1
 694 219 l 1,45,46
 717 214 717 214 717 193 c 0,47,48
 717 171 717 171 694 166 c 0,49,-1
 693 166 l 1,50,-1
 391 166 l 1,51,-1
 325 16 l 1,52,-1
 694 16 l 1,53,54
 717 11 717 11 717 -11 c 0,55,56
 717 -32 717 -32 694 -37 c 0,57,-1
 693 -37 l 1,58,-1
 301 -37 l 1,59,-1
 236 -187 l 1,60,-1
 694 -187 l 1,61,62
 717 -192 717 -192 717 -214 c 0,63,64
 717 -235 717 -235 694 -240 c 0,65,-1
 693 -240 l 1,66,-1
 212 -240 l 1,67,-1
 168 -341 l 2,68,69
 160 -358 160 -358 143 -358 c 0,70,71
 132 -358 132 -358 124 -350 c 128,-1,72
 116 -342 116 -342 116 -331 c 0,73,74
 116 -328 116 -328 118 -321 c 2,0,-1
358 222 m 1,75,-1
 580 726 l 1,76,-1
 401 726 l 2,77,78
 292 726 292 726 213 653 c 128,-1,79
 134 580 134 580 134 473 c 0,80,81
 134 377 134 377 199 306.5 c 128,-1,82
 264 236 264 236 358 222 c 1,75,-1
EndSplineSet
Validated: 19457
EndChar

StartChar: nsupseteqq
Encoding: 8841 8841 15
Width: 799
VWidth: 1000
Flags: W
HStem: -240 53<105.02 154.315 235.646 716.719> -37 53<105.02 243.354 324.688 716.719> 166 53<105.02 333.312 414.71 509.903> 726 53<105.02 507.425>
VStem: 664 53<371.779 574.971>
LayerCount: 2
Fore
SplineSet
118 -321 m 2,0,-1
 154 -240 l 1,1,-1
 106 -240 l 1,2,-1
 105 -240 l 1,3,4
 81 -235 81 -235 81 -214 c 0,5,6
 81 -192 81 -192 105 -187 c 2,7,-1
 106 -187 l 1,8,-1
 178 -187 l 1,9,-1
 243 -37 l 1,10,-1
 106 -37 l 1,11,12
 105 -37 l 1,13,14
 81 -32 81 -32 81 -11 c 0,15,16
 81 11 81 11 105 16 c 2,17,-1
 106 16 l 1,18,-1
 267 16 l 1,19,-1
 333 166 l 1,20,-1
 106 166 l 1,21,-1
 105 166 l 1,22,23
 81 171 81 171 81 193 c 0,24,25
 81 214 81 214 105 219 c 2,26,-1
 106 219 l 1,27,-1
 357 219 l 1,28,-1
 558 675 l 1,29,30
 488 726 488 726 397 726 c 2,31,-1
 106 726 l 1,32,-1
 105 726 l 1,33,34
 81 731 81 731 81 753 c 0,35,36
 81 774 81 774 105 779 c 2,37,-1
 106 779 l 1,38,-1
 401 779 l 2,39,40
 499 779 499 779 580 725 c 1,41,-1
 630 841 l 2,42,43
 638 858 638 858 655 858 c 0,44,45
 666 858 666 858 674 850 c 128,-1,46
 682 842 682 842 682 831 c 0,47,48
 682 828 682 828 680 821 c 2,49,-1
 622 691 l 1,50,51
 717 602 717 602 717 473 c 0,52,53
 717 345 717 345 623.5 255.5 c 128,-1,54
 530 166 530 166 401 166 c 2,55,-1
 391 166 l 1,56,-1
 325 16 l 1,57,-1
 694 16 l 1,58,59
 717 11 717 11 717 -11 c 0,60,61
 717 -32 717 -32 694 -37 c 0,62,-1
 693 -37 l 1,63,-1
 301 -37 l 1,64,-1
 236 -187 l 1,65,-1
 694 -187 l 1,66,67
 717 -192 717 -192 717 -214 c 0,68,69
 717 -235 717 -235 694 -240 c 0,70,-1
 693 -240 l 1,71,-1
 212 -240 l 1,72,-1
 168 -341 l 2,73,74
 160 -358 160 -358 143 -358 c 0,75,76
 132 -358 132 -358 124 -350 c 128,-1,77
 116 -342 116 -342 116 -331 c 0,78,79
 116 -328 116 -328 118 -321 c 2,0,-1
415 219 m 1,80,81
 513 222 513 222 588.5 296 c 128,-1,82
 664 370 664 370 664 473 c 0,83,84
 664 568 664 568 600 639 c 1,85,-1
 415 219 l 1,80,81
EndSplineSet
Validated: 19457
EndChar

StartChar: shortbar
Encoding: 8739 8739 16
Width: 228
VWidth: 1000
Flags: W
VStem: 88 53<-4.03027 435.633>
LayerCount: 2
Fore
SplineSet
88 -3 m 1,0,-1
 88 413 l 1,1,2
 93 436 93 436 114 436 c 0,3,4
 134 436 134 436 141 414 c 2,5,-1
 141 413 l 1,6,-1
 141 -4 l 1,7,-1
 141 -5 l 2,8,9
 134 -27 134 -27 114 -27 c 0,10,11
 93 -27 93 -27 88 -4 c 0,12,-1
 88 -3 l 1,0,-1
EndSplineSet
Validated: 19457
EndChar

StartChar: nshortbar
Encoding: 8740 8740 17
Width: 228
VWidth: 1000
Flags: W
VStem: 88 53<-26.7979 183 318 435.798>
LayerCount: 2
Fore
SplineSet
88 183 m 1,0,-1
 20 111 l 2,1,2
 12 103 12 103 0 103 c 0,3,4
 -11 103 -11 103 -19 111 c 128,-1,5
 -27 119 -27 119 -27 129 c 0,6,7
 -27 138 -27 138 -20 147 c 0,8,-1
 -19 148 l 1,9,-1
 88 261 l 1,10,-1
 88 413 l 1,11,12
 93 436 93 436 114 436 c 0,13,14
 141 436 141 436 141 414 c 2,15,-1
 141 413 l 1,16,-1
 141 318 l 1,17,-1
 208 389 l 1,18,19
 214 397 214 397 227 397 c 0,20,21
 238 397 238 397 246 389 c 128,-1,22
 254 381 254 381 254 371 c 0,23,24
 254 362 254 362 247 353 c 0,25,-1
 245 351 l 1,26,-1
 140 239 l 1,27,-1
 141 -4 l 1,28,-1
 141 -5 l 2,29,30
 141 -27 141 -27 114 -27 c 0,31,32
 93 -27 93 -27 88 -4 c 0,33,-1
 88 -3 l 1,34,-1
 88 183 l 1,0,-1
EndSplineSet
Validated: 3073
EndChar

StartChar: shortparallel
Encoding: 8741 8741 18
Width: 399
VWidth: 1000
Flags: W
VStem: 52 53<-4.03027 435.633> 294 53<-4.03027 435.633>
LayerCount: 2
Fore
SplineSet
52 -3 m 1,0,-1
 52 413 l 1,1,2
 57 436 57 436 78 436 c 0,3,4
 98 436 98 436 105 414 c 2,5,-1
 105 413 l 1,6,-1
 105 -4 l 1,7,-1
 105 -5 l 2,8,9
 98 -27 98 -27 78 -27 c 0,10,11
 57 -27 57 -27 52 -4 c 0,12,-1
 52 -3 l 1,0,-1
294 -3 m 1,13,-1
 294 413 l 1,14,15
 299 436 299 436 320 436 c 0,16,17
 340 436 340 436 347 414 c 2,18,-1
 347 413 l 1,19,-1
 347 -4 l 1,20,-1
 347 -5 l 2,21,22
 340 -27 340 -27 320 -27 c 0,23,24
 299 -27 299 -27 294 -4 c 0,25,-1
 294 -3 l 1,13,-1
EndSplineSet
Validated: 19457
EndChar

StartChar: nshortparallel
Encoding: 8742 8742 19
Width: 399
VWidth: 1000
Flags: W
VStem: 52 53<-26.6331 130.104 223.854 435.719> 294 53<-26.7191 276.146 369.896 435.719>
LayerCount: 2
Fore
SplineSet
52 130 m 1,0,-1
 14 107 l 2,1,2
 7 103 7 103 0 103 c 0,3,4
 -11 103 -11 103 -19 111 c 128,-1,5
 -27 119 -27 119 -27 129 c 0,6,7
 -27 142 -27 142 -16 151 c 0,8,-1
 -14 152 l 1,9,-1
 52 192 l 1,10,-1
 52 413 l 1,11,12
 57 436 57 436 79 436 c 0,13,14
 100 436 100 436 105 413 c 0,15,-1
 105 412 l 1,16,-1
 105 224 l 1,17,-1
 294 338 l 1,18,-1
 294 413 l 1,19,20
 299 436 299 436 320 436 c 0,21,22
 342 436 342 436 347 413 c 0,23,-1
 347 412 l 1,24,-1
 347 370 l 1,25,-1
 385 393 l 2,26,27
 392 397 392 397 399 397 c 0,28,29
 410 397 410 397 418 389 c 128,-1,30
 426 381 426 381 426 371 c 0,31,32
 426 358 426 358 415 349 c 0,33,-1
 413 348 l 1,34,-1
 347 308 l 1,35,-1
 347 -4 l 1,36,37
 342 -27 342 -27 320 -27 c 0,38,39
 299 -27 299 -27 294 -4 c 0,40,-1
 294 -3 l 1,41,-1
 294 276 l 1,42,-1
 105 162 l 1,43,-1
 105 -4 l 1,44,45
 100 -27 100 -27 79 -27 c 0,46,47
 52 -27 52 -27 52 -5 c 2,48,-1
 52 -4 l 1,49,-1
 52 130 l 1,0,-1
EndSplineSet
Validated: 19457
EndChar

StartChar: emptyset0
Encoding: 8709 8709 20
Width: 513
VWidth: 1000
Flags: W
HStem: -27 35<200.466 311.62> 686 35<199.684 313.985>
VStem: 42 81<144.737 546.018> 109 57<-74.3153 -30.0599> 340 64<724.06 769.439> 354 50<724.06 769.439> 390 81<143.125 545.633>
LayerCount: 2
Fore
SplineSet
172 -26 m 0,0,1
 171 -30 171 -30 166 -49 c 0,2,3
 161 -67 161 -67 155 -75 c 0,4,5
 148 -83 148 -83 135 -83 c 0,6,7
 125 -83 125 -83 117 -75.5 c 128,-1,8
 109 -68 109 -68 109 -56 c 2,9,-1
 109 -55 l 1,10,-1
 131 23 l 1,11,12
 42 105 42 105 42 345 c 0,13,14
 42 515 42 515 87 606 c 0,15,16
 143 721 143 721 257 721 c 0,17,18
 300 721 300 721 336 702 c 1,19,20
 337 705 337 705 337 708 c 0,21,22
 338 713 338 713 340 715 c 0,23,24
 340 716 l 2,25,-1
 340 718 l 2,26,27
 340 721 340 721 341 722 c 0,28,29
 342 724 l 0,30,31
 343 727 343 727 344 732 c 0,32,33
 344 733 344 733 347 743 c 0,34,35
 351 756 351 756 354 761.5 c 128,-1,36
 357 767 357 767 362 772 c 0,37,38
 368 777 368 777 378 777 c 128,-1,39
 388 777 388 777 396 769.5 c 128,-1,40
 404 762 404 762 404 750 c 2,41,-1
 404 749 l 1,42,-1
 382 671 l 1,43,44
 471 585 471 585 471 345 c 0,45,46
 471 177 471 177 431 92 c 0,47,48
 375 -27 375 -27 256 -27 c 0,49,50
 213 -27 213 -27 177 -9 c 1,51,52
 172 -24 172 -24 172 -26 c 0,0,1
150 88 m 1,53,-1
 323 663 l 1,54,55
 291 686 291 686 257 686 c 0,56,57
 220 686 220 686 186.5 660.5 c 128,-1,58
 153 635 153 635 139 577 c 0,59,60
 123 513 123 513 123 357 c 0,61,62
 123 159 123 159 150 88 c 1,53,-1
363 610 m 1,63,-1
 190 33 l 1,64,65
 221 8 221 8 256 8 c 0,66,67
 293 8 293 8 327 36 c 128,-1,68
 361 64 361 64 376 130 c 1,69,70
 390 196 390 196 390 357 c 0,71,72
 390 425 390 425 389 461 c 128,-1,73
 388 497 388 497 381 540.5 c 128,-1,74
 374 584 374 584 363 610 c 1,63,-1
EndSplineSet
Validated: 19457
EndChar

StartChar: accentrvec
Encoding: 8594 8594 21
Width: 500
VWidth: 635
Flags: W
HStem: 225 50<24.1172 371>
VStem: 372 50<288.502 345.234>
LayerCount: 2
Fore
SplineSet
64 225 m 2,0,1
 53 225 53 225 46 225.5 c 128,-1,2
 39 226 39 226 31.5 232.5 c 128,-1,3
 24 239 24 239 24 250 c 128,-1,4
 24 261 24 261 31.5 267.5 c 128,-1,5
 39 274 39 274 46 274.5 c 128,-1,6
 53 275 53 275 64 275 c 2,7,-1
 392 275 l 1,8,9
 385 287 385 287 378.5 304 c 128,-1,10
 372 321 372 321 372 328 c 0,11,12
 372 337 372 337 378 345.5 c 128,-1,13
 384 354 384 354 397 354 c 0,14,15
 416 354 416 354 422 328 c 1,16,17
 434 292 434 292 461 274 c 0,18,19
 477 263 477 263 477 250 c 0,20,21
 477 236 477 236 457 225 c 1,22,23
 414 204 414 204 380 161 c 0,24,25
 368 146 368 146 357 146 c 0,26,27
 348 146 348 146 340 153.5 c 128,-1,28
 332 161 332 161 332 171 c 0,29,30
 332 187 332 187 371 225 c 1,31,-1
 64 225 l 2,0,1
EndSplineSet
EndChar

StartChar: accentlvec
Encoding: 8592 8592 22
Width: 500
VWidth: 635
Flags: W
HStem: 225 50<130 469.781>
VStem: 79 50<154.766 211.809>
LayerCount: 2
Fore
SplineSet
437 275 m 2,0,1
 449 275 449 275 456 274 c 128,-1,2
 463 273 463 273 470 267.5 c 128,-1,3
 477 262 477 262 477 250 c 0,4,5
 477 233 477 233 466.5 229 c 128,-1,6
 456 225 456 225 437 225 c 2,7,-1
 109 225 l 1,8,9
 129 192 129 192 129 173 c 2,10,-1
 129 172 l 2,11,12
 129 163 129 163 122.5 154.5 c 128,-1,13
 116 146 116 146 104 146 c 0,14,15
 88 146 88 146 79 172 c 1,16,17
 69 207 69 207 40 226 c 0,18,19
 24 237 24 237 24 250 c 0,20,21
 24 266 24 266 44 275 c 0,22,23
 88 297 88 297 121 339 c 0,24,25
 133 354 133 354 144 354 c 0,26,27
 154 354 154 354 161.5 346 c 128,-1,28
 169 338 169 338 169 329 c 0,29,30
 169 309 169 309 130 275 c 1,31,-1
 437 275 l 2,0,1
EndSplineSet
EndChar

StartChar: accentlrvec
Encoding: 8596 8596 23
Width: 500
VWidth: 635
Flags: W
HStem: 225 50<130 371>
VStem: 79 50<154.766 211.809> 372 50<288.191 345.234>
LayerCount: 2
Fore
SplineSet
392 275 m 1,0,1
 372 308 372 308 372 327 c 2,2,-1
 372 328 l 2,3,4
 372 337 372 337 378.5 345.5 c 128,-1,5
 385 354 385 354 397 354 c 0,6,7
 413 354 413 354 422 328 c 1,8,9
 432 293 432 293 461 274 c 0,10,11
 477 263 477 263 477 250 c 0,12,13
 477 234 477 234 457 225 c 0,14,15
 413 203 413 203 380 161 c 0,16,17
 368 146 368 146 357 146 c 0,18,19
 347 146 347 146 339.5 154 c 128,-1,20
 332 162 332 162 332 171 c 0,21,22
 332 191 332 191 371 225 c 1,23,-1
 109 225 l 1,24,25
 129 192 129 192 129 173 c 2,26,-1
 129 172 l 2,27,28
 129 163 129 163 122.5 154.5 c 128,-1,29
 116 146 116 146 104 146 c 0,30,31
 88 146 88 146 79 172 c 1,32,33
 69 207 69 207 40 226 c 0,34,35
 24 237 24 237 24 250 c 0,36,37
 24 266 24 266 44 275 c 0,38,39
 88 297 88 297 121 339 c 0,40,41
 133 354 133 354 144 354 c 0,42,43
 154 354 154 354 161.5 346 c 128,-1,44
 169 338 169 338 169 329 c 0,45,46
 169 309 169 309 130 275 c 1,47,-1
 392 275 l 1,0,1
EndSplineSet
EndChar

StartChar: accentdotlow
Encoding: 46 46 24
Width: 500
VWidth: 1006
Flags: W
HStem: -200 140<199.708 300.292>
VStem: 180 140<-180.292 -79.708>
LayerCount: 2
Fore
SplineSet
250 -200 m 128,-1,1
 222 -200 222 -200 201 -179 c 128,-1,2
 180 -158 180 -158 180 -130 c 128,-1,3
 180 -102 180 -102 201 -81 c 128,-1,4
 222 -60 222 -60 250 -60 c 128,-1,5
 278 -60 278 -60 299 -81 c 128,-1,6
 320 -102 320 -102 320 -130 c 128,-1,7
 320 -158 320 -158 299 -179 c 128,-1,0
 278 -200 278 -200 250 -200 c 128,-1,1
EndSplineSet
EndChar

StartChar: accentdddot
Encoding: 8943 8943 25
Width: 500
VWidth: 707
Flags: W
HStem: 191 118<19.6099 107.574 204.426 292.39 397.61 485.574>
VStem: 2 119<209.561 290.439> 191 119<209.561 290.439> 380 119<209.561 290.459>
CounterMasks: 1 70
LayerCount: 2
Fore
SplineSet
62 191 m 0,0,1
 36.1484 191 36.1484 191 19.0742 208.997 c 128,-1,2
 2 226.994 2 226.994 2 250 c 128,-1,3
 2 273.006 2 273.006 19.0742 291.003 c 128,-1,4
 36.1484 309 36.1484 309 62 309 c 0,5,6
 85.9287 309 85.9287 309 103.464 291.464 c 128,-1,7
 121 273.929 121 273.929 121 250 c 128,-1,8
 121 226.071 121 226.071 103.464 208.536 c 128,-1,9
 85.9287 191 85.9287 191 62 191 c 0,0,1
250 191 m 0,10,11
 226.071 191 226.071 191 208.536 208.536 c 128,-1,12
 191 226.071 191 226.071 191 250 c 128,-1,13
 191 273.929 191 273.929 208.536 291.464 c 128,-1,14
 226.071 309 226.071 309 250 309 c 0,15,16
 275.852 309 275.852 309 292.926 291.003 c 128,-1,17
 310 273.006 310 273.006 310 250 c 128,-1,18
 310 226.994 310 226.994 292.926 208.997 c 128,-1,19
 275.852 191 275.852 191 250 191 c 0,10,11
440 191 m 0,20,21
 414.148 191 414.148 191 397.074 208.997 c 128,-1,22
 380 226.994 380 226.994 380 250.02 c 128,-1,23
 380 273.045 380 273.045 396.595 291.022 c 128,-1,24
 413.189 309 413.189 309 440 309 c 0,25,26
 463.929 309 463.929 309 481.464 291.464 c 128,-1,27
 499 273.929 499 273.929 499 250 c 128,-1,28
 499 226.071 499 226.071 481.464 208.536 c 128,-1,29
 463.929 191 463.929 191 440 191 c 0,20,21
EndSplineSet
EndChar

StartChar: accentddddot
Encoding: 9481 9481 26
Width: 500
VWidth: 707
Flags: W
HStem: 191 118<-79.5743 8.39007 113.61 201.574 298.426 386.39 491.61 579.574>
VStem: -93 119<209.561 290.439> 96 119<209.561 290.439> 285 119<209.561 290.439> 474 119<209.561 290.459>
LayerCount: 2
Fore
SplineSet
-34 191 m 0,0,1
 -57.9287 191 -57.9287 191 -75.4644 208.536 c 128,-1,2
 -93 226.071 -93 226.071 -93 250 c 128,-1,3
 -93 273.929 -93 273.929 -75.4644 291.464 c 128,-1,4
 -57.9287 309 -57.9287 309 -34 309 c 0,5,6
 -8.14844 309 -8.14844 309 8.92578 291.003 c 128,-1,7
 26 273.006 26 273.006 26 250 c 128,-1,8
 26 226.994 26 226.994 8.92578 208.997 c 128,-1,9
 -8.14844 191 -8.14844 191 -34 191 c 0,0,1
156 191 m 0,10,11
 130.148 191 130.148 191 113.074 208.997 c 128,-1,12
 96 226.994 96 226.994 96 250 c 128,-1,13
 96 273.006 96 273.006 113.074 291.003 c 128,-1,14
 130.148 309 130.148 309 156 309 c 0,15,16
 179.929 309 179.929 309 197.464 291.464 c 128,-1,17
 215 273.929 215 273.929 215 250 c 128,-1,18
 215 226.071 215 226.071 197.464 208.536 c 128,-1,19
 179.929 191 179.929 191 156 191 c 0,10,11
344 191 m 0,20,21
 320.071 191 320.071 191 302.536 208.536 c 128,-1,22
 285 226.071 285 226.071 285 250 c 128,-1,23
 285 273.929 285 273.929 302.536 291.464 c 128,-1,24
 320.071 309 320.071 309 344 309 c 0,25,26
 369.852 309 369.852 309 386.926 291.003 c 128,-1,27
 404 273.006 404 273.006 404 250 c 128,-1,28
 404 226.994 404 226.994 386.926 208.997 c 128,-1,29
 369.852 191 369.852 191 344 191 c 0,20,21
534 191 m 0,30,31
 508.148 191 508.148 191 491.074 208.997 c 128,-1,32
 474 226.994 474 226.994 474 250.02 c 128,-1,33
 474 273.045 474 273.045 490.595 291.022 c 128,-1,34
 507.189 309 507.189 309 534 309 c 0,35,36
 557.929 309 557.929 309 575.464 291.464 c 128,-1,37
 593 273.929 593 273.929 593 250 c 128,-1,38
 593 226.071 593 226.071 575.464 208.536 c 128,-1,39
 557.929 191 557.929 191 534 191 c 0,30,31
EndSplineSet
EndChar

StartChar: accenttie
Encoding: 8256 8256 27
Width: 500
VWidth: 1000
Flags: W
HStem: 629 41<409.449 622.047>
VStem: 659 37<536.187 596.391>
LayerCount: 2
Fore
SplineSet
661 561 m 1,0,1
 661 587 661 587 623.5 608 c 128,-1,2
 586 629 586 629 520 629 c 0,3,4
 463 629 463 629 407.5 608 c 128,-1,5
 352 587 352 587 334 546 c 0,6,7
 332 542 332 542 329 538 c 0,8,9
 326 535 326 535 322 534 c 2,10,-1
 320 533.5 l 2,11,12
 318 533 318 533 317 533 c 0,13,14
 311 533 311 533 308 535 c 0,15,16
 302 539 302 539 301 543 c 0,17,18
 300 545 300 545 300 549 c 0,19,20
 300 585 300 585 362.5 627.5 c 128,-1,21
 425 670 425 670 523 670 c 0,22,23
 602 670 602 670 649 639 c 128,-1,24
 696 608 696 608 696 564 c 0,25,26
 696 533 696 533 677 533 c 0,27,28
 672 533 672 533 666 536 c 1,29,30
 660 542 660 542 659 545 c 1,31,-1
 659 548 l 1,32,-1
 659 549 l 1,33,-1
 661 561 l 1,0,1
EndSplineSet
EndChar

StartChar: int
Encoding: 8747 8747 28
Width: 470
VWidth: 2418
Flags: W
HStem: -218 18<52.3551 92.8755> 814 18<386.326 419.832>
VStem: 19 52<-190.936 -146.251> 399 54<752.383 804.871>
LayerCount: 2
Fore
SplineSet
75 -200 m 4,0,1
 83 -200 83 -200 90.5 -193.5 c 132,-1,2
 98 -187 98 -187 104.5 -176 c 132,-1,3
 111 -165 111 -165 117 -151 c 132,-1,4
 123 -137 123 -137 128 -120.5 c 132,-1,5
 133 -104 133 -104 137 -89 c 132,-1,6
 141 -74 141 -74 144.5 -58 c 132,-1,7
 148 -42 148 -42 150.5 -31 c 132,-1,8
 153 -20 153 -20 154.5 -10.5 c 132,-1,9
 156 -1 156 -1 157 0 c 4,10,11
 168 50 168 50 184.5 146.5 c 132,-1,12
 201 243 201 243 215 309 c 4,13,14
 251 478 251 478 285 618 c 4,15,16
 288.5 634 l 4,17,18
 292 650 292 650 294.5 659.5 c 132,-1,19
 297 669 297 669 302.5 689 c 132,-1,20
 308 709 308 709 313 722.5 c 132,-1,21
 318 736 318 736 325 754 c 132,-1,22
 332 772 332 772 340 784.5 c 132,-1,23
 348 797 348 797 356.5 808.5 c 132,-1,24
 365 820 365 820 375 826 c 132,-1,25
 385 832 385 832 396 832 c 4,26,27
 419 832 419 832 436 816.5 c 132,-1,28
 453 801 453 801 453 779 c 4,29,30
 453 768 453 768 445 760 c 132,-1,31
 437 752 437 752 426 752 c 132,-1,32
 415 752 415 752 407 760 c 132,-1,33
 399 768 399 768 399 779 c 4,34,35
 399 801 399 801 420 805 c 5,36,37
 410 814 410 814 397 814 c 4,38,39
 386 814 386 814 372 773 c 132,-1,40
 358 732 358 732 343.5 665 c 132,-1,41
 329 598 329 598 317 534 c 132,-1,42
 305 470 305 470 292 399.5 c 132,-1,43
 279 329 279 329 274 305 c 4,44,45
 248 181 248 181 203 -4 c 4,46,47
 202 -8 202 -8 200 -16 c 4,48,49
 194 -39 194 -39 190.5 -53.5 c 132,-1,50
 187 -68 187 -68 178.5 -95.5 c 132,-1,51
 170 -123 170 -123 161 -141 c 132,-1,52
 152 -159 152 -159 139 -178.5 c 132,-1,53
 126 -198 126 -198 110 -208 c 132,-1,54
 94 -218 94 -218 75 -218 c 4,55,56
 52 -218 52 -218 35.5 -202.5 c 132,-1,57
 19 -187 19 -187 19 -165 c 4,58,59
 19 -154 19 -154 26.5 -146 c 132,-1,60
 34 -138 34 -138 45 -138 c 132,-1,61
 56 -138 56 -138 63.5 -146 c 132,-1,62
 71 -154 71 -154 71 -165 c 4,63,64
 71 -174 71 -174 65.5 -181.5 c 132,-1,65
 60 -189 60 -189 52 -191 c 5,66,67
 62 -200 62 -200 75 -200 c 4,0,1
EndSplineSet
EndChar

StartChar: oint
Encoding: 8750 8750 29
Width: 469
VWidth: 2418
Flags: W
HStem: -217.5 18<50.9434 91.9839> 173.502 26.037<249.957 295.438> 414.461 26.037<191.562 237.043> 813.5 18<384.085 418.069>
VStem: 17.5 53<-190.818 -146.314> 110.5 25<257.492 356.531> 351.5 25<257.469 356.51> 398.5 53<760.314 804.78>
LayerCount: 2
Fore
SplineSet
74 -199.5 m 0,0,1
 81.6506 -199.5 81.6506 -199.5 89.207 -193.211 c 128,-1,2
 96.7633 -186.922 96.7633 -186.922 103.224 -175.719 c 128,-1,3
 109.685 -164.515 109.685 -164.515 115.666 -150.829 c 128,-1,4
 121.647 -137.143 121.647 -137.143 126.758 -120.544 c 128,-1,5
 131.868 -103.945 131.868 -103.945 136.073 -88.7907 c 128,-1,6
 140.279 -73.636 140.279 -73.636 143.837 -57.5699 c 128,-1,7
 147.396 -41.5039 147.396 -41.5039 149.624 -30.8088 c 128,-1,8
 151.853 -20.1138 151.853 -20.1138 153.659 -10.5089 c 128,-1,9
 155.465 -0.903989 155.465 -0.903989 155.556 -0.476562 c 0,10,11
 159.678 18.8942 159.678 18.8942 190.18 184.488 c 1,12,13
 154.301 200.117 154.301 200.117 132.4 233.885 c 128,-1,14
 110.5 267.652 110.5 267.652 110.5 307 c 0,15,16
 110.5 361.503 110.5 361.503 149.05 400.594 c 128,-1,17
 187.601 439.686 187.601 439.686 241.997 440.498 c 1,18,19
 265.136 544.582 265.136 544.582 283.576 617.611 c 0,20,21
 284.085 619.628 284.085 619.628 287.571 634.292 c 128,-1,22
 291.057 648.955 291.057 648.955 293.86 659.593 c 128,-1,23
 296.662 670.23 296.662 670.23 301.851 689.019 c 128,-1,24
 307.039 707.808 307.039 707.808 312.258 722.094 c 128,-1,25
 317.476 736.38 317.476 736.38 324.404 754.056 c 128,-1,26
 331.331 771.732 331.331 771.732 339.002 784.427 c 128,-1,27
 346.674 797.122 346.674 797.122 355.376 808.445 c 128,-1,28
 364.078 819.769 364.078 819.769 374.239 825.634 c 128,-1,29
 384.399 831.5 384.399 831.5 395 831.5 c 0,30,31
 417.552 831.5 417.552 831.5 434.526 816.433 c 128,-1,32
 451.5 801.367 451.5 801.367 451.5 779 c 0,33,34
 451.5 767.652 451.5 767.652 443.704 760.076 c 128,-1,35
 435.909 752.5 435.909 752.5 425 752.5 c 0,36,37
 413.566 752.5 413.566 752.5 406.033 760.033 c 128,-1,38
 398.5 767.566 398.5 767.566 398.5 779 c 0,39,40
 398.5 800.626 398.5 800.626 418.462 804.918 c 1,41,42
 408.187 813.5 408.187 813.5 395 813.5 c 0,43,44
 384.948 813.5 384.948 813.5 372.455 779.653 c 128,-1,45
 359.962 745.806 359.962 745.806 345.715 680.138 c 128,-1,46
 331.469 614.471 331.469 614.471 323.136 571.565 c 128,-1,47
 314.804 528.658 314.804 528.658 302.148 458.819 c 0,48,49
 298.462 438.477 298.462 438.477 296.824 429.527 c 1,50,51
 332.7 413.899 332.7 413.899 354.6 380.124 c 128,-1,52
 376.5 346.349 376.5 346.349 376.5 307 c 0,53,54
 376.5 252.497 376.5 252.497 337.95 213.406 c 128,-1,55
 299.399 174.314 299.399 174.314 245.003 173.502 c 1,56,57
 230.997 110.592 230.997 110.592 202.426 -3.60645 c 0,58,59
 202.084 -4.97438 202.084 -4.97438 197.287 -24.9409 c 128,-1,60
 192.491 -44.9074 192.491 -44.9074 190.125 -53.2998 c 128,-1,61
 187.76 -61.6923 187.76 -61.6923 181.687 -83.0273 c 128,-1,62
 175.615 -104.362 175.615 -104.362 170.509 -115.955 c 128,-1,63
 165.403 -127.548 165.403 -127.548 157.484 -145.928 c 128,-1,64
 149.566 -164.308 149.566 -164.308 141.149 -174.778 c 128,-1,65
 132.733 -185.248 132.733 -185.248 122.398 -196.35 c 128,-1,66
 112.063 -207.453 112.063 -207.453 99.7659 -212.476 c 128,-1,67
 87.4685 -217.5 87.4685 -217.5 74 -217.5 c 0,68,69
 51.4479 -217.5 51.4479 -217.5 34.474 -202.433 c 128,-1,70
 17.5 -187.367 17.5 -187.367 17.5 -165 c 0,71,72
 17.5 -153.566 17.5 -153.566 25.0331 -146.033 c 128,-1,73
 32.5662 -138.5 32.5662 -138.5 44 -138.5 c 0,74,75
 54.9086 -138.5 54.9086 -138.5 62.7043 -146.076 c 128,-1,76
 70.5 -153.653 70.5 -153.653 70.5 -165 c 0,77,78
 70.5 -174.3 70.5 -174.3 64.8896 -181.596 c 128,-1,79
 59.2791 -188.893 59.2791 -188.893 50.5537 -190.881 c 1,80,81
 61.1333 -199.5 61.1333 -199.5 74 -199.5 c 0,0,1
249.957 199.539 m 1,82,83
 291.763 200.73 291.763 200.73 321.631 232.779 c 128,-1,84
 351.5 264.829 351.5 264.829 351.5 307 c 0,85,86
 351.5 337.088 351.5 337.088 335.283 363.416 c 128,-1,87
 319.065 389.743 319.065 389.743 291.861 403.333 c 1,88,89
 271.687 294.956 271.687 294.956 249.957 199.539 c 1,82,83
195.139 210.667 m 1,90,91
 215.313 319.044 215.313 319.044 237.043 414.461 c 1,92,93
 195.237 413.27 195.237 413.27 165.368 381.22 c 128,-1,94
 135.5 349.171 135.5 349.171 135.5 307 c 0,95,96
 135.5 276.912 135.5 276.912 151.717 250.584 c 128,-1,97
 167.935 224.257 167.935 224.257 195.139 210.667 c 1,90,91
EndSplineSet
EndChar

StartChar: iint
Encoding: 8748 8748 30
Width: 640
VWidth: 2418
Flags: W
HStem: -218 18<51.3551 91.8755 221.355 261.875> 814 18<385.326 418.832 555.326 588.832>
VStem: 18 52<-190.936 -146.251> 188 52<-190.936 -146.251> 398 54<752.383 804.871> 568 54<752.383 804.871>
LayerCount: 2
Fore
SplineSet
244 -200 m 0,0,1
 252 -200 252 -200 259.5 -193.5 c 128,-1,2
 267 -187 267 -187 273.5 -176 c 128,-1,3
 280 -165 280 -165 286 -151 c 128,-1,4
 292 -137 292 -137 297 -120.5 c 128,-1,5
 302 -104 302 -104 306 -89 c 128,-1,6
 310 -74 310 -74 313.5 -58 c 128,-1,7
 317 -42 317 -42 319.5 -31 c 128,-1,8
 322 -20 322 -20 323.5 -10.5 c 128,-1,9
 325 -1 325 -1 326 0 c 0,10,11
 337 50 337 50 353.5 146.5 c 128,-1,12
 370 243 370 243 384 309 c 0,13,14
 420 478 420 478 454 618 c 0,15,16
 458 634 l 0,17,18
 462 650 462 650 464 659.5 c 128,-1,19
 466 669 466 669 471.5 689 c 128,-1,20
 477 709 477 709 482 722.5 c 128,-1,21
 487 736 487 736 494 754 c 128,-1,22
 501 772 501 772 509 784.5 c 128,-1,23
 517 797 517 797 525.5 808.5 c 128,-1,24
 534 820 534 820 544 826 c 128,-1,25
 554 832 554 832 565 832 c 0,26,27
 588 832 588 832 605 816.5 c 128,-1,28
 622 801 622 801 622 779 c 0,29,30
 622 768 622 768 614 760 c 128,-1,31
 606 752 606 752 595 752 c 128,-1,32
 584 752 584 752 576 760 c 128,-1,33
 568 768 568 768 568 779 c 0,34,35
 568 801 568 801 589 805 c 1,36,37
 579 814 579 814 566 814 c 0,38,39
 555 814 555 814 541 773 c 128,-1,40
 527 732 527 732 512.5 665 c 128,-1,41
 498 598 498 598 486 534 c 128,-1,42
 474 470 474 470 461 399.5 c 128,-1,43
 448 329 448 329 443 305 c 0,44,45
 417 181 417 181 372 -4 c 0,46,47
 371 -8 371 -8 369 -16 c 0,48,49
 363 -39 363 -39 359.5 -53.5 c 128,-1,50
 356 -68 356 -68 347.5 -95.5 c 128,-1,51
 339 -123 339 -123 330 -141 c 128,-1,52
 321 -159 321 -159 308 -178.5 c 128,-1,53
 295 -198 295 -198 279 -208 c 128,-1,54
 263 -218 263 -218 244 -218 c 0,55,56
 221 -218 221 -218 204.5 -202.5 c 128,-1,57
 188 -187 188 -187 188 -165 c 0,58,59
 188 -154 188 -154 195.5 -146 c 128,-1,60
 203 -138 203 -138 214 -138 c 128,-1,61
 225 -138 225 -138 232.5 -146 c 128,-1,62
 240 -154 240 -154 240 -165 c 0,63,64
 240 -174 240 -174 234.5 -181.5 c 128,-1,65
 229 -189 229 -189 221 -191 c 1,66,67
 231 -200 231 -200 244 -200 c 0,0,1
74 -200 m 0,68,69
 82 -200 82 -200 89.5 -193.5 c 128,-1,70
 97 -187 97 -187 103.5 -176 c 128,-1,71
 110 -165 110 -165 116 -151 c 128,-1,72
 122 -137 122 -137 127 -120.5 c 128,-1,73
 132 -104 132 -104 136 -89 c 128,-1,74
 140 -74 140 -74 143.5 -58 c 128,-1,75
 147 -42 147 -42 149.5 -31 c 128,-1,76
 152 -20 152 -20 153.5 -10.5 c 128,-1,77
 155 -1 155 -1 156 -0 c 0,78,79
 167 50 167 50 183.5 146.5 c 128,-1,80
 200 243 200 243 214 309 c 0,81,82
 250 478 250 478 284 618 c 0,83,-1
 288 634 l 0,84,85
 292 650 292 650 294 659.5 c 128,-1,86
 296 669 296 669 301.5 689 c 128,-1,87
 307 709 307 709 312 722.5 c 128,-1,88
 317 736 317 736 324 754 c 128,-1,89
 331 772 331 772 339 784.5 c 128,-1,90
 347 797 347 797 355.5 808.5 c 128,-1,91
 364 820 364 820 374 826 c 128,-1,92
 384 832 384 832 395 832 c 0,93,94
 418 832 418 832 435 816.5 c 128,-1,95
 452 801 452 801 452 779 c 0,96,97
 452 768 452 768 444 760 c 128,-1,98
 436 752 436 752 425 752 c 128,-1,99
 414 752 414 752 406 760 c 128,-1,100
 398 768 398 768 398 779 c 0,101,102
 398 801 398 801 419 805 c 1,103,104
 409 814 409 814 396 814 c 0,105,106
 385 814 385 814 371 773 c 128,-1,107
 357 732 357 732 342.5 665 c 128,-1,108
 328 598 328 598 316 534 c 128,-1,109
 304 470 304 470 291 399.5 c 128,-1,110
 278 329 278 329 273 305 c 0,111,112
 247 181 247 181 202 -4 c 0,113,114
 201 -8 201 -8 199 -16 c 0,115,116
 193 -39 193 -39 189.5 -53.5 c 128,-1,117
 186 -68 186 -68 177.5 -95.5 c 128,-1,118
 169 -123 169 -123 160 -141 c 128,-1,119
 151 -159 151 -159 138 -178.5 c 128,-1,120
 125 -198 125 -198 109 -208 c 128,-1,121
 93 -218 93 -218 74 -218 c 0,122,123
 51 -218 51 -218 34.5 -202.5 c 128,-1,124
 18 -187 18 -187 18 -165 c 0,125,126
 18 -154 18 -154 25.5 -146 c 128,-1,127
 33 -138 33 -138 44 -138 c 128,-1,128
 55 -138 55 -138 62.5 -146 c 128,-1,129
 70 -154 70 -154 70 -165 c 0,130,131
 70 -174 70 -174 64.5 -181.5 c 128,-1,132
 59 -189 59 -189 51 -191 c 1,133,134
 61 -200 61 -200 74 -200 c 0,68,69
EndSplineSet
EndChar

StartChar: iiint
Encoding: 8749 8749 31
Width: 811
VWidth: 2418
Flags: W
HStem: -218 18<51.3551 91.8755 221.355 261.875 392.355 432.875> 814 18<385.326 418.832 555.326 588.832 726.326 759.832>
VStem: 18 52<-190.936 -146.251> 188 52<-190.936 -146.251> 359 52<-190.936 -146.251> 398 54<752.383 804.871> 568 54<752.383 804.871> 739 54<752.383 804.871>
LayerCount: 2
Fore
SplineSet
415 -200 m 0,0,1
 423 -200 423 -200 430.5 -193.5 c 128,-1,2
 438 -187 438 -187 444.5 -176 c 128,-1,3
 451 -165 451 -165 457 -151 c 128,-1,4
 463 -137 463 -137 468 -120.5 c 128,-1,5
 473 -104 473 -104 477 -89 c 128,-1,6
 481 -74 481 -74 484.5 -58 c 128,-1,7
 488 -42 488 -42 490.5 -31 c 128,-1,8
 493 -20 493 -20 494.5 -10.5 c 128,-1,9
 496 -1 496 -1 497 0 c 0,10,11
 508 50 508 50 524.5 146.5 c 128,-1,12
 541 243 541 243 555 309 c 0,13,14
 591 478 591 478 625 618 c 0,15,16
 628 634 l 0,17,18
 632 650 632 650 634.5 659.5 c 128,-1,19
 637 669 637 669 642.5 689 c 128,-1,20
 648 709 648 709 653 722.5 c 128,-1,21
 658 736 658 736 665 754 c 128,-1,22
 672 772 672 772 680 784.5 c 128,-1,23
 688 797 688 797 696.5 808.5 c 128,-1,24
 705 820 705 820 715 826 c 128,-1,25
 725 832 725 832 736 832 c 0,26,27
 759 832 759 832 776 816.5 c 128,-1,28
 793 801 793 801 793 779 c 0,29,30
 793 768 793 768 785 760 c 128,-1,31
 777 752 777 752 766 752 c 128,-1,32
 755 752 755 752 747 760 c 128,-1,33
 739 768 739 768 739 779 c 0,34,35
 739 801 739 801 760 805 c 1,36,37
 750 814 750 814 737 814 c 0,38,39
 726 814 726 814 712 773 c 128,-1,40
 698 732 698 732 683.5 665 c 128,-1,41
 669 598 669 598 657 534 c 128,-1,42
 645 470 645 470 632 399.5 c 128,-1,43
 619 329 619 329 614 305 c 0,44,45
 588 181 588 181 543 -4 c 0,46,47
 542 -8 542 -8 540 -16 c 0,48,49
 534 -39 534 -39 530.5 -53.5 c 128,-1,50
 527 -68 527 -68 518.5 -95.5 c 128,-1,51
 510 -123 510 -123 501 -141 c 128,-1,52
 492 -159 492 -159 479 -178.5 c 128,-1,53
 466 -198 466 -198 450 -208 c 128,-1,54
 434 -218 434 -218 415 -218 c 0,55,56
 392 -218 392 -218 375.5 -202.5 c 128,-1,57
 359 -187 359 -187 359 -165 c 0,58,59
 359 -154 359 -154 366.5 -146 c 128,-1,60
 374 -138 374 -138 385 -138 c 128,-1,61
 396 -138 396 -138 403.5 -146 c 128,-1,62
 411 -154 411 -154 411 -165 c 0,63,64
 411 -174 411 -174 405.5 -181.5 c 128,-1,65
 400 -189 400 -189 392 -191 c 1,66,67
 402 -200 402 -200 415 -200 c 0,0,1
244 -200 m 0,68,69
 252 -200 252 -200 259.5 -193.5 c 128,-1,70
 267 -187 267 -187 273.5 -176 c 128,-1,71
 280 -165 280 -165 286 -151 c 128,-1,72
 292 -137 292 -137 297 -120.5 c 128,-1,73
 302 -104 302 -104 306 -89 c 128,-1,74
 310 -74 310 -74 313.5 -58 c 128,-1,75
 317 -42 317 -42 319.5 -31 c 128,-1,76
 322 -20 322 -20 323.5 -10.5 c 128,-1,77
 325 -1 325 -1 326 0 c 0,78,79
 337 50 337 50 353.5 146.5 c 128,-1,80
 370 243 370 243 384 309 c 0,81,82
 420 478 420 478 454 618 c 0,83,-1
 458 634 l 0,84,85
 462 650 462 650 464 659.5 c 128,-1,86
 466 669 466 669 471.5 689 c 128,-1,87
 477 709 477 709 482 722.5 c 128,-1,88
 487 736 487 736 494 754 c 128,-1,89
 501 772 501 772 509 784.5 c 128,-1,90
 517 797 517 797 525.5 808.5 c 128,-1,91
 534 820 534 820 544 826 c 128,-1,92
 554 832 554 832 565 832 c 0,93,94
 588 832 588 832 605 816.5 c 128,-1,95
 622 801 622 801 622 779 c 0,96,97
 622 768 622 768 614 760 c 128,-1,98
 606 752 606 752 595 752 c 128,-1,99
 584 752 584 752 576 760 c 128,-1,100
 568 768 568 768 568 779 c 0,101,102
 568 801 568 801 589 805 c 1,103,104
 579 814 579 814 566 814 c 0,105,106
 555 814 555 814 541 773 c 128,-1,107
 527 732 527 732 512.5 665 c 128,-1,108
 498 598 498 598 486 534 c 128,-1,109
 474 470 474 470 461 399.5 c 128,-1,110
 448 329 448 329 443 305 c 0,111,112
 417 181 417 181 372 -4 c 0,113,114
 371 -8 371 -8 369 -16 c 0,115,116
 363 -39 363 -39 359.5 -53.5 c 128,-1,117
 356 -68 356 -68 347.5 -95.5 c 128,-1,118
 339 -123 339 -123 330 -141 c 128,-1,119
 321 -159 321 -159 308 -178.5 c 128,-1,120
 295 -198 295 -198 279 -208 c 128,-1,121
 263 -218 263 -218 244 -218 c 0,122,123
 221 -218 221 -218 204.5 -202.5 c 128,-1,124
 188 -187 188 -187 188 -165 c 0,125,126
 188 -154 188 -154 195.5 -146 c 128,-1,127
 203 -138 203 -138 214 -138 c 128,-1,128
 225 -138 225 -138 232.5 -146 c 128,-1,129
 240 -154 240 -154 240 -165 c 0,130,131
 240 -174 240 -174 234.5 -181.5 c 128,-1,132
 229 -189 229 -189 221 -191 c 1,133,134
 231 -200 231 -200 244 -200 c 0,68,69
74 -200 m 0,135,136
 82 -200 82 -200 89.5 -193.5 c 128,-1,137
 97 -187 97 -187 103.5 -176 c 128,-1,138
 110 -165 110 -165 116 -151 c 128,-1,139
 122 -137 122 -137 127 -120.5 c 128,-1,140
 132 -104 132 -104 136 -89 c 128,-1,141
 140 -74 140 -74 143.5 -58 c 128,-1,142
 147 -42 147 -42 149.5 -31 c 128,-1,143
 152 -20 152 -20 153.5 -10.5 c 128,-1,144
 155 -1 155 -1 156 -0 c 0,145,146
 167 50 167 50 183.5 146.5 c 128,-1,147
 200 243 200 243 214 309 c 0,148,149
 250 478 250 478 284 618 c 0,150,-1
 288 634 l 0,151,152
 292 650 292 650 294 659.5 c 128,-1,153
 296 669 296 669 301.5 689 c 128,-1,154
 307 709 307 709 312 722.5 c 128,-1,155
 317 736 317 736 324 754 c 128,-1,156
 331 772 331 772 339 784.5 c 128,-1,157
 347 797 347 797 355.5 808.5 c 128,-1,158
 364 820 364 820 374 826 c 128,-1,159
 384 832 384 832 395 832 c 0,160,161
 418 832 418 832 435 816.5 c 128,-1,162
 452 801 452 801 452 779 c 0,163,164
 452 768 452 768 444 760 c 128,-1,165
 436 752 436 752 425 752 c 128,-1,166
 414 752 414 752 406 760 c 128,-1,167
 398 768 398 768 398 779 c 0,168,169
 398 801 398 801 419 805 c 1,170,171
 409 814 409 814 396 814 c 0,172,173
 385 814 385 814 371 773 c 128,-1,174
 357 732 357 732 342.5 665 c 128,-1,175
 328 598 328 598 316 534 c 128,-1,176
 304 470 304 470 291 399.5 c 128,-1,177
 278 329 278 329 273 305 c 0,178,179
 247 181 247 181 202 -4 c 0,180,181
 201 -8 201 -8 199 -16 c 0,182,183
 193 -39 193 -39 189.5 -53.5 c 128,-1,184
 186 -68 186 -68 177.5 -95.5 c 128,-1,185
 169 -123 169 -123 160 -141 c 128,-1,186
 151 -159 151 -159 138 -178.5 c 128,-1,187
 125 -198 125 -198 109 -208 c 128,-1,188
 93 -218 93 -218 74 -218 c 0,189,190
 51 -218 51 -218 34.5 -202.5 c 128,-1,191
 18 -187 18 -187 18 -165 c 0,192,193
 18 -154 18 -154 25.5 -146 c 128,-1,194
 33 -138 33 -138 44 -138 c 128,-1,195
 55 -138 55 -138 62.5 -146 c 128,-1,196
 70 -154 70 -154 70 -165 c 0,197,198
 70 -174 70 -174 64.5 -181.5 c 128,-1,199
 59 -189 59 -189 51 -191 c 1,200,201
 61 -200 61 -200 74 -200 c 0,135,136
EndSplineSet
EndChar

StartChar: iiiint
Encoding: 10764 10764 32
Width: 980
VWidth: 2418
Flags: W
HStem: -218 18<51.3551 91.8755 221.355 261.875 391.355 431.875 561.355 601.875> 814 18<385.326 418.832 555.326 588.832 725.326 758.832 895.326 928.832>
VStem: 18 52<-190.936 -146.251> 188 52<-190.936 -146.251> 358 52<-190.936 -146.251> 398 54<752.383 804.871> 528 52<-190.936 -146.251> 568 54<752.383 804.871> 738 54<752.383 804.871> 908 54<752.383 804.871>
LayerCount: 2
Fore
SplineSet
584 -200 m 0,0,1
 592 -200 592 -200 599.5 -193.5 c 128,-1,2
 607 -187 607 -187 613.5 -176 c 128,-1,3
 620 -165 620 -165 626 -151 c 128,-1,4
 632 -137 632 -137 637 -120.5 c 128,-1,5
 642 -104 642 -104 646 -89 c 128,-1,6
 650 -74 650 -74 653.5 -58 c 128,-1,7
 657 -42 657 -42 659.5 -31 c 128,-1,8
 662 -20 662 -20 663.5 -10.5 c 128,-1,9
 665 -1 665 -1 666 0 c 0,10,11
 677 50 677 50 693.5 146.5 c 128,-1,12
 710 243 710 243 724 309 c 0,13,14
 760 478 760 478 794 618 c 0,15,16
 798 634 l 0,17,18
 802 650 802 650 804 659.5 c 128,-1,19
 806 669 806 669 811.5 689 c 128,-1,20
 817 709 817 709 822 722.5 c 128,-1,21
 827 736 827 736 834 754 c 128,-1,22
 841 772 841 772 849 784.5 c 128,-1,23
 857 797 857 797 865.5 808.5 c 128,-1,24
 874 820 874 820 884 826 c 128,-1,25
 894 832 894 832 905 832 c 0,26,27
 928 832 928 832 945 816.5 c 128,-1,28
 962 801 962 801 962 779 c 0,29,30
 962 768 962 768 954 760 c 128,-1,31
 946 752 946 752 935 752 c 128,-1,32
 924 752 924 752 916 760 c 128,-1,33
 908 768 908 768 908 779 c 0,34,35
 908 801 908 801 929 805 c 1,36,37
 919 814 919 814 906 814 c 0,38,39
 895 814 895 814 881 773 c 128,-1,40
 867 732 867 732 852.5 665 c 128,-1,41
 838 598 838 598 826 534 c 128,-1,42
 814 470 814 470 801 399.5 c 128,-1,43
 788 329 788 329 783 305 c 0,44,45
 757 181 757 181 712 -4 c 0,46,47
 711 -8 711 -8 709 -16 c 0,48,49
 703 -39 703 -39 699.5 -53.5 c 128,-1,50
 696 -68 696 -68 687.5 -95.5 c 128,-1,51
 679 -123 679 -123 670 -141 c 128,-1,52
 661 -159 661 -159 648 -178.5 c 128,-1,53
 635 -198 635 -198 619 -208 c 128,-1,54
 603 -218 603 -218 584 -218 c 0,55,56
 561 -218 561 -218 544.5 -202.5 c 128,-1,57
 528 -187 528 -187 528 -165 c 0,58,59
 528 -154 528 -154 535.5 -146 c 128,-1,60
 543 -138 543 -138 554 -138 c 128,-1,61
 565 -138 565 -138 572.5 -146 c 128,-1,62
 580 -154 580 -154 580 -165 c 0,63,64
 580 -174 580 -174 574.5 -181.5 c 128,-1,65
 569 -189 569 -189 561 -191 c 1,66,67
 571 -200 571 -200 584 -200 c 0,0,1
414 -200 m 0,68,69
 422 -200 422 -200 429.5 -193.5 c 128,-1,70
 437 -187 437 -187 443.5 -176 c 128,-1,71
 450 -165 450 -165 456 -151 c 128,-1,72
 462 -137 462 -137 467 -120.5 c 128,-1,73
 472 -104 472 -104 476 -89 c 128,-1,74
 480 -74 480 -74 483.5 -58 c 128,-1,75
 487 -42 487 -42 489.5 -31 c 128,-1,76
 492 -20 492 -20 493.5 -10.5 c 128,-1,77
 495 -1 495 -1 496 0 c 0,78,79
 507 50 507 50 523.5 146.5 c 128,-1,80
 540 243 540 243 554 309 c 0,81,82
 590 478 590 478 624 618 c 0,83,-1
 628 634 l 0,84,85
 632 650 632 650 634 659.5 c 128,-1,86
 636 669 636 669 641.5 689 c 128,-1,87
 647 709 647 709 652 722.5 c 128,-1,88
 657 736 657 736 664 754 c 128,-1,89
 671 772 671 772 679 784.5 c 128,-1,90
 687 797 687 797 695.5 808.5 c 128,-1,91
 704 820 704 820 714 826 c 128,-1,92
 724 832 724 832 735 832 c 0,93,94
 758 832 758 832 775 816.5 c 128,-1,95
 792 801 792 801 792 779 c 0,96,97
 792 768 792 768 784 760 c 128,-1,98
 776 752 776 752 765 752 c 128,-1,99
 754 752 754 752 746 760 c 128,-1,100
 738 768 738 768 738 779 c 0,101,102
 738 801 738 801 759 805 c 1,103,104
 749 814 749 814 736 814 c 0,105,106
 725 814 725 814 711 773 c 128,-1,107
 697 732 697 732 682.5 665 c 128,-1,108
 668 598 668 598 656 534 c 128,-1,109
 644 470 644 470 631 399.5 c 128,-1,110
 618 329 618 329 613 305 c 0,111,112
 587 181 587 181 542 -4 c 0,113,114
 541 -8 541 -8 539 -16 c 0,115,116
 533 -39 533 -39 529.5 -53.5 c 128,-1,117
 526 -68 526 -68 517.5 -95.5 c 128,-1,118
 509 -123 509 -123 500 -141 c 128,-1,119
 491 -159 491 -159 478 -178.5 c 128,-1,120
 465 -198 465 -198 449 -208 c 128,-1,121
 433 -218 433 -218 414 -218 c 0,122,123
 391 -218 391 -218 374.5 -202.5 c 128,-1,124
 358 -187 358 -187 358 -165 c 0,125,126
 358 -154 358 -154 365.5 -146 c 128,-1,127
 373 -138 373 -138 384 -138 c 128,-1,128
 395 -138 395 -138 402.5 -146 c 128,-1,129
 410 -154 410 -154 410 -165 c 0,130,131
 410 -174 410 -174 404.5 -181.5 c 128,-1,132
 399 -189 399 -189 391 -191 c 1,133,134
 401 -200 401 -200 414 -200 c 0,68,69
244 -200 m 0,135,136
 252 -200 252 -200 259.5 -193.5 c 128,-1,137
 267 -187 267 -187 273.5 -176 c 128,-1,138
 280 -165 280 -165 286 -151 c 128,-1,139
 292 -137 292 -137 297 -120.5 c 128,-1,140
 302 -104 302 -104 306 -89 c 128,-1,141
 310 -74 310 -74 313.5 -58 c 128,-1,142
 317 -42 317 -42 319.5 -31 c 128,-1,143
 322 -20 322 -20 323.5 -10.5 c 128,-1,144
 325 -1 325 -1 326 0 c 0,145,146
 337 50 337 50 353.5 146.5 c 128,-1,147
 370 243 370 243 384 309 c 0,148,149
 420 478 420 478 454 618 c 0,150,-1
 458 634 l 0,151,152
 462 650 462 650 464 659.5 c 128,-1,153
 466 669 466 669 471.5 689 c 128,-1,154
 477 709 477 709 482 722.5 c 128,-1,155
 487 736 487 736 494 754 c 128,-1,156
 501 772 501 772 509 784.5 c 128,-1,157
 517 797 517 797 525.5 808.5 c 128,-1,158
 534 820 534 820 544 826 c 128,-1,159
 554 832 554 832 565 832 c 0,160,161
 588 832 588 832 605 816.5 c 128,-1,162
 622 801 622 801 622 779 c 0,163,164
 622 768 622 768 614 760 c 128,-1,165
 606 752 606 752 595 752 c 128,-1,166
 584 752 584 752 576 760 c 128,-1,167
 568 768 568 768 568 779 c 0,168,169
 568 801 568 801 589 805 c 1,170,171
 579 814 579 814 566 814 c 0,172,173
 555 814 555 814 541 773 c 128,-1,174
 527 732 527 732 512.5 665 c 128,-1,175
 498 598 498 598 486 534 c 128,-1,176
 474 470 474 470 461 399.5 c 128,-1,177
 448 329 448 329 443 305 c 0,178,179
 417 181 417 181 372 -4 c 0,180,181
 371 -8 371 -8 369 -16 c 0,182,183
 363 -39 363 -39 359.5 -53.5 c 128,-1,184
 356 -68 356 -68 347.5 -95.5 c 128,-1,185
 339 -123 339 -123 330 -141 c 128,-1,186
 321 -159 321 -159 308 -178.5 c 128,-1,187
 295 -198 295 -198 279 -208 c 128,-1,188
 263 -218 263 -218 244 -218 c 0,189,190
 221 -218 221 -218 204.5 -202.5 c 128,-1,191
 188 -187 188 -187 188 -165 c 0,192,193
 188 -154 188 -154 195.5 -146 c 128,-1,194
 203 -138 203 -138 214 -138 c 128,-1,195
 225 -138 225 -138 232.5 -146 c 128,-1,196
 240 -154 240 -154 240 -165 c 0,197,198
 240 -174 240 -174 234.5 -181.5 c 128,-1,199
 229 -189 229 -189 221 -191 c 1,200,201
 231 -200 231 -200 244 -200 c 0,135,136
74 -200 m 0,202,203
 82 -200 82 -200 89.5 -193.5 c 128,-1,204
 97 -187 97 -187 103.5 -176 c 128,-1,205
 110 -165 110 -165 116 -151 c 128,-1,206
 122 -137 122 -137 127 -120.5 c 128,-1,207
 132 -104 132 -104 136 -89 c 128,-1,208
 140 -74 140 -74 143.5 -58 c 128,-1,209
 147 -42 147 -42 149.5 -31 c 128,-1,210
 152 -20 152 -20 153.5 -10.5 c 128,-1,211
 155 -1 155 -1 156 -0 c 0,212,213
 167 50 167 50 183.5 146.5 c 128,-1,214
 200 243 200 243 214 309 c 0,215,216
 250 478 250 478 284 618 c 0,217,-1
 288 634 l 0,218,219
 292 650 292 650 294 659.5 c 128,-1,220
 296 669 296 669 301.5 689 c 128,-1,221
 307 709 307 709 312 722.5 c 128,-1,222
 317 736 317 736 324 754 c 128,-1,223
 331 772 331 772 339 784.5 c 128,-1,224
 347 797 347 797 355.5 808.5 c 128,-1,225
 364 820 364 820 374 826 c 128,-1,226
 384 832 384 832 395 832 c 0,227,228
 418 832 418 832 435 816.5 c 128,-1,229
 452 801 452 801 452 779 c 0,230,231
 452 768 452 768 444 760 c 128,-1,232
 436 752 436 752 425 752 c 128,-1,233
 414 752 414 752 406 760 c 128,-1,234
 398 768 398 768 398 779 c 0,235,236
 398 801 398 801 419 805 c 1,237,238
 409 814 409 814 396 814 c 0,239,240
 385 814 385 814 371 773 c 128,-1,241
 357 732 357 732 342.5 665 c 128,-1,242
 328 598 328 598 316 534 c 128,-1,243
 304 470 304 470 291 399.5 c 128,-1,244
 278 329 278 329 273 305 c 0,245,246
 247 181 247 181 202 -4 c 0,247,248
 201 -8 201 -8 199 -16 c 0,249,250
 193 -39 193 -39 189.5 -53.5 c 128,-1,251
 186 -68 186 -68 177.5 -95.5 c 128,-1,252
 169 -123 169 -123 160 -141 c 128,-1,253
 151 -159 151 -159 138 -178.5 c 128,-1,254
 125 -198 125 -198 109 -208 c 128,-1,255
 93 -218 93 -218 74 -218 c 0,256,257
 51 -218 51 -218 34.5 -202.5 c 128,-1,258
 18 -187 18 -187 18 -165 c 0,259,260
 18 -154 18 -154 25.5 -146 c 128,-1,261
 33 -138 33 -138 44 -138 c 128,-1,262
 55 -138 55 -138 62.5 -146 c 128,-1,263
 70 -154 70 -154 70 -165 c 0,264,265
 70 -174 70 -174 64.5 -181.5 c 128,-1,266
 59 -189 59 -189 51 -191 c 1,267,268
 61 -200 61 -200 74 -200 c 0,202,203
EndSplineSet
EndChar

StartChar: A
Encoding: 65 65 33
Width: 722
VWidth: 1000
Flags: W
HStem: -5 45<19.2188 79.7334 119 155 195.051 237.717 370.007 447.905 489 609 650.324 707.988> 192 45<215 397>
VStem: 144 45<43.3545 94>
LayerCount: 2
Fore
SplineSet
372 684 m 2,0,-1
 627 103 l 2,1,2
 653 45 653 45 682 40 c 1,3,4
 708 31 708 31 708 18 c 0,5,6
 708 2 708 2 696 -2 c 0,7,8
 687 -5 687 -5 669 -5 c 2,9,-1
 408 -5 l 2,10,11
 396 -5 396 -5 390 -4 c 0,12,13
 383 -3 383 -3 377 2 c 0,14,15
 370 8 370 8 370 18 c 0,16,17
 370 37 370 37 391 40 c 0,18,19
 428 44 428 44 450 64 c 1,20,21
 447 100 447 100 414 192 c 1,22,-1
 202 192 l 1,23,24
 189 131 189 131 189 100 c 0,25,26
 189 43 189 43 223 40 c 2,27,-1
 224 40 l 1,28,29
 249 36 249 36 249 18 c 0,30,31
 249 3 249 3 238 -2 c 0,32,33
 229 -5 229 -5 211 -5 c 2,34,-1
 51 -5 l 2,35,36
 39 -5 39 -5 33 -4 c 0,37,38
 26 -3 26 -3 19 2 c 0,39,40
 12 8 12 8 12 18 c 0,41,42
 12 39 12 39 38 40 c 1,43,44
 78 45 78 45 93 87 c 2,45,-1
 321 685 l 1,46,47
 331 709 331 709 347 709 c 0,48,49
 357 709 357 709 362 703 c 0,50,51
 366 699 366 699 372 684 c 2,0,-1
215 237 m 1,52,-1
 397 237 l 1,53,54
 356 346 356 346 296 476 c 1,55,56
 240 331 240 331 215 237 c 1,52,-1
144 94 m 1,57,-1
 137 75 l 2,58,59
 129 53 129 53 119 40 c 1,60,-1
 155 40 l 1,61,62
 145 61 145 61 144 94 c 1,57,-1
316 543 m 1,63,-1
 365 433 l 1,64,65
 495 130 495 130 495 67 c 0,66,67
 495 50 495 50 489 40 c 1,68,-1
 609 40 l 1,69,70
 595 60 595 60 585 85 c 2,71,-1
 347 627 l 1,72,-1
 316 543 l 1,63,-1
EndSplineSet
EndChar

StartChar: B
Encoding: 66 66 34
Width: 666
VWidth: 1000
Flags: W
HStem: -5 45<11.2188 90.7102 139 231 270.793 398.317> 332 45<267 366.607> 645 45<4.01172 91.2264 139 231 279.717 373.824>
VStem: 100 45<48.2571 636.228> 222 45<45.0186 332 377 633.683> 413 45<420.526 604.059> 444 45<89.2533 290.516> 543 45<453.528 591.128> 581 45<117.647 263.864>
LayerCount: 2
Fore
SplineSet
145 594 m 2,0,-1
 145 91 l 2,1,2
 145 59 145 59 139 40 c 1,3,-1
 231 40 l 1,4,5
 222 57 222 57 222 86 c 2,6,-1
 222 599 l 2,7,8
 222 628 222 628 231 645 c 1,9,-1
 139 645 l 1,10,11
 145 626 145 626 145 594 c 2,0,-1
426 393 m 1,12,13
 469 406 469 406 503 435 c 0,14,15
 543 470 543 470 543 514 c 0,16,17
 543 579 543 579 506 606 c 0,18,19
 473 631 473 631 420 639 c 1,20,21
 458 591 458 591 458 510 c 0,22,23
 458 435 458 435 426 393 c 1,12,13
267 596 m 2,24,-1
 267 377 l 1,25,26
 343 380 343 380 377 406 c 0,27,28
 413 433 413 433 413 510 c 0,29,30
 413 580 413 580 384 613 c 0,31,32
 355 645 355 645 319 645 c 0,33,34
 302 645 302 645 279 634 c 1,35,36
 267 624 267 624 267 596 c 2,24,-1
485 368 m 1,37,38
 541 350 541 350 581 308 c 0,39,40
 626 261 626 261 626 187 c 0,41,42
 626 135 626 135 599 97 c 0,43,44
 572 58 572 58 528 37 c 128,-1,45
 484 16 484 16 437 5.5 c 128,-1,46
 390 -5 390 -5 340 -5 c 2,47,-1
 43 -5 l 2,48,49
 31 -5 31 -5 25 -4 c 0,50,51
 18 -3 18 -3 11 2 c 0,52,53
 4 8 4 8 4 18 c 0,54,55
 4 40 4 40 38 40 c 0,56,57
 82 40 82 40 91 48 c 128,-1,58
 100 56 100 56 100 93 c 2,59,-1
 100 592 l 2,60,61
 100 628 100 628 91.5 636.5 c 128,-1,62
 83 645 83 645 42 645 c 0,63,64
 4 645 4 645 4 667 c 0,65,66
 4 683 4 683 16 687 c 0,67,68
 25 690 25 690 43 690 c 2,69,-1
 346 690 l 2,70,71
 588 690 588 690 588 514 c 0,72,73
 588 465 588 465 555 426 c 0,74,75
 527 392 527 392 485 368 c 1,37,38
267 89 m 2,76,77
 267 78 267 78 268 72 c 128,-1,78
 269 66 269 66 273 57 c 0,79,80
 277 49 277 49 289 45 c 0,81,82
 301 40 301 40 321 40 c 0,83,84
 444 40 444 40 444 187 c 0,85,86
 444 280 444 280 404 310 c 0,87,88
 384 325 384 325 357.5 328.5 c 128,-1,89
 331 332 331 332 267 332 c 1,90,-1
 267 89 l 2,76,77
453 55 m 1,91,92
 581 90 581 90 581 187 c 0,93,94
 581 248 581 248 540 286 c 0,95,96
 504 320 504 320 445 333 c 1,97,98
 489 285 489 285 489 187 c 0,99,100
 489 105 489 105 453 55 c 1,91,92
EndSplineSet
EndChar

StartChar: C
Encoding: 67 67 35
Width: 722
VWidth: 1000
Flags: W
HStem: -24 58<319.63 520.372> 618 45<585.59 616.655> 664 45<322.125 474.553>
VStem: 32 45<211.19 479.46> 173 45<172.74 512.091> 617 45<466.009 535.647 582 622 663.375 708.991>
LayerCount: 2
Fore
SplineSet
662 671 m 2,0,-1
 662 504 l 2,1,2
 662 466 662 466 640 466 c 0,3,4
 623 466 623 466 616 488 c 0,5,6
 593 561 593 561 522 612.5 c 128,-1,7
 451 664 451 664 392 664 c 0,8,9
 315 664 315 664 267 577 c 0,10,11
 218 488 218 488 218 341 c 0,12,13
 218 278 218 278 227 226.5 c 128,-1,14
 236 175 236 175 256 130 c 128,-1,15
 276 85 276 85 314 59.5 c 128,-1,16
 352 34 352 34 407 34 c 0,17,18
 473 34 473 34 534.5 61.5 c 128,-1,19
 596 89 596 89 639 138 c 0,20,21
 654 154 654 154 664 154 c 0,22,23
 672 154 672 154 680 148 c 0,24,25
 690 141 690 141 690 129 c 0,26,27
 690 116 690 116 657 84 c 0,28,29
 625 53 625 53 591 32 c 0,30,31
 499 -24 499 -24 391 -24 c 0,32,33
 323 -24 323 -24 261 -2 c 128,-1,34
 199 20 199 20 146 62 c 0,35,36
 94 105 94 105 63 177.5 c 128,-1,37
 32 250 32 250 32 343 c 128,-1,38
 32 436 32 436 63.5 508.5 c 128,-1,39
 95 581 95 581 147 624 c 128,-1,40
 199 667 199 667 261 688 c 128,-1,41
 323 709 323 709 389 709 c 0,42,43
 449 709 449 709 501 687 c 1,44,45
 553 663 553 663 589 663 c 0,46,47
 615 663 615 663 617 687 c 0,48,49
 619 709 619 709 640 709 c 0,50,51
 662 709 662 709 662 671 c 2,0,-1
617 582 m 1,52,-1
 617 622 l 1,53,54
 606 618 606 618 590 618 c 2,55,-1
 585 618 l 1,56,57
 606 595 606 595 617 582 c 1,52,-1
251 636 m 1,58,59
 182 607 182 607 132 541 c 0,60,61
 77 467 77 467 77 342 c 0,62,63
 77 238 77 238 125 156 c 0,64,65
 168 83 168 83 261 45 c 1,66,67
 173 135 173 135 173 341 c 0,68,69
 173 431 173 431 192 503 c 128,-1,70
 211 575 211 575 229 604 c 0,71,72
 240 622 240 622 251 636 c 1,58,59
EndSplineSet
EndChar

StartChar: D
Encoding: 68 68 36
Width: 722
VWidth: 1000
Flags: W
HStem: -5 45<18.2188 86.2589 133 231 270.793 404.992> 645 45<11.0107 86.2587 133 231 270.641 403.523>
VStem: 94 45<48.2568 636.743> 222 45<45.0186 620.779> 510 45<181.108 511.62> 651 45<222.146 474.772>
LayerCount: 2
Fore
SplineSet
50 690 m 2,0,-1
 339 690 l 2,1,2
 390 690 390 690 439 679 c 128,-1,3
 488 668 488 668 535 642 c 128,-1,4
 582 616 582 616 617.5 578 c 128,-1,5
 653 540 653 540 674.5 482.5 c 128,-1,6
 696 425 696 425 696 355 c 0,7,8
 696 282 696 282 675.5 222 c 128,-1,9
 655 162 655 162 620.5 120.5 c 128,-1,10
 586 79 586 79 540 50 c 128,-1,11
 494 21 494 21 443.5 8 c 128,-1,12
 393 -5 393 -5 338 -5 c 2,13,-1
 50 -5 l 2,14,15
 38 -5 38 -5 32 -4 c 0,16,17
 25 -3 25 -3 18 2 c 0,18,19
 11 8 11 8 11 18 c 0,20,21
 11 40 11 40 44 40 c 0,22,23
 79 40 79 40 86.5 48 c 128,-1,24
 94 56 94 56 94 92 c 2,25,-1
 94 593 l 2,26,27
 94 629 94 629 86.5 637 c 128,-1,28
 79 645 79 645 43 645 c 0,29,30
 11 645 11 645 11 667 c 0,31,32
 11 682 11 682 22 687 c 0,33,34
 31 690 31 690 50 690 c 2,0,-1
476 619 m 1,35,36
 555 523 555 523 555 353 c 0,37,38
 555 162 555 162 482 70 c 1,39,40
 551 100 551 100 598 164 c 0,41,42
 651 237 651 237 651 355 c 0,43,44
 651 450 651 450 605 521 c 0,45,46
 563 586 563 586 476 619 c 1,35,36
133 40 m 1,47,-1
 231 40 l 1,48,49
 222 57 222 57 222 86 c 2,50,-1
 222 599 l 2,51,52
 222 628 222 628 231 645 c 1,53,-1
 133 645 l 1,54,55
 139 626 139 626 139 595 c 2,56,-1
 139 90 l 2,57,58
 139 59 139 59 133 40 c 1,47,-1
267 596 m 2,59,-1
 267 89 l 2,60,61
 267 78 267 78 268 72 c 128,-1,62
 269 66 269 66 273 57 c 0,63,64
 277 49 277 49 289 45 c 0,65,66
 301 40 301 40 321 40 c 0,67,68
 368 40 368 40 403 61 c 128,-1,69
 438 82 438 82 458 113 c 128,-1,70
 478 144 478 144 490 188 c 0,71,72
 502 233 502 233 506 271 c 128,-1,73
 510 309 510 309 510 353 c 0,74,75
 510 504 510 504 455 575 c 0,76,77
 400 645 400 645 328 645 c 0,78,79
 297 645 297 645 283 634 c 0,80,81
 272 627 272 627 270 621 c 0,82,83
 267 614 267 614 267 596 c 2,59,-1
EndSplineSet
EndChar

StartChar: E
Encoding: 69 69 37
Width: 666
VWidth: 1000
Flags: W
HStem: -5 45<16.2188 88.7742 136 228 281.22 467.863 527 577.905> 331 46<264 357.684> 645 45<9.01074 88.7422 136 227 268.115 467 518 553>
VStem: 97 45<48.2876 636.743> 219 45<42.0652 331 377 642.935> 414 45<199.219 283.934 328 387 432.165 536.991> 553 45<484.009 569.58 615 645>
LayerCount: 2
Fore
SplineSet
364 311 m 1,0,1
 332 330 332 330 264 331 c 1,2,-1
 264 102 l 2,3,4
 264 71 264 71 270 57 c 0,5,6
 276 44 276 44 281 42 c 0,7,8
 288 40 288 40 302 40 c 2,9,-1
 357 40 l 2,10,11
 439 40 439 40 512 84 c 0,12,13
 545 104 545 104 565.5 126.5 c 128,-1,14
 586 149 586 149 590 161 c 0,15,16
 595 174 595 174 599 192 c 0,17,18
 600 196 600 196 601 197 c 0,19,20
 603 201 603 201 608 205 c 0,21,22
 614 210 614 210 622 210 c 128,-1,23
 630 210 630 210 637 204 c 128,-1,24
 644 198 644 198 644 187 c 0,25,26
 644 183 644 183 630 98 c 0,27,28
 616 16 616 16 615 13 c 0,29,30
 612 0 612 0 603 -3 c 0,31,32
 596 -5 596 -5 578 -5 c 2,33,-1
 48 -5 l 2,34,35
 36 -5 36 -5 30 -4 c 0,36,37
 23 -3 23 -3 16 2 c 0,38,39
 9 8 9 8 9 18 c 0,40,41
 9 40 9 40 46 40 c 0,42,43
 82 40 82 40 89 48 c 0,44,45
 97 57 97 57 97 92 c 2,46,-1
 97 593 l 2,47,48
 97 629 97 629 89 637 c 128,-1,49
 81 645 81 645 41 645 c 0,50,51
 9 645 9 645 9 667 c 0,52,53
 9 682 9 682 20 687 c 0,54,55
 29 690 29 690 48 690 c 2,56,-1
 560 690 l 2,57,58
 585 690 585 690 591.5 683.5 c 128,-1,59
 598 677 598 677 598 652 c 2,60,-1
 598 522 l 2,61,62
 598 484 598 484 576 484 c 0,63,64
 557 484 557 484 553 511 c 1,65,66
 548 566 548 566 496 606 c 0,67,68
 443 646 443 646 350 645 c 2,69,-1
 302 645 l 2,70,71
 288 645 288 645 281 643 c 0,72,73
 276 641 276 641 270 628 c 0,74,75
 264 614 264 614 264 583 c 2,76,-1
 264 377 l 1,77,78
 282 377 282 377 295 379 c 0,79,80
 310 381 310 381 334 389 c 128,-1,81
 358 397 358 397 373 409.5 c 128,-1,82
 388 422 388 422 400 447.5 c 128,-1,83
 412 473 412 473 414 509 c 1,84,85
 414 537 414 537 437 537 c 0,86,87
 459 537 459 537 459 500 c 2,88,-1
 459 229 l 2,89,90
 459 217 459 217 458 212 c 0,91,92
 457 206 457 206 453 199 c 0,93,94
 447 192 447 192 437 192 c 128,-1,95
 427 192 427 192 421 198 c 0,96,97
 416 204 416 204 416 209 c 0,98,99
 415 213 415 213 414 224 c 0,100,101
 414 231 414 231 412 243 c 128,-1,102
 410 255 410 255 397 276 c 0,103,104
 384 298 384 298 364 311 c 1,0,1
553 645 m 1,105,-1
 518 645 l 1,106,107
 537 632 537 632 553 615 c 1,108,-1
 553 645 l 1,105,-1
374 357 m 1,109,110
 383 353 383 353 397 342 c 0,111,112
 406 336 406 336 414 328 c 1,113,-1
 414 387 l 1,114,115
 395 368 395 368 374 357 c 1,109,110
142 595 m 2,116,-1
 142 90 l 2,117,118
 142 59 142 59 136 40 c 1,119,-1
 228 40 l 1,120,121
 219 65 219 65 219 100 c 2,122,-1
 219 585 l 2,123,124
 219 622 219 622 227 645 c 1,125,-1
 136 645 l 1,126,127
 142 626 142 626 142 595 c 2,116,-1
527 40 m 1,128,-1
 575 40 l 1,129,130
 578 63 578 63 580 78 c 1,131,132
 554 55 554 55 527 40 c 1,128,-1
EndSplineSet
EndChar

StartChar: F
Encoding: 70 70 38
Width: 611
VWidth: 1000
Flags: W
HStem: -5 45<16.2188 88.7742 136 226 274.354 374.989> 331 46<264 347.575> 645 45<9.01074 88.7422 136 227 268.115 460.188 510 543>
VStem: 97 45<48.2876 636.743> 219 45<48.2576 331 377 642.935> 403 45<199.219 285.345 330 385 427.063 536.991> 543 45<484.009 571.024 615 645>
LayerCount: 2
Fore
SplineSet
264 331 m 1,0,-1
 264 95 l 2,1,2
 264 56 264 56 274 48 c 0,3,4
 285 40 285 40 340 40 c 0,5,6
 375 40 375 40 375 18 c 0,7,8
 375 3 375 3 364 -2 c 0,9,10
 355 -5 355 -5 337 -5 c 2,11,-1
 48 -5 l 2,12,13
 36 -5 36 -5 30 -4 c 0,14,15
 23 -3 23 -3 16 2 c 0,16,17
 9 8 9 8 9 18 c 0,18,19
 9 40 9 40 46 40 c 0,20,21
 82 40 82 40 89 48 c 0,22,23
 97 57 97 57 97 92 c 2,24,-1
 97 593 l 2,25,26
 97 629 97 629 89 637 c 128,-1,27
 81 645 81 645 41 645 c 0,28,29
 9 645 9 645 9 667 c 0,30,31
 9 682 9 682 20 687 c 0,32,33
 29 690 29 690 48 690 c 2,34,-1
 550 690 l 2,35,36
 575 690 575 690 581.5 683.5 c 128,-1,37
 588 677 588 677 588 652 c 2,38,-1
 588 522 l 2,39,40
 588 484 588 484 566 484 c 0,41,42
 547 484 547 484 543 511 c 1,43,44
 538 566 538 566 488 606 c 0,45,46
 437 645 437 645 349 645 c 2,47,-1
 302 645 l 2,48,49
 288 645 288 645 281 643 c 0,50,51
 276 641 276 641 270 628 c 0,52,53
 264 614 264 614 264 583 c 2,54,-1
 264 377 l 1,55,56
 325 381 325 381 362 408 c 0,57,58
 400 435 400 435 403 511 c 1,59,60
 405 537 405 537 426 537 c 0,61,62
 448 537 448 537 448 500 c 2,63,-1
 448 229 l 2,64,65
 448 217 448 217 447 212 c 0,66,67
 446 206 446 206 442 199 c 0,68,69
 436 192 436 192 426 192 c 0,70,71
 405 192 405 192 403 222 c 0,72,73
 395 329 395 329 264 331 c 1,0,-1
543 645 m 1,74,-1
 510 645 l 1,75,76
 525 634 525 634 543 615 c 1,77,-1
 543 645 l 1,74,-1
403 330 m 1,78,-1
 403 385 l 1,79,80
 386 368 386 368 366 356 c 1,81,82
 387 346 387 346 403 330 c 1,78,-1
142 595 m 2,83,-1
 142 90 l 2,84,85
 142 59 142 59 136 40 c 1,86,-1
 226 40 l 1,87,88
 219 60 219 60 219 93 c 2,89,-1
 219 585 l 2,90,91
 219 622 219 622 227 645 c 1,92,-1
 136 645 l 1,93,94
 142 626 142 626 142 595 c 2,83,-1
EndSplineSet
EndChar

StartChar: G
Encoding: 71 71 39
Width: 777
VWidth: 1000
Flags: W
HStem: -24 45<315.765 500.383> 250 45<405.012 485.648 526 647 687.472 745.781> 618 45<585 615.655> 664 45<322.125 476.347>
VStem: 32 45<209.916 479.46> 173 45<159.931 512.817> 507 45<47.3162 228.25> 616 45<466.009 536.461 583 622 663.287 708.991> 626 45<65.3496 227.402>
LayerCount: 2
Fore
SplineSet
647 250 m 1,0,-1
 526 250 l 1,1,2
 543 231 543 231 547 209 c 0,3,4
 552 183 552 183 552 120 c 0,5,6
 552 67 552 67 549 45 c 1,7,8
 588 57 588 57 626 75 c 1,9,-1
 626 174 l 2,10,11
 626 218 626 218 647 250 c 1,0,-1
613 497 m 1,12,13
 595 555 595 555 525.5 609.5 c 128,-1,14
 456 664 456 664 392 664 c 0,15,16
 315 664 315 664 267 577 c 0,17,18
 218 489 218 489 218 340 c 0,19,20
 218 211 218 211 250 130 c 0,21,22
 293 21 293 21 397 21 c 0,23,24
 451 21 451 21 481 32 c 0,25,26
 499 39 499 39 503 47 c 0,27,28
 507 57 507 57 507 82 c 2,29,-1
 507 158 l 2,30,31
 507 171 507 171 507 179 c 0,32,33
 507 186 507 186 502 201 c 0,34,35
 498 215 498 215 490.5 223 c 128,-1,36
 483 231 483 231 467.5 239 c 128,-1,37
 452 247 452 247 429 249 c 0,38,39
 405 250 405 250 405 272 c 0,40,41
 405 288 405 288 417 292 c 0,42,43
 426 295 426 295 446 295 c 2,44,-1
 713 295 l 2,45,46
 725 295 725 295 731 294 c 0,47,48
 739 293 739 293 746 288 c 0,49,50
 753 282 753 282 753 272 c 0,51,52
 753 251 753 251 729 249 c 0,53,54
 702 247 702 247 687 228 c 0,55,56
 671 209 671 209 671 172 c 2,57,-1
 671 80 l 2,58,59
 671 58 671 58 667 51 c 128,-1,60
 663 44 663 44 642 34 c 0,61,62
 529 -24 529 -24 395 -24 c 0,63,64
 240 -24 240 -24 136 72 c 128,-1,65
 32 168 32 168 32 343 c 0,66,67
 32 436 32 436 63.5 508.5 c 128,-1,68
 95 581 95 581 147 624 c 128,-1,69
 199 667 199 667 261 688 c 128,-1,70
 323 709 323 709 389 709 c 0,71,72
 450 709 450 709 507 684 c 0,73,74
 555 663 555 663 589 663 c 0,75,76
 614 663 614 663 616 687 c 0,77,78
 618 709 618 709 639 709 c 0,79,80
 661 709 661 709 661 671 c 2,81,-1
 661 504 l 2,82,83
 661 466 661 466 639 466 c 0,84,85
 627 466 627 466 622 474 c 0,86,87
 617 480 617 480 613 497 c 1,12,13
616 583 m 1,88,-1
 616 622 l 1,89,90
 605 618 605 618 589 618 c 2,91,-1
 585 618 l 1,92,93
 600 603 600 603 616 583 c 1,88,-1
239 55 m 1,94,95
 173 150 173 150 173 340 c 0,96,97
 173 429 173 429 191 500 c 128,-1,98
 209 571 209 571 227 601 c 0,99,100
 238 620 238 620 251 636 c 1,101,102
 182 607 182 607 132 541 c 0,103,104
 77 467 77 467 77 342 c 0,105,106
 77 240 77 240 121 162 c 0,107,108
 160 93 160 93 239 55 c 1,94,95
EndSplineSet
EndChar

StartChar: H
Encoding: 72 72 40
Width: 777
VWidth: 1000
Flags: W
HStem: -5 45<19.2188 91.7742 139 234 281.258 360.989 424.219 496.774 544 639 686.258 765.989> 319 56<273 505> 645 45<12.0117 91.7422 139 234 281.258 360.992 417.011 496.742 544 639 686.258 765.992>
VStem: 100 45<48.2876 636.743> 228 45<48.7721 319 375 636.743> 505 45<48.2876 319 375 636.743> 633 45<48.7721 636.743>
LayerCount: 2
Fore
SplineSet
678 593 m 2,0,-1
 678 92 l 2,1,2
 678 57 678 57 686 48.5 c 128,-1,3
 694 40 694 40 733 40 c 0,4,5
 766 40 766 40 766 18 c 0,6,7
 766 3 766 3 755 -2 c 0,8,9
 746 -5 746 -5 728 -5 c 2,10,-1
 456 -5 l 2,11,12
 444 -5 444 -5 438 -4 c 0,13,14
 431 -3 431 -3 424 2 c 0,15,16
 417 8 417 8 417 18 c 0,17,18
 417 40 417 40 454 40 c 0,19,20
 490 40 490 40 497 48 c 0,21,22
 505 57 505 57 505 92 c 2,23,-1
 505 319 l 1,24,-1
 273 319 l 1,25,-1
 273 92 l 2,26,27
 273 57 273 57 281 48.5 c 128,-1,28
 289 40 289 40 328 40 c 0,29,30
 361 40 361 40 361 18 c 0,31,32
 361 3 361 3 350 -2 c 0,33,34
 341 -5 341 -5 323 -5 c 2,35,-1
 51 -5 l 2,36,37
 39 -5 39 -5 33 -4 c 0,38,39
 26 -3 26 -3 19 2 c 0,40,41
 12 8 12 8 12 18 c 0,42,43
 12 40 12 40 49 40 c 0,44,45
 85 40 85 40 92 48 c 0,46,47
 100 57 100 57 100 92 c 2,48,-1
 100 593 l 2,49,50
 100 629 100 629 92 637 c 128,-1,51
 84 645 84 645 44 645 c 0,52,53
 12 645 12 645 12 667 c 0,54,55
 12 683 12 683 24 687 c 0,56,57
 33 690 33 690 51 690 c 2,58,-1
 323 690 l 2,59,60
 335 690 335 690 341 689 c 0,61,62
 348 688 348 688 354 683 c 0,63,64
 361 677 361 677 361 667 c 0,65,66
 361 645 361 645 330 645 c 0,67,68
 289 645 289 645 281 637 c 128,-1,69
 273 629 273 629 273 593 c 2,70,-1
 273 375 l 1,71,-1
 505 375 l 1,72,-1
 505 593 l 2,73,74
 505 629 505 629 497 637 c 128,-1,75
 489 645 489 645 449 645 c 0,76,77
 417 645 417 645 417 667 c 0,78,79
 417 682 417 682 428 687 c 0,80,81
 437 690 437 690 456 690 c 2,82,-1
 728 690 l 2,83,84
 740 690 740 690 746 689 c 0,85,86
 753 688 753 688 759 683 c 0,87,88
 766 677 766 677 766 667 c 0,89,90
 766 645 766 645 735 645 c 0,91,92
 694 645 694 645 686 637 c 128,-1,93
 678 629 678 629 678 593 c 2,0,-1
145 595 m 2,94,-1
 145 90 l 2,95,96
 145 59 145 59 139 40 c 1,97,-1
 234 40 l 1,98,99
 228 59 228 59 228 90 c 2,100,-1
 228 595 l 2,101,102
 228 626 228 626 234 645 c 1,103,-1
 139 645 l 1,104,105
 145 626 145 626 145 595 c 2,94,-1
550 595 m 2,106,-1
 550 90 l 2,107,108
 550 59 550 59 544 40 c 1,109,-1
 639 40 l 1,110,111
 633 59 633 59 633 90 c 2,112,-1
 633 595 l 2,113,114
 633 626 633 626 639 645 c 1,115,-1
 544 645 l 1,116,117
 550 626 550 626 550 595 c 2,106,-1
EndSplineSet
EndChar

StartChar: I
Encoding: 73 73 41
Width: 388
VWidth: 1000
Flags: W
HStem: -5 45<22.2188 99.7419 147 242 289.774 373.989> 645 45<15.0107 99.7424 147 242 289.258 373.991>
VStem: 108 45<48.7721 636.228> 236 45<48.2568 636.228>
LayerCount: 2
Fore
SplineSet
281 593 m 2,0,-1
 281 92 l 2,1,2
 281 56 281 56 289.5 48 c 128,-1,3
 298 40 298 40 341 40 c 0,4,5
 374 40 374 40 374 18 c 0,6,7
 374 3 374 3 363 -2 c 0,8,9
 354 -5 354 -5 336 -5 c 2,10,-1
 54 -5 l 2,11,12
 42 -5 42 -5 36 -4 c 0,13,14
 29 -3 29 -3 22 2 c 0,15,16
 15 8 15 8 15 18 c 0,17,18
 15 40 15 40 51 40 c 0,19,20
 92 40 92 40 100 48.5 c 128,-1,21
 108 57 108 57 108 92 c 2,22,-1
 108 593 l 2,23,24
 108 628 108 628 100 636.5 c 128,-1,25
 92 645 92 645 53 645 c 0,26,27
 15 645 15 645 15 667 c 0,28,29
 15 682 15 682 26 687 c 0,30,31
 35 690 35 690 54 690 c 2,32,-1
 336 690 l 2,33,34
 348 690 348 690 354 689 c 0,35,36
 361 688 361 688 367 683 c 0,37,38
 374 677 374 677 374 667 c 0,39,40
 374 645 374 645 338 645 c 0,41,42
 297 645 297 645 289 636.5 c 128,-1,43
 281 628 281 628 281 593 c 2,0,-1
153 595 m 2,44,-1
 153 90 l 2,45,46
 153 59 153 59 147 40 c 1,47,-1
 242 40 l 1,48,49
 236 59 236 59 236 90 c 2,50,-1
 236 595 l 2,51,52
 236 626 236 626 242 645 c 1,53,-1
 147 645 l 1,54,55
 153 626 153 626 153 595 c 2,44,-1
EndSplineSet
EndChar

StartChar: J
Encoding: 74 74 42
Width: 500
VWidth: 1000
Flags: W
HStem: -80 45<128.871 240.501> 66 45<47.1008 104.183> 645 45<118.012 210.678 259 354 394.526 474.296>
VStem: 1 45<-5.42078 64.5563> 110 45<4.81104 61.1425> 220 45<-17.5266 636.743> 348 45<30.2251 637.838>
LayerCount: 2
Fore
SplineSet
157 690 m 2,0,-1
 443 690 l 2,1,2
 455 690 455 690 461 689 c 0,3,4
 468 688 468 688 474 683 c 0,5,6
 481 677 481 677 481 667 c 0,7,8
 481 658 481 658 474.5 651.5 c 128,-1,9
 468 645 468 645 459 645 c 0,10,11
 414 644 414 644 403 638 c 0,12,13
 393 633 393 633 393 604 c 2,14,-1
 393 184 l 2,15,16
 393 96 393 96 392 86 c 0,17,18
 371 -80 371 -80 167 -80 c 0,19,20
 93 -80 93 -80 48 -48 c 0,21,22
 1 -15 1 -15 1 36 c 0,23,24
 1 68 1 68 24 89.5 c 128,-1,25
 47 111 47 111 78 111 c 128,-1,26
 109 111 109 111 132 89.5 c 128,-1,27
 155 68 155 68 155 36 c 0,28,29
 155 5 155 5 136 -15 c 0,30,31
 128 -23 128 -23 128 -29 c 128,-1,32
 128 -35 128 -35 160 -35 c 0,33,34
 185 -35 185 -35 205 -18 c 1,35,36
 220 -3 220 -3 220 31 c 2,37,-1
 220 592 l 2,38,39
 220 629 220 629 211 637 c 0,40,41
 201 645 201 645 152 645 c 0,42,43
 118 645 118 645 118 667 c 0,44,45
 118 683 118 683 130 687 c 0,46,47
 139 690 139 690 157 690 c 2,0,-1
83 -16 m 1,48,49
 88 1 88 1 99 13 c 2,50,-1
 100 13 l 1,51,52
 110 20 110 20 110 36 c 0,53,54
 110 50 110 50 100 58 c 128,-1,55
 90 66 90 66 78 66 c 128,-1,56
 66 66 66 66 56 58 c 0,57,58
 46 51 46 51 46 35 c 0,59,60
 46 5 46 5 83 -16 c 1,48,49
265 594 m 2,61,-1
 265 29 l 2,62,63
 265 -1 265 -1 255 -23 c 1,64,65
 333 3 333 3 347 87 c 0,66,67
 348 97 348 97 348 176 c 2,68,-1
 348 579 l 2,69,70
 348 624 348 624 354 645 c 1,71,-1
 259 645 l 1,72,73
 265 626 265 626 265 594 c 2,61,-1
EndSplineSet
EndChar

StartChar: K
Encoding: 75 75 43
Width: 777
VWidth: 1000
Flags: W
HStem: -5 45<26.2188 98.7742 146 241 288.258 367.989 482.191 510 513 514.969 555.652 675> 645 45<19.0107 98.7422 146 241 288.258 367.992 449.011 503.982 543 602 647.763 735.993>
VStem: 107 45<48.2876 636.743> 235 45<48.7721 283 354 636.743>
LayerCount: 2
Fore
SplineSet
502 66 m 2,0,-1
 303 304 l 1,1,-1
 280 283 l 1,2,-1
 280 92 l 2,3,4
 280 57 280 57 288 48.5 c 128,-1,5
 296 40 296 40 335 40 c 0,6,7
 368 40 368 40 368 18 c 0,8,9
 368 3 368 3 357 -2 c 0,10,11
 348 -5 348 -5 330 -5 c 2,12,-1
 58 -5 l 2,13,14
 46 -5 46 -5 40 -4 c 0,15,16
 33 -3 33 -3 26 2 c 0,17,18
 19 8 19 8 19 18 c 0,19,20
 19 40 19 40 56 40 c 0,21,22
 92 40 92 40 99 48 c 0,23,24
 107 57 107 57 107 92 c 2,25,-1
 107 593 l 2,26,27
 107 629 107 629 99 637 c 128,-1,28
 91 645 91 645 51 645 c 0,29,30
 19 645 19 645 19 667 c 0,31,32
 19 682 19 682 30 687 c 0,33,34
 39 690 39 690 58 690 c 2,35,-1
 330 690 l 2,36,37
 342 690 342 690 348 689 c 0,38,39
 355 688 355 688 361 683 c 0,40,41
 368 677 368 677 368 667 c 0,42,43
 368 645 368 645 337 645 c 0,44,45
 296 645 296 645 288 637 c 128,-1,46
 280 629 280 629 280 593 c 2,47,-1
 280 354 l 1,48,49
 289 362 289 362 303 375 c 0,50,51
 323 394 323 394 345.5 417 c 128,-1,52
 368 440 368 440 376 447 c 2,53,-1
 485 550 l 2,54,55
 508 573 508 573 508 600 c 0,56,57
 508 640 508 640 474 645 c 0,58,59
 449 649 449 649 449 667 c 0,60,61
 449 682 449 682 460 687 c 0,62,63
 469 690 469 690 487 690 c 2,64,-1
 698 690 l 2,65,66
 710 690 710 690 716 689 c 0,67,68
 723 688 723 688 729 683 c 0,69,70
 736 677 736 677 736 667 c 0,71,72
 736 649 736 649 710 645 c 0,73,-1
 709 645 l 2,74,75
 687 643 687 643 666 633 c 128,-1,76
 645 623 645 623 612 596 c 128,-1,77
 579 569 579 569 557 548 c 0,78,79
 534 526 534 526 481 475 c 2,80,-1
 420 416 l 1,81,-1
 706 73 l 2,82,83
 711 67 711 67 726 52 c 1,84,85
 738 42 738 42 751 40 c 0,86,87
 774 36 774 36 774 18 c 0,88,89
 774 3 774 3 763 -2 c 0,90,91
 754 -5 754 -5 736 -5 c 2,92,-1
 513 -5 l 2,93,94
 501 -5 501 -5 495 -4 c 0,95,96
 488 -3 488 -3 482 2 c 0,97,98
 475 8 475 8 475 18 c 0,99,100
 475 30 475 30 482 34 c 0,101,102
 488 38 488 38 509 41 c 2,103,-1
 510 41 l 2,104,-1
 513 42 l 0,105,106
 514 42 514 42 515 43 c 1,107,108
 509 56 509 56 502 66 c 2,0,-1
602 645 m 1,109,-1
 543 645 l 1,110,111
 551 628 551 628 553 606 c 1,112,113
 573 623 573 623 602 645 c 1,109,-1
146 40 m 1,114,-1
 241 40 l 1,115,116
 235 59 235 59 235 90 c 2,117,-1
 235 595 l 2,118,119
 235 626 235 626 241 645 c 1,120,-1
 146 645 l 1,121,122
 152 626 152 626 152 595 c 2,123,-1
 152 90 l 2,124,125
 152 59 152 59 146 40 c 1,114,-1
388 386 m 1,126,-1
 336 335 l 1,127,128
 368 299 368 299 432 219 c 1,129,130
 511 126 511 126 534 97 c 0,131,132
 546 82 546 82 552 70 c 128,-1,133
 558 58 558 58 560 52 c 0,134,135
 561 48 561 48 562 40 c 1,136,-1
 675 40 l 1,137,-1
 388 386 l 1,126,-1
EndSplineSet
EndChar

StartChar: L
Encoding: 76 76 44
Width: 666
VWidth: 1000
Flags: W
HStem: -5 45<16.2188 88.7742 136 230 283.22 459.832 517 574> 645 45<9.01074 88.7422 136 227 273.226 348.992>
VStem: 97 45<48.2876 636.743> 221 45<42.0652 636.743>
LayerCount: 2
Fore
SplineSet
266 593 m 2,0,-1
 266 102 l 2,1,2
 266 71 266 71 272 57 c 0,3,4
 278 44 278 44 283 42 c 0,5,6
 290 40 290 40 304 40 c 2,7,-1
 356 40 l 2,8,9
 433 40 433 40 501 84 c 0,10,11
 530 102 530 102 550 121 c 0,12,13
 569 139 569 139 579 157 c 128,-1,14
 589 175 589 175 592.5 185.5 c 128,-1,15
 596 196 596 196 599 211 c 0,16,17
 604 229 604 229 622 229 c 0,18,19
 630 229 630 229 637 223 c 128,-1,20
 644 217 644 217 644 206 c 0,21,22
 644 203 644 203 630 108 c 0,23,24
 616 14 616 14 614 11 c 0,25,26
 610 0 610 0 602 -3 c 0,27,28
 595 -5 595 -5 578 -5 c 2,29,-1
 48 -5 l 2,30,31
 36 -5 36 -5 30 -4 c 0,32,33
 23 -3 23 -3 16 2 c 0,34,35
 9 8 9 8 9 18 c 0,36,37
 9 40 9 40 46 40 c 0,38,39
 82 40 82 40 89 48 c 0,40,41
 97 57 97 57 97 92 c 2,42,-1
 97 593 l 2,43,44
 97 629 97 629 89 637 c 128,-1,45
 81 645 81 645 41 645 c 0,46,47
 9 645 9 645 9 667 c 0,48,49
 9 682 9 682 20 687 c 0,50,51
 29 690 29 690 48 690 c 2,52,-1
 311 690 l 2,53,54
 323 690 323 690 329 689 c 0,55,56
 336 688 336 688 342 683 c 0,57,58
 349 677 349 677 349 667 c 0,59,60
 349 645 349 645 316 645 c 0,61,62
 280 645 280 645 273 637 c 128,-1,63
 266 629 266 629 266 593 c 2,0,-1
142 595 m 2,64,-1
 142 90 l 2,65,66
 142 59 142 59 136 40 c 1,67,-1
 230 40 l 1,68,69
 221 65 221 65 221 100 c 2,70,-1
 221 595 l 2,71,72
 221 626 221 626 227 645 c 1,73,-1
 136 645 l 1,74,75
 142 626 142 626 142 595 c 2,64,-1
574 40 m 1,76,-1
 581 89 l 1,77,78
 550 60 550 60 517 40 c 1,79,-1
 574 40 l 1,76,-1
EndSplineSet
EndChar

StartChar: M
Encoding: 77 77 45
Width: 944
VWidth: 1000
Flags: W
HStem: -5 45<19.2188 88 163.056 243.989 593.219 662 701 810 849.056 929.989> 645 45<15.0107 98.1865 168 240 718 809 848 923.993>
VStem: 99 52<53.333 582> 673 45<51.6074 583> 792 45<53.375 633.393>
LayerCount: 2
Fore
SplineSet
466 223 m 1,0,-1
 651 666 l 2,1,2
 659 682 659 682 665.5 686 c 128,-1,3
 672 690 672 690 693 690 c 2,4,-1
 886 690 l 2,5,6
 898 690 898 690 904 689 c 0,7,8
 911 688 911 688 917 683 c 0,9,10
 924 677 924 677 924 667 c 0,11,12
 924 647 924 647 900 645 c 0,13,14
 877 643 877 643 863 636 c 0,15,16
 850 629 850 629 845 617 c 128,-1,17
 840 605 840 605 838.5 598 c 128,-1,18
 837 591 837 591 837 579 c 2,19,-1
 837 106 l 2,20,21
 837 93 837 93 838 86 c 128,-1,22
 839 79 839 79 846 67 c 0,23,24
 852 56 852 56 867 49 c 0,25,26
 883 42 883 42 909 40 c 0,27,-1
 910 40 l 2,28,29
 930 37 930 37 930 18 c 0,30,31
 930 3 930 3 919 -2 c 0,32,33
 910 -5 910 -5 892 -5 c 2,34,-1
 625 -5 l 2,35,36
 613 -5 613 -5 607 -4 c 0,37,38
 600 -3 600 -3 593 2 c 0,39,40
 586 8 586 8 586 18 c 0,41,42
 586 38 586 38 610 40 c 0,43,44
 633 42 633 42 647 49 c 0,45,46
 660 56 660 56 665 68 c 128,-1,47
 670 80 670 80 671.5 87 c 128,-1,48
 673 94 673 94 673 106 c 2,49,-1
 673 583 l 1,50,-1
 437 18 l 2,51,52
 428 -5 428 -5 412.5 -5 c 128,-1,53
 397 -5 397 -5 386 19 c 2,54,-1
 151 582 l 1,55,-1
 151 106 l 2,56,57
 151 93 151 93 152 86 c 128,-1,58
 153 79 153 79 160 67 c 0,59,60
 166 56 166 56 181 49 c 0,61,62
 197 42 197 42 223 40 c 0,63,-1
 224 40 l 2,64,65
 244 37 244 37 244 18 c 0,66,67
 244 3 244 3 233 -2 c 0,68,69
 224 -5 224 -5 206 -5 c 2,70,-1
 51 -5 l 2,71,72
 39 -5 39 -5 33 -4 c 0,73,74
 26 -3 26 -3 19 2 c 0,75,76
 12 8 12 8 12 18 c 0,77,78
 12 38 12 38 36 40 c 0,79,80
 59 42 59 42 73 49 c 0,81,82
 86 56 86 56 91 68 c 128,-1,83
 96 80 96 80 97.5 87 c 128,-1,84
 99 94 99 94 99 106 c 2,85,-1
 99 636 l 1,86,87
 73 645 73 645 43 645 c 0,88,89
 15 645 15 645 15 667 c 0,90,91
 15 682 15 682 26 687 c 0,92,93
 35 690 35 690 53 690 c 2,94,-1
 239 690 l 2,95,96
 261 690 261 690 267 687 c 128,-1,97
 273 684 273 684 280 667 c 2,98,-1
 466 223 l 1,0,-1
431 190 m 2,99,-1
 240 645 l 1,100,-1
 168 645 l 1,101,102
 180 631 180 631 188 610 c 2,103,-1
 412 75 l 1,104,-1
 450 167 l 1,105,106
 444 170 444 170 441 172 c 0,107,108
 437 176 437 176 431 190 c 2,99,-1
718 645 m 1,109,-1
 718 104 l 2,110,111
 718 65 718 65 701 40 c 1,112,-1
 810 40 l 1,113,114
 792 65 792 65 792 104 c 2,115,-1
 792 581 l 2,116,117
 792 620 792 620 809 645 c 1,118,-1
 718 645 l 1,109,-1
EndSplineSet
EndChar

StartChar: N
Encoding: 78 78 46
Width: 722
VWidth: 1000
Flags: W
HStem: -5 45<27.2188 96.7124 170.35 251.989> 645 45<32.0107 104.092 144 249 484.012 565.65 638.287 706.993>
VStem: 107 52<55.4438 552> 577 52<66 193 278 629.556>
LayerCount: 2
Fore
SplineSet
107 595 m 2,0,1
 107 609 107 609 109 618 c 1,2,3
 87 642 87 642 57 645 c 1,4,5
 32 652 32 652 32 667 c 128,-1,6
 32 682 32 682 43 687 c 0,7,8
 52 690 52 690 70 690 c 2,9,-1
 244 690 l 2,10,11
 263 690 263 690 269 688 c 0,12,13
 276 685 276 685 284 674 c 2,14,-1
 577 278 l 1,15,-1
 577 576 l 2,16,17
 577 616 577 616 566 630 c 128,-1,18
 555 644 555 644 518 645 c 0,19,20
 484 645 484 645 484 667 c 0,21,22
 484 683 484 683 496 687 c 0,23,24
 505 690 505 690 523 690 c 2,25,-1
 669 690 l 2,26,27
 681 690 681 690 687 689 c 0,28,29
 694 688 694 688 700 683 c 0,30,31
 707 677 707 677 707 667 c 0,32,33
 707 645 707 645 679 645 c 0,34,35
 647 644 647 644 638 632 c 128,-1,36
 629 620 629 620 629 579 c 2,37,-1
 629 14 l 2,38,39
 629 -24 629 -24 607 -24 c 0,40,41
 594 -24 594 -24 582 -7 c 2,42,-1
 159 552 l 1,43,-1
 159 109 l 2,44,45
 159 69 159 69 170 55 c 128,-1,46
 181 41 181 41 217 40 c 0,47,48
 252 40 252 40 252 18 c 0,49,50
 252 3 252 3 241 -2 c 0,51,52
 232 -5 232 -5 214 -5 c 2,53,-1
 59 -5 l 2,54,55
 47 -5 47 -5 41 -4 c 0,56,57
 34 -3 34 -3 27 2 c 0,58,59
 20 8 20 8 20 18 c 0,60,61
 20 40 20 40 53 40 c 0,62,63
 88 41 88 41 97 54 c 0,64,65
 107 67 107 67 107 107 c 2,66,-1
 107 595 l 2,0,1
584 66 m 1,67,-1
 584 193 l 1,68,-1
 249 645 l 1,69,-1
 144 645 l 1,70,71
 149 639 149 639 158 629 c 0,72,-1
 584 66 l 1,67,-1
EndSplineSet
EndChar

StartChar: O
Encoding: 79 79 47
Width: 777
VWidth: 1000
Flags: W
HStem: -24 45<312.27 466.327> 664 45<311.673 465.746>
VStem: 28 45<207.668 474.722> 169 45<160.291 525.697> 564 45<159.602 523.451> 705 45<210.278 476.042>
LayerCount: 2
Fore
SplineSet
750 342 m 0,0,1
 750 252 750 252 720 180.5 c 128,-1,2
 690 109 690 109 639 65 c 128,-1,3
 588 21 588 21 524 -1.5 c 128,-1,4
 460 -24 460 -24 389 -24 c 0,5,6
 333 -24 333 -24 281.5 -11 c 128,-1,7
 230 2 230 2 184 31.5 c 128,-1,8
 138 61 138 61 103.5 103.5 c 128,-1,9
 69 146 69 146 48.5 207.5 c 128,-1,10
 28 269 28 269 28 343 c 0,11,12
 28 433 28 433 58 504.5 c 128,-1,13
 88 576 88 576 139 620 c 128,-1,14
 190 664 190 664 254 686.5 c 128,-1,15
 318 709 318 709 389 709 c 0,16,17
 445 709 445 709 496.5 696 c 128,-1,18
 548 683 548 683 594 653.5 c 128,-1,19
 640 624 640 624 674.5 581.5 c 128,-1,20
 709 539 709 539 729.5 477.5 c 128,-1,21
 750 416 750 416 750 342 c 0,0,1
237 631 m 1,22,23
 224 625 224 625 211 618 c 0,24,25
 191 606 191 606 165 582 c 128,-1,26
 139 558 139 558 119.5 527 c 128,-1,27
 100 496 100 496 86.5 447.5 c 128,-1,28
 73 399 73 399 73 342 c 0,29,30
 73 274 73 274 91 219.5 c 128,-1,31
 109 165 109 165 139 131 c 128,-1,32
 169 97 169 97 196 78 c 0,33,34
 215 64 215 64 236 54 c 1,35,36
 169 149 169 149 169 343.5 c 128,-1,37
 169 538 169 538 237 631 c 1,22,23
541 632 m 1,38,39
 609 539 609 539 609 342 c 0,40,41
 609 148 609 148 541 54 c 1,42,43
 554 60 554 60 566 66 c 0,44,45
 586 78 586 78 612.5 102.5 c 128,-1,46
 639 127 639 127 658.5 158 c 128,-1,47
 678 189 678 189 691.5 237.5 c 128,-1,48
 705 286 705 286 705 343 c 0,49,50
 705 397 705 397 692.5 444.5 c 128,-1,51
 680 492 680 492 661 523 c 128,-1,52
 642 554 642 554 617 578.5 c 128,-1,53
 592 603 592 603 570 616 c 0,54,55
 556 625 556 625 541 632 c 1,38,39
389 21 m 128,-1,57
 433 21 433 21 466 43 c 128,-1,58
 499 65 499 65 517 98 c 128,-1,59
 535 131 535 131 547 178 c 0,60,61
 558 225 558 225 561 262 c 0,62,63
 564 300 564 300 564 343 c 0,64,65
 564 384 564 384 561 421 c 128,-1,66
 558 458 558 458 547 505 c 128,-1,67
 536 552 536 552 518 586 c 0,68,69
 500 619 500 619 467 641 c 0,70,71
 434 664 434 664 389.5 664 c 128,-1,72
 345 664 345 664 312 642 c 128,-1,73
 279 620 279 620 261 587 c 128,-1,74
 243 554 243 554 231 507 c 0,75,76
 220 460 220 460 217 422.5 c 128,-1,77
 214 385 214 385 214 342 c 0,78,79
 214 301 214 301 217 264 c 128,-1,80
 220 227 220 227 231 180 c 128,-1,81
 242 133 242 133 260 99 c 0,82,83
 278 66 278 66 311 44 c 0,84,56
 345 21 345 21 389 21 c 128,-1,57
EndSplineSet
EndChar

StartChar: P
Encoding: 80 80 48
Width: 611
VWidth: 1000
Flags: W
HStem: -5 45<18.2188 86.2589 133 228 275.258 355.989> 302 46<267 389.529> 645 45<11.0107 86.2587 133 231 270.363 392.125>
VStem: 94 45<48.2568 636.743> 222 45<48.2568 303 348 639.981> 422 45<381.687 614.643> 559 45<423.478 573.733>
LayerCount: 2
Fore
SplineSet
267 303 m 1,0,-1
 267 92 l 2,1,2
 267 56 267 56 275 48 c 128,-1,3
 283 40 283 40 323 40 c 0,4,5
 356 40 356 40 356 18 c 0,6,7
 356 3 356 3 345 -2 c 0,8,9
 336 -5 336 -5 318 -5 c 2,10,-1
 50 -5 l 2,11,12
 38 -5 38 -5 32 -4 c 0,13,14
 25 -3 25 -3 18 2 c 0,15,16
 11 8 11 8 11 18 c 0,17,18
 11 40 11 40 44 40 c 0,19,20
 79 40 79 40 86.5 48 c 128,-1,21
 94 56 94 56 94 92 c 2,22,-1
 94 593 l 2,23,24
 94 629 94 629 86.5 637 c 128,-1,25
 79 645 79 645 43 645 c 0,26,27
 11 645 11 645 11 667 c 0,28,29
 11 682 11 682 22 687 c 0,30,31
 31 690 31 690 50 690 c 2,32,-1
 342 690 l 2,33,34
 394 690 394 690 438.5 680 c 128,-1,35
 483 670 483 670 521 649 c 0,36,37
 560 628 560 628 582 588.5 c 128,-1,38
 604 549 604 549 604 497 c 0,39,40
 604 415 604 415 535 358 c 0,41,42
 466 302 466 302 323 302 c 2,43,-1
 288 302 l 1,44,-1
 287 302 l 1,45,46
 283 303 283 303 267 303 c 1,0,-1
439 361 m 1,47,48
 559 396 559 396 559 497 c 0,49,50
 559 601 559 601 442 633 c 1,51,52
 467 587 467 587 467 498 c 128,-1,53
 467 409 467 409 439 361 c 1,47,48
267 596 m 2,54,-1
 267 348 l 1,55,-1
 312 348 l 2,56,57
 338 348 338 348 355 352 c 0,58,59
 371 356 371 356 389 370 c 0,60,61
 406 383 406 383 414 415 c 128,-1,62
 422 447 422 447 422 498 c 0,63,64
 422 586 422 586 399 616 c 0,65,66
 377 645 377 645 322 645 c 0,67,68
 302 645 302 645 289 640 c 0,69,70
 277 636 277 636 273 628 c 0,71,72
 268 619 268 619 268 613 c 0,73,74
 267 607 267 607 267 596 c 2,54,-1
133 40 m 1,75,-1
 228 40 l 1,76,77
 222 59 222 59 222 90 c 2,78,-1
 222 599 l 2,79,80
 222 628 222 628 231 645 c 1,81,-1
 133 645 l 1,82,83
 139 626 139 626 139 595 c 2,84,-1
 139 90 l 2,85,86
 139 59 139 59 133 40 c 1,75,-1
EndSplineSet
EndChar

StartChar: Q
Encoding: 81 81 49
Width: 777
VWidth: 1000
Flags: W
HStem: -184 45<442.488 556.996> -154 51<650.813 736.227> -24 45<333.505 446.198> 664 45<311.673 465.746>
VStem: 28 45<207.881 474.722> 169 45<160.291 525.697> 564 45<159.602 523.451> 705 45<210.388 476.042>
LayerCount: 2
Fore
SplineSet
485 -13 m 1,0,1
 505 -52 505 -52 545 -81 c 0,2,3
 588 -112 588 -112 650 -112 c 0,4,5
 676 -112 676 -112 704 -105 c 0,6,7
 712 -103 712 -103 715 -103 c 0,8,9
 737 -103 737 -103 737 -126 c 0,10,11
 737 -136 737 -136 729 -142 c 0,12,13
 722 -147 722 -147 706 -154 c 0,14,15
 627 -184 627 -184 547 -184 c 0,16,17
 454 -184 454 -184 382 -135 c 0,18,19
 311 -87 311 -87 275 -8 c 1,20,21
 228 4 228 4 188 29 c 0,22,23
 146 55 146 55 109 97 c 128,-1,24
 72 139 72 139 50 202 c 128,-1,25
 28 265 28 265 28 343 c 0,26,27
 28 433 28 433 58 504.5 c 128,-1,28
 88 576 88 576 139 620 c 128,-1,29
 190 664 190 664 254 686.5 c 128,-1,30
 318 709 318 709 389 709 c 0,31,32
 445 709 445 709 496.5 696 c 128,-1,33
 548 683 548 683 594 653.5 c 128,-1,34
 640 624 640 624 674.5 581.5 c 128,-1,35
 709 539 709 539 729.5 477.5 c 128,-1,36
 750 416 750 416 750 342 c 0,37,38
 750 192 750 192 673 101 c 0,39,40
 598 13 598 13 485 -13 c 1,0,1
237 631 m 1,41,42
 224 625 224 625 211 618 c 0,43,44
 191 606 191 606 165 582 c 128,-1,45
 139 558 139 558 119.5 527 c 128,-1,46
 100 496 100 496 86.5 447.5 c 128,-1,47
 73 399 73 399 73 342 c 0,48,49
 73 274 73 274 91 219.5 c 128,-1,50
 109 165 109 165 139 131 c 128,-1,51
 169 97 169 97 196 78 c 0,52,53
 215 64 215 64 236 54 c 1,54,55
 169 149 169 149 169 343.5 c 128,-1,56
 169 538 169 538 237 631 c 1,41,42
541 632 m 1,57,58
 609 539 609 539 609 342 c 0,59,60
 609 148 609 148 541 54 c 1,61,62
 554 60 554 60 566 66 c 0,63,64
 586 78 586 78 612.5 102.5 c 128,-1,65
 639 127 639 127 658.5 158 c 128,-1,66
 678 189 678 189 691.5 237.5 c 128,-1,67
 705 286 705 286 705 343 c 0,68,69
 705 397 705 397 692.5 444.5 c 128,-1,70
 680 492 680 492 661 523 c 128,-1,71
 642 554 642 554 617 578.5 c 128,-1,72
 592 603 592 603 570 616 c 0,73,74
 556 625 556 625 541 632 c 1,57,58
389 21 m 128,-1,76
 433 21 433 21 466 43 c 128,-1,77
 499 65 499 65 517 98 c 128,-1,78
 535 131 535 131 547 178 c 0,79,80
 558 225 558 225 561 262 c 0,81,82
 564 300 564 300 564 343 c 0,83,84
 564 384 564 384 561 421 c 128,-1,85
 558 458 558 458 547 505 c 128,-1,86
 536 552 536 552 518 586 c 0,87,88
 500 619 500 619 467 641 c 0,89,90
 434 664 434 664 389.5 664 c 128,-1,91
 345 664 345 664 312 642 c 128,-1,92
 279 620 279 620 261 587 c 128,-1,93
 243 554 243 554 231 507 c 0,94,95
 220 460 220 460 217 422.5 c 128,-1,96
 214 385 214 385 214 342 c 0,97,98
 214 301 214 301 217 264 c 128,-1,99
 220 227 220 227 231 180 c 128,-1,100
 242 133 242 133 260 99 c 0,101,102
 278 66 278 66 311 44 c 0,103,75
 345 21 345 21 389 21 c 128,-1,76
333 -21 m 1,104,105
 368 -78 368 -78 422 -107 c 0,106,107
 481 -139 481 -139 547 -139 c 0,108,109
 553 -139 553 -139 559 -139 c 1,110,111
 477 -103 477 -103 440 -21 c 1,112,113
 413 -24 413 -24 389 -24 c 0,114,115
 358 -24 358 -24 333 -21 c 1,104,105
EndSplineSet
EndChar

StartChar: R
Encoding: 82 82 50
Width: 722
VWidth: 1000
Flags: W
HStem: -5 45<18.2188 91.2267 139 234 281.258 361.989 528 610 653.371 707.989> 309 45<273 301 353.218 412.127> 645 45<11.0107 91.2267 139 237 277.266 411.997>
VStem: 100 45<48.2568 636.743> 228 45<48.2568 309 354 639.395> 452 45<389.239 604.031> 589 45<423.052 570.185>
LayerCount: 2
Fore
SplineSet
273 309 m 1,0,-1
 273 92 l 2,1,2
 273 56 273 56 281 48 c 128,-1,3
 289 40 289 40 329 40 c 0,4,5
 362 40 362 40 362 18 c 0,6,7
 362 3 362 3 351 -2 c 0,8,9
 342 -5 342 -5 324 -5 c 2,10,-1
 50 -5 l 2,11,12
 38 -5 38 -5 32 -4 c 0,13,14
 25 -3 25 -3 18 2 c 0,15,16
 11 8 11 8 11 18 c 0,17,18
 11 40 11 40 43 40 c 0,19,20
 83 40 83 40 91.5 48 c 128,-1,21
 100 56 100 56 100 92 c 2,22,-1
 100 593 l 2,23,24
 100 629 100 629 91.5 637 c 128,-1,25
 83 645 83 645 43 645 c 0,26,27
 11 645 11 645 11 667 c 0,28,29
 11 682 11 682 22 687 c 0,30,31
 31 690 31 690 50 690 c 2,32,-1
 364 690 l 2,33,34
 412 690 412 690 457 680 c 128,-1,35
 502 670 502 670 542 648 c 0,36,37
 583 626 583 626 608.5 587.5 c 128,-1,38
 634 549 634 549 634 498 c 0,39,40
 634 415 634 415 584 374 c 0,41,42
 537 336 537 336 462 321 c 1,43,44
 500 261 500 261 582 144 c 1,45,46
 655 48 655 48 689 40 c 0,47,48
 708 36 708 36 708 18 c 0,49,50
 708 3 708 3 697 -2 c 0,51,52
 688 -5 688 -5 670 -5 c 2,53,-1
 532 -5 l 2,54,55
 513 -5 513 -5 508 -3 c 0,56,57
 501 -1 501 -1 495 10 c 0,58,59
 487 22 487 22 450 79 c 2,60,-1
 301 309 l 1,61,-1
 273 309 l 1,0,-1
472 370 m 1,62,63
 534 383 534 383 560 414 c 0,64,65
 589 447 589 447 589 498 c 0,66,67
 589 532 589 532 574.5 558 c 128,-1,68
 560 584 560 584 536 599 c 0,69,70
 511 614 511 614 493 622 c 0,71,72
 480 627 480 627 466 631 c 1,73,74
 497 581 497 581 497 497 c 128,-1,75
 497 413 497 413 472 370 c 1,62,63
273 596 m 2,76,-1
 273 354 l 1,77,78
 387 355 387 355 419.5 379 c 128,-1,79
 452 403 452 403 452 497 c 0,80,81
 452 581 452 581 423 613 c 128,-1,82
 394 645 394 645 330 645 c 0,83,84
 309 645 309 645 296 640 c 0,85,86
 284 636 284 636 280 628 c 0,87,88
 275 619 275 619 274 613 c 128,-1,89
 273 607 273 607 273 596 c 2,76,-1
139 40 m 1,90,-1
 234 40 l 1,91,92
 228 59 228 59 228 90 c 2,93,-1
 228 599 l 2,94,95
 228 628 228 628 237 645 c 1,96,-1
 139 645 l 1,97,98
 145 626 145 626 145 595 c 2,99,-1
 145 90 l 2,100,101
 145 59 145 59 139 40 c 1,90,-1
353 310 m 1,102,-1
 528 40 l 1,103,-1
 610 40 l 1,104,105
 537 117 537 117 413 315 c 1,106,107
 385 311 385 311 364 311 c 0,108,109
 360 311 360 311 353 310 c 1,102,-1
EndSplineSet
EndChar

StartChar: S
Encoding: 83 83 51
Width: 555
VWidth: 1000
Flags: W
HStem: -17 45<187.14 354.418> 664 45<187.566 332.627>
VStem: 24 45<430.859 594.152> 32 45<49 90 139.335 237.781> 108 45<517.164 625.573> 389 45<71.7292 199.758> 442 45<481.009 559.107 606 642> 490 45<113.656 272.979>
LayerCount: 2
Fore
SplineSet
77 90 m 1,0,-1
 77 49 l 1,1,2
 90 54 90 54 107 56 c 1,3,4
 97 66 97 66 90 74 c 0,5,6
 82 83 82 83 77 90 c 1,0,-1
74 -6 m 1,7,8
 65 -17 65 -17 55 -17 c 0,9,10
 40 -17 40 -17 35 -6 c 0,11,12
 32 3 32 3 32 21 c 2,13,-1
 32 207 l 2,14,15
 32 218 32 218 33 224 c 0,16,17
 34 231 34 231 39 238 c 0,18,19
 45 245 45 245 55 245 c 0,20,21
 64 245 64 245 70.5 238.5 c 128,-1,22
 77 232 77 232 77 223 c 0,23,24
 77 151 77 151 137 90 c 0,25,26
 198 28 198 28 264 28 c 0,27,28
 333 28 333 28 361 54.5 c 128,-1,29
 389 81 389 81 389 135 c 0,30,31
 389 160 389 160 377 183 c 0,32,33
 364 206 364 206 349 221 c 128,-1,34
 334 236 334 236 304 254 c 128,-1,35
 274 272 274 272 258 279 c 0,36,37
 241 287 241 287 208 301 c 0,38,39
 101 346 101 346 63 396 c 0,40,41
 24 445 24 445 24 504 c 0,42,43
 24 603 24 603 87 656 c 0,44,45
 149 709 149 709 256 709 c 0,46,47
 299 709 299 709 343 693 c 1,48,49
 378 681 378 681 401 681 c 0,50,51
 427 681 427 681 445 700 c 2,52,-1
 446 700 l 1,53,54
 459 709 459 709 465 709 c 0,55,56
 487 709 487 709 487 671 c 2,57,-1
 487 519 l 2,58,59
 487 481 487 481 465 481 c 0,60,61
 456 481 456 481 451 486 c 0,62,63
 447 490 447 490 445 495 c 0,64,65
 443 499 443 499 441 509 c 0,66,67
 427 569 427 569 369 616.5 c 128,-1,68
 311 664 311 664 258 664 c 0,69,70
 209 664 209 664 181 636 c 128,-1,71
 153 608 153 608 153 567 c 0,72,73
 153 548 153 548 165 531 c 0,74,75
 177 513 177 513 191 500.5 c 128,-1,76
 205 488 205 488 235 472 c 128,-1,77
 265 456 265 456 282.5 449 c 128,-1,78
 300 442 300 442 338 427 c 0,79,80
 440 387 440 387 487 325 c 0,81,82
 535 263 535 263 535 192 c 0,83,84
 535 94 535 94 456 38 c 0,85,86
 378 -17 378 -17 263 -17 c 0,87,88
 217 -17 217 -17 175 -2 c 0,89,90
 147 11 147 11 118 11 c 0,91,92
 92 11 92 11 74 -6 c 1,7,8
442 606 m 1,93,-1
 442 642 l 1,94,95
 432 638 432 638 414 637 c 1,96,97
 432 618 432 618 442 606 c 1,93,-1
424 71 m 1,98,99
 490 113 490 113 490 192 c 0,100,101
 490 257 490 257 436 316 c 1,102,103
 399 354 399 354 311 389 c 0,104,105
 267 407 267 407 240 420 c 128,-1,106
 213 433 213 433 178 455 c 0,107,108
 143 478 143 478 126 505 c 0,109,110
 108 533 108 533 108 567 c 0,111,112
 108 599 108 599 120 626 c 1,113,114
 69 588 69 588 69 504 c 0,115,116
 69 471 69 471 82.5 445 c 128,-1,117
 96 419 96 419 124 399 c 0,118,119
 153 378 153 378 179 364 c 0,120,121
 205 351 205 351 249 333 c 0,122,123
 284 318 284 318 311.5 302.5 c 128,-1,124
 339 287 339 287 369 263 c 0,125,126
 400 239 400 239 417 206 c 128,-1,127
 434 173 434 173 434 135 c 0,128,129
 434 99 434 99 424 71 c 1,98,99
EndSplineSet
EndChar

StartChar: T
Encoding: 84 84 52
Width: 666
VWidth: 1000
Flags: W
HStem: -5 45<157.219 237.71 286 381 429.29 516.989> 645 45<73 111 162.858 247 292 375 420 506.303 555 595>
VStem: 28 45<475.009 566.797 611 645> 247 45<48.2571 644> 375 45<48.2571 644> 595 45<483.25 564.219 611 645>
LayerCount: 2
Fore
SplineSet
73 500 m 1,0,1
 73 475 73 475 50 475 c 0,2,3
 28 475 28 475 28 512 c 2,4,-1
 28 653 l 2,5,6
 28 678 28 678 35 684 c 0,7,8
 41 690 41 690 66 690 c 2,9,-1
 601 690 l 2,10,11
 626 690 626 690 633 684 c 128,-1,12
 640 678 640 678 640 649 c 2,13,-1
 640 516 l 2,14,15
 640 504 640 504 639 498 c 0,16,17
 638 491 638 491 634 483 c 0,18,19
 628 475 628 475 617 475 c 0,20,21
 596 475 596 475 594 510 c 0,22,23
 590 554 590 554 546 596 c 0,24,25
 503 637 503 637 420 644 c 1,26,-1
 420 93 l 2,27,28
 420 56 420 56 429 48 c 128,-1,29
 438 40 438 40 484 40 c 0,30,31
 517 40 517 40 517 18 c 0,32,33
 517 3 517 3 506 -2 c 0,34,35
 497 -5 497 -5 479 -5 c 2,36,-1
 189 -5 l 2,37,38
 177 -5 177 -5 171 -4 c 0,39,40
 164 -3 164 -3 157 2 c 0,41,42
 150 8 150 8 150 18 c 0,43,44
 150 40 150 40 185 40 c 0,45,46
 229 40 229 40 238 48 c 128,-1,47
 247 56 247 56 247 93 c 2,48,-1
 247 644 l 1,49,50
 173 638 173 638 125 599 c 0,51,52
 76 560 76 560 73 500 c 1,0,1
73 645 m 1,53,-1
 73 611 l 1,54,55
 90 630 90 630 111 645 c 1,56,-1
 73 645 l 1,53,-1
595 645 m 1,57,-1
 555 645 l 1,58,59
 578 629 578 629 595 611 c 1,60,-1
 595 645 l 1,57,-1
286 40 m 1,61,-1
 381 40 l 1,62,63
 375 59 375 59 375 91 c 2,64,-1
 375 645 l 1,65,-1
 292 645 l 1,66,-1
 292 91 l 2,67,68
 292 59 292 59 286 40 c 1,61,-1
EndSplineSet
EndChar

StartChar: U
Encoding: 85 85 53
Width: 722
VWidth: 1000
Flags: W
HStem: -24 52<272.96 484.573> 645 45<11.0107 84.6809 133 224 271.258 355.991 485.011 547.534 587 611 650.988 712.993>
VStem: 94 45<116.961 638.839> 218 45<87.25 636.228> 573 52<126.802 617.75>
LayerCount: 2
Fore
SplineSet
514 645 m 1,0,1
 485 647 485 647 485 667 c 0,2,3
 485 682 485 682 496 687 c 0,4,5
 505 690 505 690 524 690 c 2,6,-1
 675 690 l 2,7,8
 687 690 687 690 693 689 c 0,9,10
 700 688 700 688 706 683 c 0,11,12
 713 677 713 677 713 667 c 0,13,14
 713 647 713 647 686 645 c 0,15,16
 669 643 669 643 658 631 c 0,17,18
 646 618 646 618 639 604 c 0,19,20
 633 589 633 589 629 563 c 0,21,22
 626 537 626 537 625.5 521.5 c 128,-1,23
 625 506 625 506 625 480 c 2,24,-1
 625 275 l 2,25,26
 625 250 625 250 624 234 c 128,-1,27
 623 218 623 218 619 183 c 0,28,29
 614 148 614 148 604.5 124.5 c 128,-1,30
 595 101 595 101 576 71 c 0,31,32
 556 41 556 41 528.5 21.5 c 128,-1,33
 501 2 501 2 458 -11 c 128,-1,34
 415 -24 415 -24 360 -24 c 0,35,36
 238 -24 238 -24 170 35 c 0,37,38
 143 58 143 58 126 86 c 128,-1,39
 109 114 109 114 103 146 c 0,40,41
 97 177 97 177 95.5 195 c 128,-1,42
 94 213 94 213 94 239 c 2,43,-1
 94 608 l 2,44,45
 94 634 94 634 85 639 c 0,46,47
 75 644 75 644 38 645 c 0,48,49
 11 645 11 645 11 667 c 0,50,51
 11 682 11 682 22 687 c 0,52,53
 31 690 31 690 50 690 c 2,54,-1
 318 690 l 2,55,56
 330 690 330 690 336 689 c 0,57,58
 343 688 343 688 349 683 c 0,59,60
 356 677 356 677 356 667 c 0,61,62
 356 645 356 645 320 645 c 0,63,64
 279 645 279 645 271 636.5 c 128,-1,65
 263 628 263 628 263 593 c 2,66,-1
 263 218 l 2,67,68
 263 157 263 157 274 116 c 0,69,70
 285 76 285 76 304 59 c 0,71,72
 324 41 324 41 343 34 c 0,73,74
 363 28 363 28 390 28 c 0,75,76
 488 28 488 28 530 89 c 0,77,78
 573 151 573 151 573 250 c 2,79,-1
 573 515 l 2,80,81
 573 568 573 568 557 606 c 0,82,83
 542 641 542 641 514 645 c 1,0,1
611 645 m 1,84,-1
 587 645 l 1,85,86
 594 635 594 635 599 624 c 1,87,88
 604 635 604 635 611 645 c 1,84,-1
218 216 m 2,89,-1
 218 595 l 2,90,91
 218 626 218 626 224 645 c 1,92,-1
 133 645 l 1,93,94
 134 643 134 643 134 640 c 2,95,-1
 138 626 l 1,96,-1
 138 625 l 2,97,98
 139 612 139 612 139 552 c 2,99,-1
 139 273 l 2,100,101
 139 210 139 210 140 198 c 0,102,103
 151 68 151 68 265 34 c 1,104,105
 218 93 218 93 218 216 c 2,89,-1
EndSplineSet
EndChar

StartChar: V
Encoding: 86 86 54
Width: 722
VWidth: 1000
Flags: W
HStem: 645 45<-3.98926 54.6134 96 216 260.22 333.993 499.283 540.885 581 616 656.856 724.993>
VStem: 209 46<533.157 619> 545 45<589 643.096>
LayerCount: 2
Fore
SplineSet
74 593 m 1,0,-1
 71 597 l 2,1,2
 68 602 68 602 66 607 c 0,3,4
 63 612 63 612 57.5 619 c 128,-1,5
 52 626 52 626 47 631 c 128,-1,6
 42 636 42 636 35 640 c 128,-1,7
 28 644 28 644 21 645 c 0,8,9
 -4 649 -4 649 -4 667 c 0,10,11
 -4 682 -4 682 7 687 c 0,12,13
 16 690 16 690 34 690 c 2,14,-1
 296 690 l 2,15,16
 308 690 308 690 314 689 c 0,17,18
 321 688 321 688 327 683 c 0,19,20
 334 677 334 677 334 667 c 0,21,22
 334 646 334 646 310 645 c 0,23,24
 294 644 294 644 280.5 638 c 128,-1,25
 267 632 267 632 260 626 c 1,26,-1
 255 619 l 1,27,28
 255 578 255 578 321 422 c 0,29,30
 383 275 383 275 421 197 c 1,31,32
 484 357 484 357 496 392 c 0,33,34
 545 529 545 529 545 592 c 0,35,36
 545 615 545 615 539 627 c 128,-1,37
 533 639 533 639 528 641 c 0,38,39
 522 644 522 644 514 645 c 2,40,-1
 513 645 l 1,41,42
 488 650 488 650 488 667 c 0,43,44
 488 682 488 682 499 687 c 0,45,46
 508 690 508 690 526 690 c 2,47,-1
 687 690 l 2,48,49
 699 690 699 690 705 689 c 0,50,51
 712 688 712 688 718 683 c 0,52,53
 725 677 725 677 725 667 c 0,54,55
 725 646 725 646 699 645 c 1,56,57
 660 641 660 641 642 597 c 2,58,-1
 393 0 l 2,59,60
 388 -14 388 -14 383 -18 c 0,61,62
 378 -24 378 -24 368 -24 c 0,63,64
 354 -24 354 -24 342 -0 c 2,65,-1
 74 593 l 1,0,-1
616 645 m 1,66,-1
 581 645 l 1,67,68
 590 625 590 625 590 592 c 2,69,-1
 590 589 l 1,70,71
 595 601 595 601 598 611 c 0,72,73
 607 632 607 632 616 645 c 1,66,-1
119 603 m 2,74,-1
 368 55 l 1,75,-1
 400 135 l 2,76,-1
 390 158 l 0,77,78
 380 180 380 180 363 217 c 128,-1,79
 346 254 346 254 325.5 300 c 128,-1,80
 305 346 305 346 284.5 395.5 c 128,-1,81
 264 445 264 445 247 488.5 c 128,-1,82
 230 532 230 532 219.5 568 c 128,-1,83
 209 604 209 604 209 620 c 0,84,85
 209 635 209 635 216 645 c 1,86,-1
 96 645 l 1,87,88
 106 631 106 631 119 603 c 2,74,-1
EndSplineSet
EndChar

StartChar: W
Encoding: 87 87 55
Width: 1000
VWidth: 1000
Flags: W
HStem: 645 45<92 194 236.002 284.781 378.012 415.811 474 587 627.503 695.993 779.011 837.124 875 909 956.251 996.993>
VStem: 191 45<523.038 642.426>
LayerCount: 2
Fore
SplineSet
670 645 m 1,0,1
 643 643 643 643 627 624 c 1,2,3
 630 570 630 570 683 420 c 0,4,5
 731 284 731 284 752 231 c 1,6,7
 781 317 781 317 796 363 c 0,8,9
 812 412 812 412 827 475 c 128,-1,10
 842 538 842 538 842 578 c 0,11,12
 842 601 842 601 839 616 c 0,13,14
 836 630 836 630 829 635 c 0,15,16
 821 641 821 641 816 642.5 c 128,-1,17
 811 644 811 644 799 645 c 0,18,19
 779 648 779 648 779 667 c 0,20,21
 779 682 779 682 790 687 c 0,22,23
 799 690 799 690 817 690 c 2,24,-1
 959 690 l 2,25,26
 971 690 971 690 977 689 c 0,27,28
 984 688 984 688 990 683 c 0,29,30
 997 677 997 677 997 667 c 0,31,32
 997 649 997 649 976 645 c 0,33,34
 964 643 964 643 956 635 c 0,35,36
 948 626 948 626 939 601 c 2,37,-1
 725 2 l 2,38,39
 721 -12 721 -12 716 -17 c 0,40,41
 710 -24 710 -24 700 -24 c 128,-1,42
 690 -24 690 -24 684 -17 c 0,43,44
 679 -11 679 -11 674 3 c 2,45,-1
 513 430 l 1,46,-1
 325 -1 l 2,47,48
 320 -14 320 -14 315 -18 c 0,49,50
 310 -24 310 -24 300 -24 c 128,-1,51
 290 -24 290 -24 284 -17 c 0,52,53
 279 -11 279 -11 275 2 c 2,54,-1
 61 603 l 2,55,56
 47 642 47 642 26 645 c 0,57,58
 3 650 3 650 3 667 c 0,59,60
 3 682 3 682 14 687 c 0,61,62
 23 690 23 690 41 690 c 2,63,-1
 253 690 l 2,64,65
 265 690 265 690 271 689 c 0,66,67
 278 688 278 688 285 683 c 0,68,69
 292 677 292 677 292 667 c 0,70,71
 292 646 292 646 268 645 c 1,72,73
 256 643 256 643 246 636 c 128,-1,74
 236 629 236 629 236 624 c 0,75,76
 236 581 236 581 298 399 c 1,77,-1
 365 207 l 1,78,-1
 489 492 l 1,79,80
 466 557 466 557 451 590 c 0,81,82
 441 614 441 614 431 627 c 0,83,84
 421 639 421 639 416 641 c 0,85,86
 410 643 410 643 398 645 c 0,87,88
 378 649 378 649 378 667 c 0,89,90
 378 683 378 683 390 687 c 0,91,92
 399 690 399 690 417 690 c 2,93,-1
 658 690 l 2,94,95
 670 690 670 690 676 689 c 0,96,97
 683 688 683 688 689 683 c 0,98,99
 696 677 696 677 696 667 c 0,100,101
 696 645 696 645 670 645 c 1,0,1
909 645 m 1,102,-1
 875 645 l 1,103,104
 884 624 884 624 886 589 c 1,105,106
 902 630 902 630 909 645 c 1,102,-1
496 603 m 2,107,-1
 700 64 l 1,108,109
 710 92 710 92 733 157 c 1,110,111
 715 201 715 201 685 279 c 0,112,113
 655 359 655 359 619 471 c 0,114,115
 582 584 582 584 582 620 c 0,116,117
 582 635 582 635 587 645 c 1,118,-1
 474 645 l 1,119,120
 485 628 485 628 496 603 c 2,107,-1
108 606 m 1,121,-1
 302 61 l 1,122,-1
 339 146 l 2,123,-1
 331 168 l 0,124,125
 323 190 323 190 310 225.5 c 128,-1,126
 297 261 297 261 281 305.5 c 128,-1,127
 265 350 265 350 249.5 398.5 c 128,-1,128
 234 447 234 447 220.5 490.5 c 128,-1,129
 207 534 207 534 199 570.5 c 128,-1,130
 191 607 191 607 191 625 c 0,131,132
 191 636 191 636 194 645 c 1,133,-1
 92 645 l 1,134,135
 102 626 102 626 108 606 c 1,121,-1
EndSplineSet
EndChar

StartChar: X
Encoding: 88 88 56
Width: 722
VWidth: 1000
Flags: W
HStem: -5 45<124 168 367.008 453.371 500 616 667.252 709.989> 645 45<18.0107 79.5757 119 232 279.595 350.993 421.011 471.973 511 554 603.401 696.993>
VStem: 159 44<44.2727 74> 475 222<595.5 672>
LayerCount: 2
Fore
SplineSet
236 40 m 0,0,1
 262 36 262 36 262 18 c 0,2,3
 262 2 262 2 250 -2 c 0,4,5
 241 -5 241 -5 223 -5 c 2,6,-1
 52 -5 l 2,7,8
 40 -5 40 -5 34 -4 c 0,9,10
 27 -3 27 -3 21 2 c 0,11,12
 14 8 14 8 14 18 c 0,13,14
 14 35 14 35 39 40 c 0,15,16
 57 44 57 44 82 64 c 0,17,18
 108 85 108 85 128.5 106.5 c 128,-1,19
 149 128 149 128 196 181 c 2,20,-1
 302 302 l 1,21,22
 163 517 163 517 85 616 c 0,23,24
 72 633 72 633 64.5 637.5 c 128,-1,25
 57 642 57 642 37 645 c 0,26,27
 18 649 18 649 18 667 c 0,28,29
 18 682 18 682 29 687 c 0,30,31
 38 690 38 690 56 690 c 2,32,-1
 313 690 l 2,33,34
 325 690 325 690 331 689 c 0,35,36
 338 688 338 688 344 683 c 0,37,38
 351 677 351 677 351 667 c 0,39,40
 351 645 351 645 322 645 c 0,41,42
 298 645 298 645 279 637 c 1,43,44
 295 596 295 596 385 457 c 1,45,46
 408 484 408 484 436 525 c 0,47,48
 454 548 454 548 460 557 c 128,-1,49
 466 566 466 566 470 577 c 0,50,51
 475 589 475 589 475 602 c 0,52,53
 475 642 475 642 444 645 c 0,54,55
 421 647 421 647 421 667 c 0,56,57
 421 682 421 682 432 687 c 0,58,59
 441 690 441 690 459 690 c 2,60,-1
 659 690 l 2,61,62
 671 690 671 690 677 689 c 0,63,64
 684 688 684 688 690 683 c 0,65,66
 697 677 697 677 697 667 c 0,67,68
 697 647 697 647 668 645 c 0,69,70
 631 642 631 642 597 619 c 0,71,72
 562 596 562 596 542 574 c 0,73,74
 521 551 521 551 489 508 c 2,75,-1
 439 443 l 1,76,-1
 427 427 l 2,77,78
 421 419 421 419 418 414 c 0,79,80
 417 413 417 413 415 411 c 1,81,-1
 549 213 l 2,82,83
 647 67 647 67 667 48 c 1,84,85
 675 43 675 43 690 40 c 0,86,87
 710 35 710 35 710 18 c 0,88,89
 710 3 710 3 699 -2 c 0,90,91
 690 -5 690 -5 672 -5 c 2,92,-1
 405 -5 l 2,93,94
 393 -5 393 -5 387 -4 c 0,95,96
 380 -3 380 -3 374 2 c 0,97,98
 367 8 367 8 367 18 c 0,99,100
 367 40 367 40 398 40 c 0,101,102
 434 40 434 40 454 51 c 1,103,104
 434 103 434 103 332 258 c 1,105,106
 257 176 257 176 224 135 c 1,107,108
 203 107 203 107 203 85 c 2,109,-1
 203 80 l 2,110,111
 203 78 203 78 205 70.5 c 128,-1,112
 207 63 207 63 210 57 c 0,113,114
 213 52 213 52 220 47 c 128,-1,115
 227 42 227 42 236 40 c 0,0,1
554 645 m 1,116,-1
 511 645 l 1,117,118
 518 631 518 631 520 614 c 1,119,120
 541 634 541 634 554 645 c 1,116,-1
159 74 m 1,121,-1
 124 40 l 1,122,-1
 168 40 l 1,123,124
 162 52 162 52 159 69 c 0,125,-1
 159 70 l 2,126,127
 159 71 159 71 159 74 c 1,121,-1
232 645 m 1,128,-1
 119 645 l 1,129,130
 173 576 173 576 284 410 c 0,131,132
 402 233 402 233 449 159 c 1,133,134
 501 71 501 71 501 46 c 0,135,136
 501 43 501 43 500 40 c 1,137,-1
 616 40 l 1,138,139
 568 102 568 102 463 259 c 0,140,141
 350 428 350 428 295 513 c 1,142,143
 266 561 266 561 251 589 c 128,-1,144
 236 617 236 617 234 627 c 0,145,146
 232 634 232 634 232 645 c 1,128,-1
EndSplineSet
EndChar

StartChar: Y
Encoding: 89 89 57
Width: 722
VWidth: 1000
Flags: W
HStem: -5 45<189.219 265.195 312 411 458.319 540.989> 645 45<14.0117 58.8728 112 219.731 260 311.993 478.012 543.938 585 614>
VStem: 275 45<50.8055 262> 403 45<51.3516 303>
LayerCount: 2
Fore
SplineSet
42 645 m 0,0,1
 14 645 14 645 14 667 c 0,2,3
 14 683 14 683 26 687 c 0,4,5
 35 690 35 690 53 690 c 2,6,-1
 274 690 l 2,7,8
 286 690 286 690 292 689 c 0,9,10
 299 688 299 688 305 683 c 0,11,12
 312 677 312 677 312 667 c 0,13,14
 312 645 312 645 282 645 c 0,15,16
 272 645 272 645 260 642 c 1,17,18
 265 626 265 626 271 614 c 0,19,20
 283 591 283 591 291 580 c 0,21,22
 291 579 l 2,23,-1
 422 345 l 1,24,-1
 547 546 l 2,25,26
 559 566 559 566 559 584 c 0,27,28
 559 593 559 593 555 605 c 0,29,30
 551 616 551 616 538 629 c 128,-1,31
 525 642 525 642 504 645 c 0,32,33
 478 649 478 649 478 667 c 0,34,35
 478 683 478 683 490 687 c 0,36,37
 499 690 499 690 517 690 c 2,38,-1
 670 690 l 2,39,40
 682 690 682 690 688 689 c 0,41,42
 695 688 695 688 701 683 c 0,43,44
 708 677 708 677 708 667 c 0,45,46
 708 649 708 649 685 645 c 0,47,48
 675 642 675 642 664 632 c 0,49,50
 652 621 652 621 636 599 c 0,51,52
 620 576 620 576 609 560 c 128,-1,53
 598 544 598 544 577 511 c 2,54,-1
 448 303 l 1,55,-1
 448 105 l 2,56,57
 448 62 448 62 458 51 c 128,-1,58
 468 40 468 40 506 40 c 0,59,60
 541 40 541 40 541 18 c 0,61,62
 541 3 541 3 530 -2 c 0,63,64
 521 -5 521 -5 503 -5 c 2,65,-1
 221 -5 l 2,66,67
 209 -5 209 -5 203 -4 c 0,68,69
 196 -3 196 -3 189 2 c 0,70,71
 182 8 182 8 182 18 c 0,72,73
 182 40 182 40 213 40 c 0,74,75
 256 41 256 41 265.5 50.5 c 128,-1,76
 275 60 275 60 275 105 c 2,77,-1
 275 262 l 1,78,-1
 76 616 l 2,79,80
 64 636 64 636 59 640 c 0,81,82
 55 644 55 644 42 645 c 0,0,1
614 645 m 1,83,-1
 585 645 l 1,84,85
 592 635 592 635 597 623 c 1,86,87
 602 631 602 631 614 645 c 1,83,-1
312 40 m 1,88,-1
 411 40 l 1,89,90
 403 63 403 63 403 103 c 2,91,-1
 403 289 l 1,92,93
 391 309 391 309 270 525 c 0,94,95
 266 532 266 532 251 558 c 128,-1,96
 236 584 236 584 232 592 c 0,97,98
 217 624 217 624 215 645 c 1,99,-1
 112 645 l 1,100,-1
 320 273 l 1,101,-1
 320 103 l 2,102,103
 320 63 320 63 312 40 c 1,88,-1
EndSplineSet
EndChar

StartChar: Z
Encoding: 90 90 58
Width: 666
VWidth: 1000
Flags: W
HStem: -5 45<86 176 229 470.431 523 573.82> 645 45<117 150 206.375 404 457 547>
LayerCount: 2
Fore
SplineSet
33 39 m 2,0,-1
 404 645 l 1,1,-1
 332 645 l 2,2,3
 234 645 234 645 174 606 c 1,4,5
 113 568 113 568 102 503 c 0,6,7
 97 484 97 484 80 484 c 0,8,9
 72 484 72 484 65 490 c 0,10,11
 57 496 57 496 57 508 c 0,12,-1
 59 522 l 1,13,-1
 74 657 l 2,14,15
 76 679 76 679 82.5 684.5 c 128,-1,16
 89 690 89 690 114 690 c 2,17,-1
 572 690 l 2,18,19
 584 690 584 690 590 689 c 0,20,21
 597 688 597 688 603 683 c 0,22,23
 610 677 610 677 610 667 c 0,24,25
 610 660 610 660 600 646 c 2,26,-1
 229 40 l 1,27,-1
 362 40 l 2,28,29
 458 40 458 40 518.5 93 c 128,-1,30
 579 146 579 146 594 214 c 0,31,32
 596 226 596 226 598 231 c 0,33,34
 600 237 600 237 604 243 c 0,35,36
 609 248 609 248 619 248 c 0,37,38
 627 248 627 248 634 242 c 128,-1,39
 641 236 641 236 641 225 c 0,40,-1
 614 27 l 2,41,42
 611 5 611 5 605 0 c 128,-1,43
 599 -5 599 -5 575 -5 c 2,44,-1
 62 -5 l 2,45,46
 50 -5 50 -5 44 -4 c 0,47,48
 37 -3 37 -3 30 2 c 0,49,50
 23 8 23 8 23 18 c 0,51,52
 23 25 23 25 33 39 c 2,0,-1
117 645 m 1,53,-1
 114 617 l 1,54,55
 133 634 133 634 150 645 c 1,56,-1
 117 645 l 1,53,-1
457 645 m 1,57,-1
 86 40 l 1,58,-1
 176 40 l 1,59,-1
 547 645 l 1,60,-1
 457 645 l 1,57,-1
523 40 m 1,61,-1
 571 40 l 1,62,63
 575 71 575 71 577 86 c 1,64,65
 552 59 552 59 523 40 c 1,61,-1
EndSplineSet
EndChar

StartChar: k
Encoding: 107 107 59
Width: 555
VWidth: 1000
Flags: W
HStem: -5 45<15.0068 46.843 96 171 211.961 252.989 289.009 329.875 372.049 455> 423 45<299.011 336.997 379 401 449.178 522.993> 645 45<20.1873 55.6038 96 163>
VStem: 61 45<44.0662 644.152> 163 45<40.6902 194 257 645> 337 186<386 450>
LayerCount: 2
Fore
SplineSet
338 468 m 2,0,-1
 485 468 l 2,1,2
 497 468 497 468 503 467 c 0,3,4
 510 466 510 466 516 461 c 0,5,6
 523 455 523 455 523 445 c 0,7,8
 523 427 523 427 499 423 c 0,9,10
 461 417 461 417 383 351 c 0,11,12
 340 315 340 315 315 289 c 1,13,14
 331 268 331 268 409 170 c 0,15,16
 496 61 496 61 511 46 c 0,17,18
 514 43 514 43 523 40 c 0,19,20
 543 34 543 34 543 18 c 0,21,22
 543 3 543 3 532 -2 c 0,23,24
 523 -5 523 -5 504 -5 c 2,25,-1
 327 -5 l 2,26,27
 315 -5 315 -5 309 -4 c 0,28,29
 302 -3 302 -3 296 2 c 0,30,31
 289 8 289 8 289 18 c 0,32,33
 289 38 289 38 324 41 c 0,34,35
 326 41 326 41 330 43 c 1,36,37
 323 60 323 60 307 79 c 0,38,39
 295 95 295 95 256 144 c 0,40,41
 224 185 224 185 213 198 c 1,42,-1
 208 194 l 1,43,-1
 208 97 l 2,44,45
 208 44 208 44 232 40 c 0,46,47
 253 35 253 35 253 18 c 0,48,49
 253 3 253 3 242 -2 c 0,50,51
 233 -5 233 -5 215 -5 c 2,52,-1
 53 -5 l 2,53,54
 41 -5 41 -5 35 -4 c 0,55,56
 28 -3 28 -3 22 2 c 0,57,58
 15 8 15 8 15 18 c 0,59,60
 15 35 15 35 34 40 c 0,61,62
 42 41 42 41 47 44 c 0,63,64
 51 46 51 46 56 63 c 0,65,66
 61 81 61 81 61 114 c 2,67,-1
 61 571 l 2,68,69
 61 641 61 641 38 645 c 0,70,71
 35 645 35 645 31 646 c 0,72,73
 26 647 26 647 20 653 c 0,74,75
 15 659 15 659 15 667 c 0,76,77
 15 682 15 682 26 687 c 0,78,79
 35 690 35 690 53 690 c 2,80,-1
 169 690 l 2,81,82
 194 690 194 690 201 684 c 128,-1,83
 208 678 208 678 208 649 c 2,84,-1
 208 257 l 1,85,86
 220 267 220 267 245 290 c 0,87,88
 285 325 285 325 297 338 c 2,89,-1
 298 338 l 1,90,91
 337 372 337 372 337 400 c 0,92,93
 337 420 337 420 323 423 c 1,94,95
 299 424 299 424 299 445 c 0,96,97
 299 460 299 460 310 465 c 0,98,99
 319 468 319 468 338 468 c 2,0,-1
382 408 m 1,100,-1
 401 423 l 1,101,-1
 379 423 l 1,102,103
 381 416 381 416 382 408 c 1,100,-1
106 573 m 2,104,-1
 106 112 l 2,105,106
 106 67 106 67 96 40 c 1,107,-1
 171 40 l 1,108,109
 163 62 163 62 163 95 c 2,110,-1
 163 645 l 1,111,-1
 96 645 l 1,112,113
 106 618 106 618 106 573 c 2,104,-1
247 227 m 1,114,-1
 359 87 l 1,115,116
 375 64 375 64 377 40 c 1,117,-1
 455 40 l 1,118,-1
 280 259 l 1,119,-1
 247 227 l 1,114,-1
EndSplineSet
EndChar

StartChar: setminus
Encoding: 8726 8726 60
Width: 513
VWidth: 1000
Flags: W
VStem: 405 56<-247.265 -228>
LayerCount: 2
Fore
SplineSet
405 -228 m 2,0,1
 58 708 l 2,2,3
 52 723 52 723 52 728 c 0,4,5
 52 740 52 740 59.5 747.5 c 128,-1,6
 67 755 67 755 78 755 c 0,7,8
 95 755 95 755 101 742 c 2,9,10
 102 742 l 1,11,-1
 455 -208 l 2,12,13
 461 -223 461 -223 461 -228 c 0,14,15
 461 -240 461 -240 453 -247.5 c 128,-1,16
 445 -255 445 -255 435 -255 c 0,17,18
 414 -255 414 -255 405 -228 c 2,0,1
EndSplineSet
EndChar

StartChar: lparenbig
Encoding: 40 40 61
Width: 392
VWidth: 1548
Flags: W
VStem: 126 75<63.2853 436.891>
LayerCount: 2
Fore
SplineSet
331.814 751.854 m 0,0,1
 226.284 664.994 226.284 664.994 176.142 532.227 c 128,-1,2
 126 399.459 126 399.459 126 250 c 0,3,4
 126 101.092 126 101.092 176.189 -31.9874 c 128,-1,5
 226.379 -165.067 226.379 -165.067 331.822 -251.86 c 0,6,-1
 332.764 -252.472 l 2,7,8
 337.815 -255 337.815 -255 340 -255 c 2,9,-1
 350 -255 l 2,10,11
 363 -255 363 -255 363 -241 c 0,12,13
 363 -235.82 363 -235.82 361.472 -232.764 c 2,14,-1
 361.114 -232.047 l 1,15,-1
 360.549 -231.478 l 2,16,17
 201 -70.6635 201 -70.6635 201 250 c 128,-1,18
 201 570.664 201 570.664 360.549 731.478 c 2,19,-1
 361.114 732.047 l 1,20,-1
 361.472 732.764 l 2,21,22
 363 735.82 363 735.82 363 741 c 0,23,24
 363 755 363 755 350 755 c 2,25,-1
 340 755 l 2,26,27
 335.369 755 335.369 755 331.814 751.854 c 0,0,1
EndSplineSet
EndChar

StartChar: rparenbig
Encoding: 41 41 62
Width: 392
VWidth: 1548
Flags: W
VStem: 191 75<60.8267 443.56>
LayerCount: 2
Fore
SplineSet
61.1777 751.86 m 0,0,1
 166.576 665.098 166.576 665.098 216.288 532.461 c 128,-1,2
 266 399.824 266 399.824 266 250 c 0,3,4
 266 100.721 266 100.721 216.244 -32.227 c 128,-1,5
 166.488 -165.175 166.488 -165.175 61.1776 -251.86 c 0,6,-1
 60.2361 -252.472 l 2,7,8
 55.185 -255 55.185 -255 53 -255 c 2,9,-1
 43 -255 l 2,10,11
 30 -255 30 -255 30 -241 c 0,12,13
 30 -234.929 30 -234.929 33.4503 -231.479 c 0,14,15
 191 -71.4101 191 -71.4101 191 250 c 128,-1,16
 191 571.405 191 571.405 33.4484 731.481 c 0,17,18
 30 734.929 30 734.929 30 741 c 0,19,20
 30 755 30 755 43 755 c 2,21,-1
 53 755 l 2,22,23
 57.3658 755 57.3658 755 61.1777 751.86 c 0,0,1
EndSplineSet
EndChar

StartChar: lbracketbig
Encoding: 91 91 63
Width: 356
VWidth: 1548
Flags: W
HStem: -255 46<214 344> 709 46<214 344>
VStem: 168 176<-255 -209 709 755> 168 46<-209 709>
LayerCount: 2
Fore
SplineSet
168 -255 m 1,0,-1
 168 755 l 1,1,-1
 344 755 l 1,2,-1
 344 709 l 1,3,-1
 214 709 l 1,4,-1
 214 -209 l 1,5,-1
 344 -209 l 1,6,-1
 344 -255 l 1,7,-1
 168 -255 l 1,0,-1
EndSplineSet
EndChar

StartChar: rbracketbig
Encoding: 93 93 64
Width: 356
VWidth: 1548
Flags: W
HStem: -255 46<13 143> 709 46<13 143>
VStem: 13 176<-255 -209 709 755> 143 46<-209 709>
LayerCount: 2
Fore
SplineSet
13 -255 m 1,0,-1
 13 -209 l 1,1,-1
 143 -209 l 1,2,-1
 143 709 l 1,3,-1
 13 709 l 1,4,-1
 13 755 l 1,5,-1
 189 755 l 1,6,-1
 189 -255 l 1,7,-1
 13 -255 l 1,0,-1
EndSplineSet
EndChar

StartChar: slashbig
Encoding: 47 47 65
Width: 494
VWidth: 1548
Flags: W
LayerCount: 2
Fore
SplineSet
43 -234 m 2,0,-1
 43 -226 l 1,1,-1
 44 -224 l 1,2,3
 91 -98 91 -98 231.5 276 c 128,-1,4
 372 650 372 650 407 742 c 1,5,-1
 408 742 l 1,6,7
 413 751 413 751 424 755 c 1,8,-1
 425 755 l 1,9,-1
 433 755 l 1,10,11
 453 750 453 750 453 734 c 2,12,-1
 453 726 l 1,13,-1
 89 -242 l 1,14,-1
 88 -242 l 1,15,16
 83 -251 83 -251 72 -255 c 1,17,-1
 71 -255 l 1,18,-1
 63 -255 l 1,19,20
 43 -250 43 -250 43 -234 c 2,0,-1
EndSplineSet
EndChar

StartChar: backslashbig
Encoding: 92 92 66
Width: 494
VWidth: 1548
Flags: W
VStem: 408 45<-254.841 -242>
LayerCount: 2
Fore
SplineSet
408 -242 m 2,0,1
 412 -251 412 -251 424 -255 c 1,2,-1
 425 -255 l 1,3,-1
 433 -255 l 1,4,5
 453 -250 453 -250 453 -234 c 2,6,-1
 453 -228 l 2,7,8
 453 -224 453 -224 451 -222 c 1,9,-1
 89 742 l 1,10,-1
 88 742 l 1,11,12
 83 751 83 751 72 755 c 1,13,-1
 71 755 l 1,14,-1
 63 755 l 1,15,16
 43 750 43 750 43 734 c 2,17,-1
 43 728 l 2,18,19
 43 724 43 724 45 722 c 1,20,-1
 408 -242 l 2,0,1
EndSplineSet
EndChar

StartChar: lbracebig
Encoding: 123 123 67
Width: 499
VWidth: 1548
Flags: W
HStem: -255 36<356.359 411> 719 36<356.359 411>
VStem: 213 75<-169.5 179.272 320.728 668.516>
LayerCount: 2
Fore
SplineSet
213 -121 m 2,0,-1
 213 123 l 2,1,2
 213 152 213 152 195 174.5 c 128,-1,3
 177 197 177 197 155 207 c 128,-1,4
 133 217 133 217 113 226.5 c 128,-1,5
 93 236 93 236 90 242 c 1,6,-1
 90 243 l 1,7,-1
 90 256 l 1,8,-1
 90 257 l 1,9,10
 93 264 93 264 113.5 273.5 c 128,-1,11
 134 283 134 283 155.5 293 c 128,-1,12
 177 303 177 303 195 325.5 c 128,-1,13
 213 348 213 348 213 377 c 2,14,-1
 213 621 l 2,15,16
 213 651 213 651 230.5 675.5 c 128,-1,17
 248 700 248 700 276.5 715.5 c 128,-1,18
 305 731 305 731 331.5 740 c 128,-1,19
 358 749 358 749 386 755 c 1,20,-1
 387 755 l 1,21,-1
 397 755 l 2,22,23
 402 755 402 755 406.5 751 c 128,-1,24
 411 747 411 747 411 742 c 2,25,-1
 411 731 l 2,26,27
 411 721 411 721 400 719 c 1,28,29
 288 682 288 682 288 617 c 2,30,-1
 288 374 l 2,31,32
 288 292 288 292 162 250 c 1,33,34
 288 207 288 207 288 126 c 2,35,-1
 288 -117 l 2,36,37
 288 -184 288 -184 400 -219 c 1,38,39
 411 -221 411 -221 411 -231 c 2,40,-1
 411 -242 l 2,41,42
 411 -247 411 -247 406.5 -251 c 128,-1,43
 402 -255 402 -255 397 -255 c 2,44,-1
 386 -255 l 1,45,46
 346 -247 346 -247 311.5 -234 c 128,-1,47
 277 -221 277 -221 245 -190.5 c 128,-1,48
 213 -160 213 -160 213 -121 c 2,0,-1
EndSplineSet
EndChar

StartChar: rbracebig
Encoding: 125 125 68
Width: 499
VWidth: 1548
Flags: W
HStem: -255 36<90 144.641> 719 36<90 144.641>
VStem: 213 75<-168.516 179.311 322.352 669.5>
LayerCount: 2
Fore
SplineSet
90 -242 m 2,0,-1
 90 -231 l 2,1,2
 90 -221 90 -221 101 -219 c 1,3,4
 213 -182 213 -182 213 -117 c 2,5,-1
 213 126 l 2,6,7
 213 207 213 207 338 250 c 1,8,9
 213 292 213 292 213 374 c 2,10,-1
 213 617 l 2,11,12
 213 684 213 684 101 719 c 1,13,14
 90 721 90 721 90 731 c 2,15,-1
 90 742 l 2,16,17
 90 746 90 746 94 750.5 c 128,-1,18
 98 755 98 755 103 755 c 2,19,-1
 113 755 l 1,20,-1
 114 755 l 1,21,22
 143 749 143 749 169 740 c 128,-1,23
 195 731 195 731 224 715.5 c 128,-1,24
 253 700 253 700 270.5 675.5 c 128,-1,25
 288 651 288 651 288 621 c 2,26,-1
 288 377 l 2,27,28
 288 339 288 339 316.5 315 c 128,-1,29
 345 291 345 291 376.5 278 c 128,-1,30
 408 265 408 265 411 257 c 1,31,-1
 411 256 l 1,32,-1
 411 243 l 1,33,-1
 410 242 l 1,34,35
 407 236 407 236 386.5 226.5 c 128,-1,36
 366 217 366 217 344.5 207 c 128,-1,37
 323 197 323 197 305.5 174.5 c 128,-1,38
 288 152 288 152 288 123 c 2,39,-1
 288 -121 l 2,40,41
 288 -151 288 -151 270.5 -175.5 c 128,-1,42
 253 -200 253 -200 224 -215.5 c 128,-1,43
 195 -231 195 -231 169 -240 c 128,-1,44
 143 -249 143 -249 114 -255 c 1,45,-1
 113 -255 l 1,46,-1
 103 -255 l 2,47,48
 98 -255 98 -255 94 -250.5 c 128,-1,49
 90 -246 90 -246 90 -242 c 2,0,-1
EndSplineSet
EndChar

StartChar: lceilbig
Encoding: 8968 8968 69
Width: 404
VWidth: 1548
Flags: W
HStem: 709 46<214 392>
VStem: 168 46<-255 709>
LayerCount: 2
Fore
SplineSet
168 -255 m 1,0,-1
 168 755 l 1,1,-1
 392 755 l 1,2,-1
 392 709 l 1,3,-1
 214 709 l 1,4,-1
 214 -255 l 1,5,-1
 168 -255 l 1,0,-1
EndSplineSet
EndChar

StartChar: rceilbig
Encoding: 8969 8969 70
Width: 404
VWidth: 1548
Flags: W
HStem: 709 46<13 191>
VStem: 191 46<-255 709>
LayerCount: 2
Fore
SplineSet
191 -255 m 1,0,-1
 191 709 l 1,1,-1
 13 709 l 1,2,-1
 13 755 l 1,3,-1
 237 755 l 1,4,-1
 237 -255 l 1,5,-1
 191 -255 l 1,0,-1
EndSplineSet
EndChar

StartChar: lfloorbig
Encoding: 8970 8970 71
Width: 404
VWidth: 1548
Flags: W
HStem: -255 46<214 392>
VStem: 168 46<-209 755>
LayerCount: 2
Fore
SplineSet
168 -255 m 1,0,-1
 168 755 l 1,1,-1
 214 755 l 1,2,-1
 214 -209 l 1,3,-1
 392 -209 l 1,4,-1
 392 -255 l 1,5,-1
 168 -255 l 1,0,-1
EndSplineSet
EndChar

StartChar: rfloorbig
Encoding: 8971 8971 72
Width: 404
VWidth: 1548
Flags: W
HStem: -255 46<13 191>
VStem: 191 46<-209 755>
LayerCount: 2
Fore
SplineSet
13 -255 m 1,0,-1
 13 -209 l 1,1,-1
 191 -209 l 1,2,-1
 191 755 l 1,3,-1
 237 755 l 1,4,-1
 237 -255 l 1,5,-1
 13 -255 l 1,0,-1
EndSplineSet
EndChar
